<?xml version="1.0" encoding="UTF-8"?>
<!DOCTYPE svg PUBLIC "-//W3C//DTD SVG 1.1//EN" "http://www.w3.org/Graphics/SVG/1.1/DTD/svg11.dtd">
<!-- Creator: CorelDRAW 2021 (64-Bit) -->
<svg xmlns="http://www.w3.org/2000/svg" xml:space="preserve" width="0.244591in" height="0.121898in" version="1.1" style="shape-rendering:geometricPrecision; text-rendering:geometricPrecision; image-rendering:optimizeQuality; fill-rule:evenodd; clip-rule:evenodd"
viewBox="0 0 4.52 2.25"
 xmlns:xlink="http://www.w3.org/1999/xlink"
 xmlns:xodm="http://www.corel.com/coreldraw/odm/2003">
 <defs>
  <style type="text/css">
   <![CDATA[
    .fil0 {fill:black}
   ]]>
  </style>
 </defs>
 <g id="Layer_x0020_1">
  <metadata id="CorelCorpID_0Corel-Layer"/>
  <path class="fil0" d="M0.83 1.5c-0.05,0.06 -0.13,0.06 -0.19,0.01 -0.05,-0.05 -0.06,-0.14 -0.01,-0.2 0.05,-0.05 0.09,-0.11 0.15,-0.15 0.39,-0.37 0.91,-0.58 1.44,-0.6 0.53,-0.01 1.08,0.17 1.51,0.58 0.06,0.05 0.11,0.11 0.16,0.17 0.05,0.06 0.05,0.14 -0.01,0.2 -0.05,0.05 -0.14,0.05 -0.19,-0.01 -0.05,-0.05 -0.09,-0.1 -0.14,-0.15 -0.39,-0.36 -0.86,-0.52 -1.33,-0.51 -0.47,0.01 -0.92,0.2 -1.27,0.53 -0.04,0.04 -0.09,0.09 -0.13,0.13z"/>
  <path class="fil0" d="M1.3 1.91c-0.05,0.06 -0.13,0.06 -0.19,0.01 -0.05,-0.05 -0.06,-0.14 -0.01,-0.2 0.03,-0.04 0.07,-0.07 0.1,-0.11 0.28,-0.27 0.65,-0.41 1.02,-0.42 0.38,-0.01 0.76,0.12 1.08,0.41 0.04,0.04 0.08,0.08 0.11,0.12 0.05,0.06 0.05,0.14 -0.01,0.2 -0.05,0.05 -0.14,0.05 -0.19,-0.01 -0.03,-0.04 -0.06,-0.07 -0.1,-0.1 -0.26,-0.24 -0.58,-0.35 -0.89,-0.34 -0.31,0.01 -0.62,0.13 -0.85,0.35 -0.03,0.03 -0.06,0.06 -0.09,0.09z"/>
  <path class="fil0" d="M1.78 2.21c-0.05,0.06 -0.13,0.06 -0.19,0.01 -0.05,-0.05 -0.06,-0.14 -0.01,-0.2 0.02,-0.02 0.04,-0.04 0.06,-0.06 0.16,-0.16 0.38,-0.24 0.6,-0.25 0.22,-0.01 0.45,0.07 0.63,0.24 0.02,0.02 0.05,0.04 0.07,0.07 0.05,0.06 0.05,0.14 -0.01,0.2 -0.05,0.05 -0.14,0.05 -0.19,-0.01 -0.02,-0.02 -0.03,-0.03 -0.05,-0.05 -0.13,-0.12 -0.29,-0.18 -0.45,-0.17 -0.16,0 -0.31,0.07 -0.43,0.18 -0.01,0.01 -0.03,0.03 -0.04,0.04z"/>
  <path class="fil0" d="M0.23 1.21c-0.05,0.06 -0.13,0.06 -0.19,0.01 -0.05,-0.05 -0.06,-0.14 -0.01,-0.2 0.06,-0.07 0.13,-0.14 0.2,-0.21 0.53,-0.51 1.24,-0.8 1.97,-0.82 0.73,-0.02 1.47,0.23 2.07,0.8 0.08,0.07 0.15,0.15 0.22,0.23 0.05,0.06 0.05,0.14 -0.01,0.2 -0.05,0.05 -0.14,0.05 -0.19,-0.01 -0.06,-0.07 -0.13,-0.14 -0.2,-0.21 -0.55,-0.51 -1.22,-0.74 -1.88,-0.72 -0.66,0.02 -1.31,0.28 -1.8,0.74 -0.06,0.06 -0.12,0.12 -0.18,0.19z"/>
 </g>
</svg>
