<?xml version="1.0" encoding="UTF-8"?>
<!DOCTYPE svg PUBLIC "-//W3C//DTD SVG 1.1//EN" "http://www.w3.org/Graphics/SVG/1.1/DTD/svg11.dtd">
<!-- Creator: CorelDRAW 2021 (64-Bit) -->
<svg xmlns="http://www.w3.org/2000/svg" xml:space="preserve" width="0.680409in" height="0.121898in" version="1.1" style="shape-rendering:geometricPrecision; text-rendering:geometricPrecision; image-rendering:optimizeQuality; fill-rule:evenodd; clip-rule:evenodd"
viewBox="0 0 34.99 6.27"
 xmlns:xlink="http://www.w3.org/1999/xlink"
 xmlns:xodm="http://www.corel.com/coreldraw/odm/2003">
 <defs>
  <style type="text/css">
   <![CDATA[
    .fil0 {fill:black}
   ]]>
  </style>
 </defs>
 <g id="Layer_x0020_1">
  <metadata id="CorelCorpID_0Corel-Layer"/>
  <path class="fil0" d="M13.12 6.1l0 -1.4 0.28 0 0.33 0.99c0.03,0.09 0.05,0.16 0.07,0.21 0.02,-0.05 0.04,-0.13 0.08,-0.22l0.34 -0.98 0.25 0 0 1.4 -0.18 0 0 -1.17 -0.41 1.17 -0.17 0 -0.4 -1.19 0 1.19 -0.18 0zm-12.48 -2.72c-0.14,0.16 -0.37,0.17 -0.52,0.03 -0.15,-0.14 -0.16,-0.39 -0.03,-0.55 0.17,-0.2 0.36,-0.4 0.55,-0.58 1.48,-1.42 3.46,-2.22 5.47,-2.27 2.02,-0.05 4.08,0.64 5.75,2.21 0.21,0.2 0.42,0.41 0.61,0.64 0.14,0.16 0.13,0.4 -0.02,0.55 -0.15,0.14 -0.38,0.13 -0.52,-0.03 -0.18,-0.21 -0.37,-0.4 -0.56,-0.58 -1.52,-1.43 -3.4,-2.06 -5.24,-2.02 -1.84,0.05 -3.64,0.78 -4.99,2.07 -0.17,0.17 -0.34,0.34 -0.5,0.53zm4.3 2.77c-0.14,0.16 -0.37,0.17 -0.52,0.03 -0.15,-0.14 -0.16,-0.39 -0.03,-0.55 0.05,-0.06 0.11,-0.12 0.17,-0.18 0.45,-0.43 1.05,-0.68 1.67,-0.69 0.62,-0.02 1.25,0.2 1.75,0.68 0.06,0.06 0.13,0.12 0.19,0.19 0.14,0.16 0.13,0.4 -0.02,0.55 -0.15,0.14 -0.38,0.13 -0.52,-0.03 -0.04,-0.05 -0.09,-0.1 -0.13,-0.14 -0.36,-0.34 -0.81,-0.49 -1.24,-0.48 -0.44,0.01 -0.87,0.18 -1.19,0.49 -0.04,0.04 -0.08,0.08 -0.12,0.12zm-1.33 -0.84c-0.14,0.16 -0.37,0.17 -0.52,0.03 -0.15,-0.14 -0.16,-0.39 -0.03,-0.55 0.09,-0.11 0.19,-0.21 0.29,-0.3 0.77,-0.74 1.8,-1.15 2.85,-1.18 1.05,-0.03 2.13,0.33 2.99,1.15 0.11,0.1 0.22,0.21 0.32,0.33 0.14,0.16 0.13,0.4 -0.02,0.55 -0.15,0.14 -0.38,0.13 -0.52,-0.03 -0.09,-0.1 -0.17,-0.19 -0.27,-0.28 -0.72,-0.68 -1.61,-0.98 -2.48,-0.95 -0.87,0.02 -1.73,0.37 -2.37,0.98 -0.08,0.08 -0.16,0.16 -0.24,0.25zm-1.31 -1.12c-0.14,0.16 -0.37,0.17 -0.52,0.03 -0.15,-0.14 -0.16,-0.39 -0.03,-0.55 0.13,-0.15 0.26,-0.29 0.41,-0.43 1.09,-1.04 2.53,-1.62 4.01,-1.66 1.48,-0.04 2.99,0.47 4.21,1.62 0.15,0.14 0.3,0.3 0.45,0.47 0.14,0.16 0.13,0.4 -0.02,0.55 -0.15,0.14 -0.38,0.13 -0.52,-0.03 -0.13,-0.15 -0.26,-0.28 -0.4,-0.41 -1.07,-1.01 -2.4,-1.46 -3.7,-1.42 -1.3,0.03 -2.57,0.55 -3.53,1.46 -0.12,0.12 -0.24,0.24 -0.35,0.37zm25.81 0.02l0.82 0 0 -0.81 1.56 0 0.01 0.81 0.82 -0.01c-0,-0.69 0.08,-2.15 -0.03,-2.74 -0.3,-1.67 -2.76,-1.75 -3.14,-0.06 -0.12,0.55 -0.04,2.15 -0.04,2.81zm0.82 -1.63l1.57 -0c-0,-0.54 0.15,-1.55 -0.75,-1.59 -0.97,-0.03 -0.82,1.12 -0.82,1.59zm-15.81 -1.59l0.44 0 0 2.35 -0 0.05 -0.44 0 0 0.82 1.86 0 -0.15 0 0 -0.82 -0.44 -0 0 -2.39 0.44 -0.01 -0 -0.82 -0.06 0 -1.64 0 0 0.82zm5.53 0l0.44 0 0.01 2.4 -0.44 0 0 0.82 1.71 0 -0 -0.82 -0.44 -0 0 -2.39 0.44 -0.01 -0 -0.82 -1.69 0 -0.01 0.82zm2.02 0l1.29 0 0 3.22 0.82 -0 0 -3.22 1.29 0 0 -0.82 -3.41 0 -0 0.82zm3.72 0l1.29 0 0 3.22 0.82 -0 0 -3.22 1.29 0 -0 -0.82 -3.41 0 -0 0.82zm-9.25 3.22l0.82 0c0,-0.46 -0.09,-2.5 0.12,-2.84 0.29,-0.48 0.96,-0.52 1.31,-0.06 0.25,0.34 0.15,2.42 0.15,2.9l0.82 -0.01c-0,-0.69 0.08,-2.15 -0.03,-2.74 -0.3,-1.67 -2.76,-1.75 -3.14,-0.06 -0.12,0.55 -0.04,2.15 -0.04,2.81zm16.47 0l0.82 0 -0 -3.22c0.55,-0 1.58,-0.17 1.72,0.3 0.22,0.76 -0.8,0.61 -1.34,0.61l0 0.82c0.74,0 1.21,0.1 1.72,-0.29 0.81,-0.62 0.54,-2.23 -0.84,-2.26 -0.68,-0.02 -1.39,0 -2.08,0l-0 4.04zm2.83 1.89l0 -1.02 0.15 0 0 0.16c0.04,-0.07 0.08,-0.12 0.11,-0.14 0.03,-0.02 0.07,-0.03 0.11,-0.03 0.06,0 0.12,0.02 0.18,0.05l-0.06 0.16c-0.04,-0.02 -0.08,-0.04 -0.13,-0.04 -0.04,0 -0.07,0.01 -0.1,0.03 -0.03,0.02 -0.05,0.05 -0.06,0.09 -0.02,0.06 -0.03,0.13 -0.03,0.2l0 0.53 -0.17 0zm-0.39 -0.33l0.18 0.02c-0.03,0.1 -0.08,0.18 -0.16,0.24 -0.08,0.06 -0.17,0.09 -0.29,0.09 -0.15,0 -0.27,-0.05 -0.35,-0.14 -0.09,-0.09 -0.13,-0.22 -0.13,-0.38 0,-0.17 0.04,-0.3 0.13,-0.4 0.09,-0.09 0.2,-0.14 0.34,-0.14 0.14,0 0.25,0.05 0.33,0.14 0.09,0.09 0.13,0.22 0.13,0.39 0,0.01 -0,0.03 -0,0.05l-0.76 0c0.01,0.11 0.04,0.2 0.09,0.26 0.06,0.06 0.13,0.09 0.21,0.09 0.06,0 0.12,-0.02 0.16,-0.05 0.04,-0.03 0.08,-0.09 0.11,-0.16zm-0.56 -0.28l0.57 0c-0.01,-0.09 -0.03,-0.15 -0.06,-0.19 -0.05,-0.07 -0.13,-0.1 -0.21,-0.1 -0.08,0 -0.15,0.03 -0.2,0.08 -0.05,0.05 -0.08,0.12 -0.09,0.21zm-0.3 0.45l0.02 0.15c-0.05,0.01 -0.09,0.02 -0.13,0.02 -0.06,0 -0.11,-0.01 -0.15,-0.03 -0.03,-0.02 -0.06,-0.05 -0.07,-0.08 -0.01,-0.03 -0.02,-0.1 -0.02,-0.2l0 -0.59 -0.13 0 0 -0.13 0.13 0 0 -0.25 0.17 -0.1 0 0.35 0.17 0 0 0.13 -0.17 0 0 0.6c0,0.05 0,0.08 0.01,0.09 0.01,0.01 0.02,0.03 0.03,0.03 0.01,0.01 0.03,0.01 0.06,0.01 0.02,0 0.04,-0 0.08,-0.01zm-0.54 0l0.02 0.15c-0.05,0.01 -0.09,0.02 -0.13,0.02 -0.06,0 -0.11,-0.01 -0.15,-0.03 -0.03,-0.02 -0.06,-0.05 -0.07,-0.08 -0.01,-0.03 -0.02,-0.1 -0.02,-0.2l0 -0.59 -0.13 0 0 -0.13 0.13 0 0 -0.25 0.17 -0.1 0 0.35 0.17 0 0 0.13 -0.17 0 0 0.6c0,0.05 0,0.08 0.01,0.09 0.01,0.01 0.02,0.03 0.03,0.03 0.01,0.01 0.03,0.01 0.06,0.01 0.02,0 0.04,-0 0.08,-0.01zm-0.77 -0.18l0.18 0.02c-0.03,0.1 -0.08,0.18 -0.16,0.24 -0.08,0.06 -0.17,0.09 -0.29,0.09 -0.15,0 -0.27,-0.05 -0.35,-0.14 -0.09,-0.09 -0.13,-0.22 -0.13,-0.38 0,-0.17 0.04,-0.3 0.13,-0.4 0.09,-0.09 0.2,-0.14 0.34,-0.14 0.14,0 0.25,0.05 0.33,0.14 0.09,0.09 0.13,0.22 0.13,0.39 0,0.01 -0,0.03 -0,0.05l-0.76 0c0.01,0.11 0.04,0.2 0.09,0.26 0.06,0.06 0.13,0.09 0.21,0.09 0.06,0 0.12,-0.02 0.16,-0.05 0.04,-0.03 0.08,-0.09 0.11,-0.16zm-0.56 -0.28l0.57 0c-0.01,-0.09 -0.03,-0.15 -0.06,-0.19 -0.05,-0.07 -0.13,-0.1 -0.21,-0.1 -0.08,0 -0.15,0.03 -0.2,0.08 -0.05,0.05 -0.08,0.12 -0.09,0.21zm-1.42 0.61l0 -1.4 0.53 0c0.11,0 0.19,0.01 0.26,0.04 0.06,0.03 0.12,0.07 0.15,0.13 0.04,0.06 0.06,0.12 0.06,0.19 0,0.06 -0.02,0.12 -0.05,0.17 -0.03,0.05 -0.08,0.1 -0.15,0.13 0.08,0.02 0.15,0.07 0.2,0.13 0.05,0.06 0.07,0.13 0.07,0.21 0,0.07 -0.01,0.13 -0.04,0.18 -0.03,0.06 -0.06,0.1 -0.1,0.13 -0.04,0.03 -0.09,0.05 -0.15,0.07 -0.06,0.02 -0.14,0.02 -0.23,0.02l-0.53 0zm0.19 -0.81l0.3 0c0.08,0 0.14,-0.01 0.18,-0.02 0.05,-0.01 0.08,-0.04 0.11,-0.07 0.02,-0.03 0.04,-0.07 0.04,-0.12 0,-0.05 -0.01,-0.09 -0.03,-0.12 -0.02,-0.04 -0.05,-0.06 -0.1,-0.07 -0.04,-0.01 -0.11,-0.02 -0.21,-0.02l-0.28 0 0 0.42zm0 0.65l0.35 0c0.06,0 0.1,-0 0.13,-0.01 0.04,-0.01 0.08,-0.02 0.11,-0.04 0.03,-0.02 0.05,-0.04 0.07,-0.08 0.02,-0.03 0.03,-0.07 0.03,-0.12 0,-0.05 -0.01,-0.1 -0.04,-0.14 -0.03,-0.04 -0.06,-0.07 -0.11,-0.08 -0.05,-0.02 -0.12,-0.02 -0.2,-0.02l-0.32 0 0 0.48zm-1.79 -0.14l0.17 -0.03c0.01,0.07 0.04,0.12 0.08,0.16 0.04,0.04 0.11,0.05 0.18,0.05 0.08,0 0.14,-0.02 0.18,-0.05 0.04,-0.03 0.06,-0.07 0.06,-0.11 0,-0.04 -0.02,-0.07 -0.05,-0.09 -0.02,-0.02 -0.08,-0.03 -0.18,-0.06 -0.13,-0.03 -0.21,-0.06 -0.26,-0.08 -0.05,-0.02 -0.09,-0.06 -0.11,-0.1 -0.03,-0.04 -0.04,-0.09 -0.04,-0.14 0,-0.05 0.01,-0.09 0.03,-0.13 0.02,-0.04 0.05,-0.07 0.08,-0.1 0.03,-0.02 0.06,-0.04 0.11,-0.05 0.05,-0.01 0.1,-0.02 0.15,-0.02 0.08,0 0.15,0.01 0.21,0.03 0.06,0.02 0.1,0.05 0.13,0.09 0.03,0.04 0.05,0.09 0.06,0.16l-0.17 0.02c-0.01,-0.05 -0.03,-0.09 -0.07,-0.12 -0.04,-0.03 -0.09,-0.04 -0.15,-0.04 -0.08,0 -0.14,0.01 -0.17,0.04 -0.03,0.03 -0.05,0.06 -0.05,0.09 0,0.02 0.01,0.04 0.02,0.06 0.01,0.02 0.04,0.03 0.07,0.05 0.02,0.01 0.07,0.02 0.15,0.04 0.12,0.03 0.21,0.06 0.25,0.08 0.05,0.02 0.09,0.05 0.11,0.09 0.03,0.04 0.04,0.09 0.04,0.15 0,0.06 -0.02,0.11 -0.05,0.16 -0.03,0.05 -0.08,0.09 -0.14,0.12 -0.06,0.03 -0.13,0.04 -0.21,0.04 -0.13,0 -0.23,-0.03 -0.3,-0.08 -0.07,-0.05 -0.11,-0.14 -0.13,-0.24zm-1.02 0.3l0 -1.02 0.15 0 0 0.14c0.07,-0.11 0.18,-0.17 0.32,-0.17 0.06,0 0.12,0.01 0.17,0.03 0.05,0.02 0.09,0.05 0.12,0.09 0.03,0.04 0.04,0.08 0.05,0.13 0.01,0.03 0.01,0.09 0.01,0.17l0 0.62 -0.17 0 0 -0.62c0,-0.07 -0.01,-0.12 -0.02,-0.16 -0.01,-0.03 -0.04,-0.06 -0.07,-0.08 -0.03,-0.02 -0.07,-0.03 -0.12,-0.03 -0.07,0 -0.14,0.02 -0.19,0.07 -0.05,0.05 -0.08,0.13 -0.08,0.26l0 0.55 -0.17 0zm-1.15 -0.51c0,-0.19 0.05,-0.33 0.16,-0.42 0.09,-0.08 0.19,-0.11 0.32,-0.11 0.14,0 0.25,0.05 0.34,0.14 0.09,0.09 0.13,0.22 0.13,0.38 0,0.13 -0.02,0.23 -0.06,0.31 -0.04,0.07 -0.1,0.13 -0.17,0.17 -0.07,0.04 -0.16,0.06 -0.25,0.06 -0.14,0 -0.26,-0.05 -0.34,-0.14 -0.09,-0.09 -0.13,-0.22 -0.13,-0.39zm0.18 0c0,0.13 0.03,0.23 0.09,0.29 0.06,0.06 0.13,0.1 0.22,0.1 0.09,0 0.16,-0.03 0.21,-0.1 0.06,-0.06 0.09,-0.16 0.09,-0.3 0,-0.13 -0.03,-0.22 -0.09,-0.28 -0.06,-0.06 -0.13,-0.1 -0.21,-0.1 -0.09,0 -0.16,0.03 -0.22,0.1 -0.06,0.06 -0.09,0.16 -0.09,0.29zm-0.55 -0.7l0 -0.2 0.17 0 0 0.2 -0.17 0zm0 1.21l0 -1.02 0.17 0 0 1.02 -0.17 0zm-0.17 -0.15l0.02 0.15c-0.05,0.01 -0.09,0.02 -0.13,0.02 -0.06,0 -0.11,-0.01 -0.15,-0.03 -0.03,-0.02 -0.06,-0.05 -0.07,-0.08 -0.01,-0.03 -0.02,-0.1 -0.02,-0.2l0 -0.59 -0.13 0 0 -0.13 0.13 0 0 -0.25 0.17 -0.1 0 0.35 0.17 0 0 0.13 -0.17 0 0 0.6c0,0.05 0,0.08 0.01,0.09 0.01,0.01 0.02,0.03 0.03,0.03 0.01,0.01 0.03,0.01 0.06,0.01 0.02,0 0.04,-0 0.08,-0.01zm-0.69 -0.22l0.17 0.02c-0.02,0.12 -0.07,0.21 -0.14,0.27 -0.08,0.07 -0.17,0.1 -0.28,0.1 -0.14,0 -0.25,-0.05 -0.33,-0.14 -0.08,-0.09 -0.13,-0.22 -0.13,-0.39 0,-0.11 0.02,-0.21 0.05,-0.29 0.04,-0.08 0.09,-0.14 0.17,-0.18 0.07,-0.04 0.15,-0.06 0.24,-0.06 0.11,0 0.2,0.03 0.27,0.08 0.07,0.06 0.12,0.14 0.13,0.24l-0.17 0.03c-0.02,-0.07 -0.04,-0.12 -0.08,-0.15 -0.04,-0.03 -0.09,-0.05 -0.15,-0.05 -0.09,0 -0.16,0.03 -0.21,0.09 -0.05,0.06 -0.08,0.16 -0.08,0.29 0,0.14 0.03,0.24 0.08,0.3 0.05,0.06 0.12,0.09 0.2,0.09 0.07,0 0.12,-0.02 0.17,-0.06 0.05,-0.04 0.07,-0.1 0.09,-0.19zm-1.06 0.04l0.18 0.02c-0.03,0.1 -0.08,0.18 -0.16,0.24 -0.08,0.06 -0.17,0.09 -0.29,0.09 -0.15,0 -0.27,-0.05 -0.35,-0.14 -0.09,-0.09 -0.13,-0.22 -0.13,-0.38 0,-0.17 0.04,-0.3 0.13,-0.4 0.09,-0.09 0.2,-0.14 0.34,-0.14 0.14,0 0.25,0.05 0.33,0.14 0.09,0.09 0.13,0.22 0.13,0.39 0,0.01 -0,0.03 -0,0.05l-0.76 0c0.01,0.11 0.04,0.2 0.09,0.26 0.06,0.06 0.13,0.09 0.21,0.09 0.06,0 0.12,-0.02 0.16,-0.05 0.04,-0.03 0.08,-0.09 0.11,-0.16zm-0.56 -0.28l0.57 0c-0.01,-0.09 -0.03,-0.15 -0.06,-0.19 -0.05,-0.07 -0.13,-0.1 -0.21,-0.1 -0.08,0 -0.15,0.03 -0.2,0.08 -0.05,0.05 -0.08,0.12 -0.09,0.21zm-1.22 0.61l0 -1.02 0.15 0 0 0.14c0.07,-0.11 0.18,-0.17 0.32,-0.17 0.06,0 0.12,0.01 0.17,0.03 0.05,0.02 0.09,0.05 0.12,0.09 0.03,0.04 0.04,0.08 0.05,0.13 0.01,0.03 0.01,0.09 0.01,0.17l0 0.62 -0.17 0 0 -0.62c0,-0.07 -0.01,-0.12 -0.02,-0.16 -0.01,-0.03 -0.04,-0.06 -0.07,-0.08 -0.03,-0.02 -0.07,-0.03 -0.12,-0.03 -0.07,0 -0.14,0.02 -0.19,0.07 -0.05,0.05 -0.08,0.13 -0.08,0.26l0 0.55 -0.17 0zm-1.09 0l0 -1.02 0.15 0 0 0.14c0.07,-0.11 0.18,-0.17 0.32,-0.17 0.06,0 0.12,0.01 0.17,0.03 0.05,0.02 0.09,0.05 0.12,0.09 0.03,0.04 0.04,0.08 0.05,0.13 0.01,0.03 0.01,0.09 0.01,0.17l0 0.62 -0.17 0 0 -0.62c0,-0.07 -0.01,-0.12 -0.02,-0.16 -0.01,-0.03 -0.04,-0.06 -0.07,-0.08 -0.03,-0.02 -0.07,-0.03 -0.12,-0.03 -0.07,0 -0.14,0.02 -0.19,0.07 -0.05,0.05 -0.08,0.13 -0.08,0.26l0 0.55 -0.17 0zm-1.15 -0.51c0,-0.19 0.05,-0.33 0.16,-0.42 0.09,-0.08 0.19,-0.11 0.32,-0.11 0.14,0 0.25,0.05 0.34,0.14 0.09,0.09 0.13,0.22 0.13,0.38 0,0.13 -0.02,0.23 -0.06,0.31 -0.04,0.07 -0.1,0.13 -0.17,0.17 -0.07,0.04 -0.16,0.06 -0.24,0.06 -0.14,0 -0.26,-0.05 -0.35,-0.14 -0.09,-0.09 -0.13,-0.22 -0.13,-0.39zm0.18 0c0,0.13 0.03,0.23 0.09,0.29 0.06,0.06 0.13,0.1 0.22,0.1 0.09,0 0.16,-0.03 0.21,-0.1 0.06,-0.06 0.09,-0.16 0.09,-0.3 0,-0.13 -0.03,-0.22 -0.09,-0.28 -0.06,-0.06 -0.13,-0.1 -0.21,-0.1 -0.09,0 -0.16,0.03 -0.22,0.1 -0.06,0.06 -0.09,0.16 -0.09,0.29zm-0.51 0.02l0.19 0.05c-0.04,0.15 -0.11,0.27 -0.21,0.35 -0.1,0.08 -0.22,0.12 -0.37,0.12 -0.15,0 -0.27,-0.03 -0.37,-0.09 -0.09,-0.06 -0.17,-0.15 -0.22,-0.27 -0.05,-0.12 -0.07,-0.24 -0.07,-0.38 0,-0.15 0.03,-0.27 0.08,-0.38 0.06,-0.11 0.14,-0.19 0.24,-0.25 0.1,-0.06 0.22,-0.08 0.34,-0.08 0.14,0 0.26,0.04 0.35,0.11 0.1,0.07 0.16,0.17 0.2,0.3l-0.18 0.04c-0.03,-0.1 -0.08,-0.18 -0.14,-0.22 -0.06,-0.05 -0.14,-0.07 -0.23,-0.07 -0.11,0 -0.2,0.03 -0.27,0.08 -0.07,0.05 -0.12,0.12 -0.15,0.21 -0.03,0.09 -0.04,0.18 -0.04,0.27 0,0.12 0.02,0.22 0.05,0.31 0.03,0.09 0.09,0.16 0.16,0.2 0.07,0.04 0.15,0.07 0.24,0.07 0.1,0 0.19,-0.03 0.26,-0.09 0.07,-0.06 0.12,-0.15 0.15,-0.27zm-1.96 0.16l0.18 0.02c-0.03,0.1 -0.08,0.18 -0.16,0.24 -0.08,0.06 -0.17,0.09 -0.29,0.09 -0.15,0 -0.27,-0.05 -0.35,-0.14 -0.09,-0.09 -0.13,-0.22 -0.13,-0.38 0,-0.17 0.04,-0.3 0.13,-0.4 0.09,-0.09 0.2,-0.14 0.34,-0.14 0.14,0 0.25,0.05 0.33,0.14 0.09,0.09 0.13,0.22 0.13,0.39 0,0.01 -0,0.03 -0,0.05l-0.76 0c0.01,0.11 0.04,0.2 0.09,0.26 0.06,0.06 0.13,0.09 0.21,0.09 0.06,0 0.12,-0.02 0.16,-0.05 0.04,-0.03 0.08,-0.09 0.11,-0.16zm-0.56 -0.28l0.57 0c-0.01,-0.09 -0.03,-0.15 -0.06,-0.19 -0.05,-0.07 -0.13,-0.1 -0.21,-0.1 -0.08,0 -0.15,0.03 -0.2,0.08 -0.05,0.05 -0.08,0.12 -0.09,0.21zm-1.11 0.61l0 -1.4 0.17 0 0 0.8 0.41 -0.41 0.22 0 -0.39 0.38 0.43 0.64 -0.21 0 -0.34 -0.52 -0.12 0.12 0 0.4 -0.17 0zm-0.43 -0.13c-0.06,0.05 -0.13,0.09 -0.18,0.12 -0.06,0.02 -0.12,0.03 -0.19,0.03 -0.11,0 -0.2,-0.03 -0.26,-0.08 -0.06,-0.05 -0.09,-0.12 -0.09,-0.21 0,-0.05 0.01,-0.09 0.03,-0.14 0.02,-0.04 0.05,-0.07 0.09,-0.1 0.04,-0.02 0.08,-0.04 0.12,-0.06 0.03,-0.01 0.09,-0.02 0.15,-0.03 0.14,-0.02 0.24,-0.04 0.31,-0.06 0,-0.02 0,-0.04 0,-0.04 0,-0.07 -0.02,-0.12 -0.05,-0.15 -0.04,-0.04 -0.11,-0.06 -0.2,-0.06 -0.08,0 -0.14,0.01 -0.18,0.04 -0.04,0.03 -0.07,0.08 -0.09,0.15l-0.17 -0.02c0.02,-0.07 0.04,-0.13 0.08,-0.17 0.04,-0.04 0.09,-0.08 0.15,-0.1 0.07,-0.02 0.14,-0.04 0.23,-0.04 0.09,0 0.16,0.01 0.21,0.03 0.05,0.02 0.09,0.05 0.12,0.08 0.03,0.03 0.04,0.07 0.05,0.12 0.01,0.03 0.01,0.08 0.01,0.16l0 0.23c0,0.16 0,0.26 0.01,0.3 0.01,0.04 0.02,0.08 0.04,0.12l-0.18 0c-0.02,-0.04 -0.03,-0.08 -0.03,-0.13zm-0.01 -0.38c-0.06,0.03 -0.16,0.05 -0.28,0.06 -0.07,0.01 -0.12,0.02 -0.15,0.03 -0.03,0.01 -0.05,0.03 -0.07,0.06 -0.02,0.02 -0.02,0.05 -0.02,0.08 0,0.05 0.02,0.08 0.05,0.11 0.03,0.03 0.09,0.05 0.15,0.05 0.07,0 0.13,-0.01 0.18,-0.04 0.05,-0.03 0.09,-0.07 0.11,-0.12 0.02,-0.04 0.03,-0.1 0.03,-0.17l0 -0.06z"/>
 </g>
</svg>
