<?xml version="1.0" encoding="UTF-8"?>
<!DOCTYPE svg PUBLIC "-//W3C//DTD SVG 1.1//EN" "http://www.w3.org/Graphics/SVG/1.1/DTD/svg11.dtd">
<!-- Creator: CorelDRAW 2021 (64-Bit) -->
<svg xmlns="http://www.w3.org/2000/svg" xml:space="preserve" width="1.65981in" height="0.900008in" version="1.1" style="shape-rendering:geometricPrecision; text-rendering:geometricPrecision; image-rendering:optimizeQuality; fill-rule:evenodd; clip-rule:evenodd"
viewBox="0 0 27.1 14.69"
 xmlns:xlink="http://www.w3.org/1999/xlink"
 xmlns:xodm="http://www.corel.com/coreldraw/odm/2003">
 <defs>
  <style type="text/css">
   <![CDATA[
    .fil12 {fill:#1A3150;fill-rule:nonzero}
    .fil13 {fill:#233F6D;fill-rule:nonzero}
    .fil6 {fill:#3150BC;fill-rule:nonzero}
    .fil14 {fill:#4D79B6;fill-rule:nonzero}
    .fil9 {fill:#525459;fill-rule:nonzero}
    .fil3 {fill:#70B1DD;fill-rule:nonzero}
    .fil7 {fill:#77AAF9;fill-rule:nonzero}
    .fil2 {fill:#AADAF6;fill-rule:nonzero}
    .fil0 {fill:#E4EBF6;fill-rule:nonzero}
    .fil4 {fill:#F29C8A;fill-rule:nonzero}
    .fil8 {fill:#FDB19E;fill-rule:nonzero}
    .fil11 {fill:#FF8569;fill-rule:nonzero}
    .fil1 {fill:white;fill-rule:nonzero}
    .fil15 {fill:#1A3150;fill-rule:nonzero;fill-opacity:0.490196}
    .fil10 {fill:url(#id0);fill-rule:nonzero}
    .fil5 {fill:url(#id1);fill-rule:nonzero}
    .fil17 {fill:url(#id2);fill-rule:nonzero}
    .fil19 {fill:url(#id3);fill-rule:nonzero}
    .fil18 {fill:url(#id4);fill-rule:nonzero}
    .fil16 {fill:url(#id5);fill-rule:nonzero}
   ]]>
  </style>
  <linearGradient id="id0" gradientUnits="userSpaceOnUse" x1="10.67" y1="4.34" x2="15.33" y2="4.34">
   <stop offset="0" style="stop-opacity:1; stop-color:#4B3737"/>
   <stop offset="1" style="stop-opacity:1; stop-color:#664343"/>
  </linearGradient>
  <linearGradient id="id1" gradientUnits="userSpaceOnUse" x1="15.83" y1="13.55" x2="15.37" y2="7.41">
   <stop offset="0" style="stop-opacity:1; stop-color:#5365AD"/>
   <stop offset="1" style="stop-opacity:1; stop-color:#687CBC"/>
  </linearGradient>
  <radialGradient id="id2" gradientUnits="userSpaceOnUse" gradientTransform="matrix(1.33159 -0 -0 1.33157 -2 -2)" cx="5.25" cy="6.35" r="4.94" fx="5.25" fy="6.35">
   <stop offset="0" style="stop-opacity:1; stop-color:#F7C861"/>
   <stop offset="1" style="stop-opacity:1; stop-color:#F79646"/>
  </radialGradient>
  <radialGradient id="id3" gradientUnits="userSpaceOnUse" gradientTransform="matrix(0.984553 -0 -0 0.984513 0 0)" xlink:href="#id2" cx="17.54" cy="9.53" r="3.96" fx="17.54" fy="9.53">
  </radialGradient>
  <radialGradient id="id4" gradientUnits="userSpaceOnUse" gradientTransform="matrix(1.25125 -0 -0 1.25125 -5 -1)" xlink:href="#id2" cx="17.99" cy="4.38" r="2.11" fx="17.99" fy="4.38">
  </radialGradient>
  <radialGradient id="id5" gradientUnits="userSpaceOnUse" gradientTransform="matrix(1.95951 -0 -0 1.9595 -7 -10)" xlink:href="#id2" cx="7.45" cy="10.38" r="1.91" fx="7.45" fy="10.38">
  </radialGradient>
 </defs>
 <g id="Layer_x0020_1">
  <metadata id="CorelCorpID_0Corel-Layer"/>
  <g id="_2142933114480">
   <g>
    <path class="fil0" d="M27.01 12.23c-0.01,0.04 -0.02,0.07 -0.03,0.1 -0.14,0.57 -0.43,1.17 -0.86,1.81l-2.2 -0.01 -0.12 0 -11.86 -0.03 -0.14 0 -2.3 -0.01 -0.15 -0 -7.3 -0.02c0,0 -1.89,-2.23 0.64,-4.31 1.19,-0.98 2.79,-0.83 4,-0.95 0.05,-0.01 0.1,-0.01 0.16,-0.02 1.29,-0.17 2.09,-0.74 1.35,-3.55 -0.1,-0.39 -0.14,-0.77 -0.12,-1.16 0,-0.05 0.01,-0.11 0.01,-0.16 0.24,-2.61 3.1,-4.86 6.4,-3.53 0.06,0.02 0.12,0.05 0.18,0.08 0.73,0.32 1.48,0.82 2.22,1.53 0.62,0.59 1.16,1.13 1.64,1.62 0.05,0.06 0.11,0.11 0.16,0.16 2.31,2.36 3.11,3.51 4.35,4.18 0.03,0.02 0.07,0.04 0.1,0.05 0.36,0.18 0.76,0.33 1.24,0.46 0.52,0.14 0.98,0.34 1.36,0.59 0.03,0.02 0.06,0.04 0.09,0.06 1,0.7 1.45,1.79 1.15,3.1z"/>
    <path class="fil0" d="M23.65 2c-1.92,-1.46 -4.42,-1.12 -3.92,0 0.5,1.12 2.67,4 4.21,3.5 1.54,-0.5 0.98,-2.53 -0.29,-3.5z"/>
    <path class="fil1" d="M25.86 9.13c-1.63,1.31 -3.11,1.97 -4.4,1.97 -0.32,0 -0.64,-0.04 -0.94,-0.12 -1.93,-0.53 -3.4,-2.76 -4.35,-6.62 -0.42,-1.72 -1.02,-3 -1.66,-3.96 0.06,0.02 0.12,0.05 0.18,0.08 0.61,0.95 1.18,2.21 1.59,3.86 0.94,3.82 2.38,6.02 4.27,6.54 1.46,0.4 3.21,-0.21 5.21,-1.81 0.03,0.02 0.06,0.04 0.09,0.06z"/>
    <path class="fil1" d="M23.17 8.01c-0.49,0.48 -0.97,0.72 -1.43,0.72 -0.1,0 -0.21,-0.01 -0.31,-0.04 -1.38,-0.33 -2.31,-2.84 -2.87,-5.08 0.05,0.06 0.11,0.11 0.16,0.16 0.56,2.16 1.46,4.5 2.74,4.81 0.51,0.12 1.05,-0.09 1.61,-0.63 0.03,0.02 0.07,0.04 0.1,0.05z"/>
    <path class="fil1" d="M11.95 14.1l-0.14 0c0.89,-1.1 1.34,-2.27 1.31,-3.49 -0.05,-2.25 -1.71,-4.17 -3.33,-5.07 -0.71,-0.39 -1.26,-0.91 -1.68,-1.46 0,-0.05 0.01,-0.11 0.01,-0.16 0.43,0.58 0.99,1.12 1.72,1.53 1.65,0.92 3.33,2.87 3.39,5.16 0.02,0.94 -0.24,2.18 -1.28,3.49z"/>
    <path class="fil1" d="M9.51 14.1l-0.15 -0c0.54,-0.64 0.89,-1.35 0.87,-2.05 -0.03,-0.92 -0.7,-1.7 -1.98,-2.31 -0.55,-0.26 -1.06,-0.58 -1.54,-0.93 0.05,-0.01 0.1,-0.01 0.16,-0.02 0.44,0.32 0.92,0.61 1.43,0.85 1.32,0.63 2.01,1.43 2.04,2.4 0.02,0.72 -0.32,1.43 -0.83,2.05z"/>
    <path class="fil1" d="M27.01 12.23c-0.01,0.04 -0.02,0.07 -0.03,0.1 -0.79,-0.07 -1.47,0.09 -2.01,0.47 -0.49,0.34 -0.82,0.83 -1.05,1.34l-0.12 0c0.23,-0.54 0.58,-1.06 1.1,-1.43 0.57,-0.39 1.27,-0.56 2.1,-0.48z"/>
   </g>
   <g>
    <path class="fil2" d="M5.41 7.31c0,0 -0.22,0.23 -0.32,1.25 -0.1,1.01 -0.98,1.52 -1.67,1.57 -0,0 -0.01,0 -0.01,0l-0 -0.01 -0.03 -0.1 -0.18 -0.65c0,0 -0.22,-1.78 2.13,-2.06 0.03,-0 0.05,-0.01 0.08,-0.01z"/>
    <path class="fil2" d="M3.6 14.14c0,0 0.04,-5.22 -0.84,-6.92 -0.88,-1.7 -2.76,-1.99 -2.76,-1.99 0,0 2,0.52 2.76,2.54 0.75,2.02 0.52,6.37 0.52,6.37l0.32 0z"/>
    <g>
     <path class="fil2" d="M3.31 13.16c-2.88,-0.02 -2.92,-3.21 -2.92,-3.39 0,-0 0,-0.01 0,-0.01 0.67,1 3.03,0.91 2.92,3.39z"/>
     <path class="fil3" d="M3.31 13.16c-2.88,-0.02 -2.92,-3.21 -2.92,-3.39 0.01,0.14 0.12,2.26 1.41,2.62 1.33,0.37 1.51,0.77 1.51,0.77z"/>
    </g>
    <g>
     <path class="fil2" d="M6.05 11.73c-0.33,0.91 0.16,1.84 -0.68,2.41l-1.47 0c0,0 -0.09,-2.04 2.15,-2.41z"/>
     <path class="fil3" d="M6.05 11.73c-0.33,0.91 0.16,1.84 -0.68,2.41l-0.55 0c0.72,-0.62 0.81,-1.72 1.24,-2.41z"/>
    </g>
    <path class="fil3" d="M5.41 7.31c0,0 -0.22,0.23 -0.32,1.25 -0.1,1.01 -0.98,1.52 -1.67,1.57l-0.02 -0.01 -0.1 -0.07c0.02,-0.01 0.05,-0.02 0.07,-0.03 1.43,-0.54 1.44,-1.88 1.95,-2.71 0.03,-0 0.05,-0.01 0.08,-0.01z"/>
    <g>
     <path class="fil2" d="M3.2 8.69l-0.01 0c-0.15,0.03 -1.83,0.38 -2.18,-1.29 -0.34,-1.64 -0.93,-2.11 -1,-2.16 -0,-0 -0,-0 -0,-0 3.22,0.51 3.2,3.46 3.2,3.46z"/>
     <path class="fil3" d="M3.2 8.69l-0.01 0c-0.15,0.03 -1.83,0.38 -2.18,-1.29 -0.34,-1.64 -0.93,-2.11 -1,-2.16 1.59,0.84 0.82,3.2 3.2,3.45z"/>
    </g>
   </g>
   <polygon class="fil3" points="1.38,14.14 27.03,14.14 27.03,14.69 1.38,14.69 "/>
   <g>
    <path class="fil1" d="M21.76 12.36c0,0 0.31,-0.38 0.15,-0.76 -0.1,-0.24 -0.26,-0.23 -0.62,-0.67 -0.36,-0.44 -0.67,-1.52 0.46,-1.34 1.13,0.17 1.45,0.02 1.25,-0.28 -0.2,-0.3 -0.89,-0.74 -0.62,-1.33 0.27,-0.59 1.29,-0.39 2.29,-0.3 1,0.09 0.67,-0.35 1.28,-0.06 0.61,0.29 0.61,1.95 -0.79,1.85 -1.4,-0.11 -1.66,-0.03 -1.61,0.48 0.06,0.51 0.3,1.39 -0.61,1.06 -0.91,-0.33 -0.66,0.1 -0.49,0.46 0.21,0.46 -0.31,0.9 -0.31,0.9l-0.38 0z"/>
    <path class="fil1" d="M21.65 8.33c-0.3,-0.06 -0.61,-0.54 -0.86,-0.12 -0.2,0.34 0.42,0.85 0.89,0.65 0.38,-0.16 0.36,-0.45 -0.03,-0.53z"/>
    <path class="fil3" d="M23 13.93l0 -0.23c0.3,0 0.57,-0.2 0.65,-0.49l0.04 -0.14c0.02,-0.08 0.01,-0.17 -0.04,-0.24 -0.05,-0.07 -0.13,-0.11 -0.22,-0.11l-0.18 0 0 -0.23 0.18 0c0.16,0 0.31,0.07 0.4,0.2 0.1,0.13 0.13,0.29 0.08,0.44l-0.04 0.14c-0.11,0.39 -0.47,0.66 -0.88,0.66z"/>
    <path class="fil2" d="M23.4 12.37l-0.03 0.23 -0.18 1.21c-0.03,0.19 -0.19,0.33 -0.38,0.33l-0.86 0c-0.19,0 -0.35,-0.14 -0.38,-0.33l-0.17 -1.21 -0.03 -0.23c-0.02,-0.12 0.08,-0.23 0.2,-0.23l1.63 0c0.12,0 0.22,0.11 0.2,0.23z"/>
    <path class="fil3" d="M23.4 12.37l-0.03 0.23 -1.97 0 -0.03 -0.23c-0.02,-0.12 0.08,-0.23 0.2,-0.23l1.63 0c0.12,0 0.22,0.11 0.2,0.23z"/>
   </g>
   <g>
    <g>
     <path class="fil4" d="M19.73 14.14c0,0 0.27,-0.21 0.17,-1.15 -0.1,-0.94 -0.17,-1.6 -0.17,-1.6l-2.05 0.22 0.23 1.88 1.82 0.65z"/>
     <path class="fil5" d="M17.93 12.1l0.27 2.04 -6.73 0c0,0 -0.67,-4.97 0.75,-6.12 0.62,-0.5 1.42,-0.73 2.11,-0.83l0 0c0.89,-0.12 1.62,-0.03 1.62,-0.03 0,0 0.17,-0 0.43,0.02 0.58,0.05 1.61,0.22 2.22,0.78 0.88,0.81 1.29,4.08 1.29,4.08 0,0 -0.78,0.17 -1.97,0.06z"/>
     <path class="fil6" d="M17.93 12.1l-0.31 -0.04 -0.96 -2.5c0,0 0.03,2.83 -0.86,3.67 -0.89,0.84 -3.14,0.43 -3.14,0.43l-0.31 -4.1 -0.67 2.1 0.44 2.48 6.07 0 -0.27 -2.05z"/>
     <path class="fil7" d="M16.39 7.18c-0.06,0.56 -0.23,1.39 -0.69,1.72 -0.74,0.54 -1.41,0.31 -1.7,-0.24 -0.29,-0.55 0.06,-1.35 0.15,-1.41l0.2 -0.06 0 0c0.89,-0.12 1.62,-0.03 1.62,-0.03 0,0 0.17,-0 0.43,0.02z"/>
    </g>
    <g>
     <path class="fil4" d="M11.48 14.14l-0.98 0c-0.63,0 -1.1,-0.57 -0.97,-1.19l0.41 -2.02 1.54 3.21z"/>
     <path class="fil8" d="M11.35 10.64c0,0 0.15,-0.33 0,-0.47 -0.15,-0.14 -0.34,-0.13 -0.34,-0.13 0,0 -0.09,-0.33 -0.68,-0.27 -0.59,0.06 -0.64,0.61 -0.31,0.87l1.34 -0z"/>
     <path class="fil9" d="M10.98 10.28l-0.66 -1.74c-0.03,-0.07 -0.11,-0.11 -0.18,-0.09 -0.09,0.02 -0.13,0.12 -0.1,0.2l0.7 1.68 0.24 -0.05z"/>
    </g>
    <g>
     <path class="fil10" d="M15.32 4.76c0,0 0.06,-0.99 -0.2,-1.31 -0.25,-0.31 -0.53,-0.2 -0.53,-0.2 0,0 0,-0.48 -0.61,-0.62 -0.62,-0.14 -1.31,-0.01 -1.84,0.46 -0.52,0.48 -1.29,0.23 -1.29,0.57 0,0.34 0.48,0.46 0.48,0.46 0,0 -0.66,-0.05 -0.67,0.24 -0.01,0.29 0.47,0.8 1.12,0.78 0,0 0.15,0.95 1.07,0.92l1.41 -0.49 0.94 -0.49 0.12 -0.35z"/>
     <path class="fil8" d="M15.96 7.16c0,0 -0.21,1.85 -1.2,1.73 -0.55,-0.07 -0.58,-0.55 -0.54,-0.87 0.03,-0.2 0.09,-0.35 0.09,-0.35l-0.49 -0.69 1.39 -1.49c0.22,0.7 0.46,1.3 0.75,1.66z"/>
     <path class="fil11" d="M14.23 8.02c0.03,-0.2 0.09,-0.35 0.09,-0.35l-0.49 -0.69 1.39 -1.49c0.54,1.94 -0.49,2.41 -0.99,2.53z"/>
     <path class="fil8" d="M12.23 5.26c0,0 1,2.22 2.05,2.14 0.88,-0.07 1.16,-1.51 0.94,-1.91 0,0 0.39,0.04 0.3,-0.42 -0.09,-0.46 -0.52,-0.91 -0.59,0 0,0 -0.51,0.17 -0.68,-0.93 0,0 -0.5,0.82 -0.88,0.92 -0.38,0.1 -0.27,-0.28 -0.27,-0.28 0,0 -0.23,0.37 -0.87,0.48z"/>
    </g>
    <g>
     <g>
      <path class="fil12" d="M14.92 14.14l-3.72 0c-0.12,0 -0.23,-0.08 -0.28,-0.19l-0.12 -0.31 -1.02 -2.6c-0.08,-0.2 0.07,-0.41 0.28,-0.41l3.68 0c0.12,0 0.23,0.07 0.28,0.19l1.18 2.91c0.08,0.2 -0.06,0.41 -0.28,0.41z"/>
      <path class="fil13" d="M14.66 14.14l-3.46 0c-0.12,0 -0.23,-0.08 -0.28,-0.19l-0.12 -0.31 -1.02 -2.6c-0.08,-0.2 0.07,-0.41 0.28,-0.41l3.42 0c0.03,0 0.06,0 0.09,0.01 0.08,0.03 0.16,0.09 0.19,0.17l1.19 2.91c0.08,0.2 -0.06,0.41 -0.28,0.41z"/>
      <path class="fil14" d="M12.57 12.23c0.06,0.22 -0,0.44 -0.15,0.48 -0.15,0.04 -0.32,-0.11 -0.38,-0.33 -0.06,-0.22 0,-0.44 0.15,-0.48 0.15,-0.04 0.32,0.11 0.38,0.33z"/>
      <path class="fil15" d="M14.92 14.14l-3.72 0c-0.12,0 -0.23,-0.08 -0.28,-0.19l-0.12 -0.31c1.84,-0.19 2.53,-2.08 2.76,-3 0,-0 0,-0.01 0,-0.01l0.17 0c0.12,0 0.23,0.07 0.28,0.19l1.18 2.91c0.08,0.2 -0.06,0.41 -0.28,0.41z"/>
     </g>
     <path class="fil8" d="M19.73 14.14c0,0 -0.42,-1.61 -4.63,-2.42 0,0 -0.32,-0.74 -0.99,-0.78l0.1 0.46c0,0 -0.74,0.15 -1.43,0.07 -0.69,-0.09 -0.19,0.62 0.28,0.96 0.46,0.35 0.56,0.57 1.27,0.41 0.71,-0.15 0.88,-0.18 0.88,-0.18 0,0 0.91,0.96 1.91,1.48l2.61 0z"/>
    </g>
   </g>
   <g>
    <path class="fil16" d="M9.13 9.65c0,0 -0.41,0.04 -0.66,0.47 -0.25,0.44 -0.46,0.7 -0.88,0.58 -0.42,-0.12 -0.36,-1 0.3,-1.25 0.65,-0.25 1.24,0.19 1.24,0.19z"/>
    <path class="fil17" d="M9.35 8.44c0,0 -0.67,-0.91 -1.74,-0.58 -1.07,0.33 -2.08,0.43 -2.67,-0.58 -0.59,-1.01 -0.02,-1.45 0.5,-1.38 0.52,0.07 0.99,1.01 1.75,1.02 0.76,0.01 1.99,0.6 2.16,1.53z"/>
    <path class="fil18" d="M17.09 6.33c0,0 -0.28,-1.41 0.74,-1.89 1.03,-0.47 1.24,0.77 0.48,0.94 -0.75,0.17 -1.16,0.55 -1.23,0.94z"/>
    <path class="fil19" d="M14.47 10.35c0,0 0.29,-0.41 1.14,0.05 0.85,0.45 1.71,0.8 2.31,0.12 0.6,-0.69 0.18,-1.49 -0.44,-1.3 -0.62,0.18 -0.59,0.64 -1.64,0.55 -1.05,-0.09 -1.36,0.59 -1.36,0.59z"/>
   </g>
   <g>
    <path class="fil3" d="M9.64 2.42c0,0.93 -0.76,1.69 -1.69,1.69 -0.93,0 -1.69,-0.76 -1.69,-1.69 0,-0.93 0.76,-1.69 1.69,-1.69 0.93,0 1.69,0.76 1.69,1.69z"/>
    <path class="fil2" d="M9.19 2.42c0,0.69 -0.56,1.24 -1.24,1.24 -0.69,0 -1.24,-0.56 -1.24,-1.24 0,-0.69 0.56,-1.24 1.24,-1.24 0.69,0 1.24,0.56 1.24,1.24z"/>
    <path class="fil3" d="M8.65 2.36l-0.61 0 0 -0.83c0,-0.07 -0.05,-0.12 -0.12,-0.12 -0.07,0 -0.12,0.05 -0.12,0.12l0 1.04 0.08 0 0.15 0 0.61 0c0.06,0 0.11,-0.05 0.11,-0.11 0,-0.06 -0.05,-0.11 -0.11,-0.11z"/>
   </g>
  </g>
 </g>
</svg>
