<?xml version="1.0" encoding="UTF-8"?>
<!DOCTYPE svg PUBLIC "-//W3C//DTD SVG 1.1//EN" "http://www.w3.org/Graphics/SVG/1.1/DTD/svg11.dtd">
<!-- Creator: CorelDRAW 2021 (64-Bit) -->
<svg xmlns="http://www.w3.org/2000/svg" xml:space="preserve" width="1.24582in" height="0.118787in" version="1.1" style="shape-rendering:geometricPrecision; text-rendering:geometricPrecision; image-rendering:optimizeQuality; fill-rule:evenodd; clip-rule:evenodd"
viewBox="0 0 76.49 7.29"
 xmlns:xlink="http://www.w3.org/1999/xlink"
 xmlns:xodm="http://www.corel.com/coreldraw/odm/2003">
 <defs>
  <style type="text/css">
   <![CDATA[
    .str0 {stroke:#BDBFC1;stroke-width:0.43;stroke-linecap:round;stroke-linejoin:round;stroke-miterlimit:2.61313}
    .fil0 {fill:none}
   ]]>
  </style>
   <clipPath id="id0">
    <path d="M76.49 0l-76.49 0 0 7.29 76.49 0 0 -7.29z"/>
   </clipPath>
 </defs>
 <g id="Layer_x0020_1">
  <metadata id="CorelCorpID_0Corel-Layer"/>
  <g>
  </g>
  <g style="clip-path:url(#id0)">
   <g>
    <g id="_1868103069200">
     <line class="fil0 str0" x1="73.46" y1="-2.4" x2="85.77" y2= "9.91" />
     <line class="fil0 str0" x1="71.46" y1="-2.4" x2="83.77" y2= "9.91" />
     <line class="fil0 str0" x1="69.46" y1="-2.4" x2="81.77" y2= "9.91" />
     <line class="fil0 str0" x1="67.46" y1="-2.4" x2="79.77" y2= "9.91" />
     <line class="fil0 str0" x1="65.47" y1="-2.4" x2="77.78" y2= "9.91" />
     <line class="fil0 str0" x1="63.47" y1="-2.4" x2="75.78" y2= "9.91" />
     <line class="fil0 str0" x1="61.47" y1="-2.4" x2="73.78" y2= "9.91" />
     <line class="fil0 str0" x1="59.47" y1="-2.4" x2="71.78" y2= "9.91" />
     <line class="fil0 str0" x1="57.48" y1="-2.4" x2="69.78" y2= "9.91" />
     <line class="fil0 str0" x1="55.48" y1="-2.4" x2="67.79" y2= "9.91" />
     <line class="fil0 str0" x1="53.48" y1="-2.4" x2="65.79" y2= "9.91" />
     <line class="fil0 str0" x1="51.48" y1="-2.4" x2="63.79" y2= "9.91" />
     <line class="fil0 str0" x1="49.48" y1="-2.4" x2="61.79" y2= "9.91" />
     <line class="fil0 str0" x1="47.49" y1="-2.4" x2="59.79" y2= "9.91" />
     <line class="fil0 str0" x1="45.49" y1="-2.4" x2="57.8" y2= "9.91" />
     <line class="fil0 str0" x1="43.49" y1="-2.4" x2="55.8" y2= "9.91" />
     <line class="fil0 str0" x1="41.49" y1="-2.4" x2="53.8" y2= "9.91" />
     <line class="fil0 str0" x1="39.49" y1="-2.4" x2="51.8" y2= "9.91" />
     <line class="fil0 str0" x1="37.5" y1="-2.4" x2="49.8" y2= "9.91" />
     <line class="fil0 str0" x1="35.5" y1="-2.4" x2="47.81" y2= "9.91" />
     <line class="fil0 str0" x1="33.5" y1="-2.4" x2="45.81" y2= "9.91" />
     <line class="fil0 str0" x1="31.5" y1="-2.4" x2="43.81" y2= "9.91" />
     <line class="fil0 str0" x1="29.5" y1="-2.4" x2="41.81" y2= "9.91" />
     <line class="fil0 str0" x1="27.51" y1="-2.4" x2="39.81" y2= "9.91" />
     <line class="fil0 str0" x1="25.51" y1="-2.4" x2="37.82" y2= "9.91" />
     <line class="fil0 str0" x1="23.51" y1="-2.4" x2="35.82" y2= "9.91" />
     <line class="fil0 str0" x1="21.51" y1="-2.4" x2="33.82" y2= "9.91" />
     <line class="fil0 str0" x1="19.51" y1="-2.4" x2="31.82" y2= "9.91" />
     <line class="fil0 str0" x1="17.52" y1="-2.4" x2="29.83" y2= "9.91" />
     <line class="fil0 str0" x1="15.52" y1="-2.4" x2="27.83" y2= "9.91" />
     <line class="fil0 str0" x1="13.52" y1="-2.4" x2="25.83" y2= "9.91" />
     <line class="fil0 str0" x1="11.52" y1="-2.4" x2="23.83" y2= "9.91" />
     <line class="fil0 str0" x1="9.53" y1="-2.4" x2="21.83" y2= "9.91" />
     <line class="fil0 str0" x1="7.53" y1="-2.4" x2="19.84" y2= "9.91" />
     <line class="fil0 str0" x1="5.53" y1="-2.4" x2="17.84" y2= "9.91" />
     <line class="fil0 str0" x1="3.53" y1="-2.4" x2="15.84" y2= "9.91" />
     <line class="fil0 str0" x1="1.53" y1="-2.4" x2="13.84" y2= "9.91" />
     <line class="fil0 str0" x1="-0.46" y1="-2.4" x2="11.84" y2= "9.91" />
     <line class="fil0 str0" x1="-2.46" y1="-2.4" x2="9.85" y2= "9.91" />
     <line class="fil0 str0" x1="-4.46" y1="-2.4" x2="7.85" y2= "9.91" />
     <line class="fil0 str0" x1="-6.46" y1="-2.4" x2="5.85" y2= "9.91" />
     <line class="fil0 str0" x1="-8.46" y1="-2.4" x2="3.85" y2= "9.91" />
    </g>
   </g>
  </g>
  <polygon class="fil0" points="76.49,0 -0,0 -0,7.29 76.49,7.29 "/>
 </g>
</svg>
