<?xml version="1.0" encoding="UTF-8"?>
<!DOCTYPE svg PUBLIC "-//W3C//DTD SVG 1.1//EN" "http://www.w3.org/Graphics/SVG/1.1/DTD/svg11.dtd">
<!-- Creator: CorelDRAW 2021 (64-Bit) -->
<svg xmlns="http://www.w3.org/2000/svg" xml:space="preserve" width="1.62678in" height="0.976697in" version="1.1" style="shape-rendering:geometricPrecision; text-rendering:geometricPrecision; image-rendering:optimizeQuality; fill-rule:evenodd; clip-rule:evenodd"
viewBox="0 0 27.18 16.32"
 xmlns:xlink="http://www.w3.org/1999/xlink"
 xmlns:xodm="http://www.corel.com/coreldraw/odm/2003">
 <defs>
  <style type="text/css">
   <![CDATA[
    .str0 {stroke:#F22FDB;stroke-width:0.23;stroke-miterlimit:2.61313}
    .str1 {stroke:#AB2807;stroke-width:0.07;stroke-linecap:round;stroke-linejoin:round;stroke-miterlimit:2.61313}
    .fil16 {fill:none}
    .fil2 {fill:#4D8EB6;fill-rule:nonzero}
    .fil12 {fill:#525459;fill-rule:nonzero}
    .fil3 {fill:#70B1DD;fill-rule:nonzero}
    .fil13 {fill:#90C6DF;fill-rule:nonzero}
    .fil4 {fill:#AADAF6;fill-rule:nonzero}
    .fil0 {fill:#E4EBF6;fill-rule:nonzero}
    .fil5 {fill:#F49087;fill-rule:nonzero}
    .fil8 {fill:#FDB19E;fill-rule:nonzero}
    .fil9 {fill:#FF8569;fill-rule:nonzero}
    .fil11 {fill:#FFC6AE;fill-rule:nonzero}
    .fil1 {fill:white;fill-rule:nonzero}
    .fil15 {fill:#70B1DD;fill-rule:nonzero;fill-opacity:0.349020}
    .fil14 {fill:#90C6DF;fill-rule:nonzero;fill-opacity:0.349020}
    .fil7 {fill:#F6603A;fill-rule:nonzero;fill-opacity:0.501961}
    .fil10 {fill:url(#id0);fill-rule:nonzero}
    .fil6 {fill:url(#id1);fill-rule:nonzero}
   ]]>
  </style>
  <linearGradient id="id0" gradientUnits="userSpaceOnUse" x1="11.87" y1="4.44" x2="16.32" y2="4.44">
   <stop offset="0" style="stop-opacity:1; stop-color:#4B3737"/>
   <stop offset="1" style="stop-opacity:1; stop-color:#664343"/>
  </linearGradient>
  <linearGradient id="id1" gradientUnits="userSpaceOnUse" x1="15.71" y1="15" x2="14.66" y2="8.65">
   <stop offset="0" style="stop-opacity:1; stop-color:#F79646"/>
   <stop offset="1" style="stop-opacity:1; stop-color:#F7C861"/>
  </linearGradient>
 </defs>
 <g id="Layer_x0020_1">
  <metadata id="CorelCorpID_0Corel-Layer"/>
  <g id="_2143044831344">
   <g>
    <path class="fil0" d="M27.03 11.35c-0.01,0.04 -0.01,0.08 -0.02,0.12 -0.53,2.97 -2.08,4.28 -2.08,4.28l-23.23 0c0,0 -1.42,-2.61 -0.8,-4.89 0.01,-0.03 0.02,-0.07 0.03,-0.1 0.41,-1.36 1.57,-2.58 4.22,-3.04 0.57,-0.1 1.09,-0.19 1.58,-0.28 0.07,-0.01 0.13,-0.03 0.2,-0.04 1.68,-0.32 2.85,-0.61 3.75,-0.94 0,0 0,0 0,0 0.07,-0.02 0.13,-0.05 0.19,-0.07 1.81,-0.71 2.43,-1.64 4.06,-3.52 0.13,-0.15 0.26,-0.29 0.4,-0.43 0.03,-0.03 0.06,-0.06 0.1,-0.09 0.88,-0.83 2.04,-1.55 3.29,-1.97 0.03,-0.01 0.07,-0.02 0.1,-0.03 1.61,-0.51 3.35,-0.52 4.83,0.37 0.06,0.03 0.11,0.07 0.17,0.11 1.17,0.77 2.15,2.13 2.74,4.29 0.7,2.58 0.73,4.64 0.47,6.23z"/>
    <g>
     <path class="fil1" d="M24.69 5.65c-0.33,1.69 -1.48,3.04 -3.42,4.03 -3.8,1.94 -5.31,4.37 -5.91,6.08l-0.11 0c0,-0 0,-0.01 0,-0.01 0.6,-1.73 2.12,-4.2 5.96,-6.16 1.9,-0.97 3.03,-2.31 3.36,-3.96 0.34,-1.7 -0.23,-3.49 -0.93,-4.91 0.06,0.03 0.11,0.07 0.17,0.11 0.67,1.41 1.2,3.15 0.87,4.82z"/>
     <path class="fil1" d="M27.03 11.35c-0.01,0.04 -0.01,0.08 -0.02,0.12 -1.36,0.63 -3.09,1.3 -5.29,1.97 -1.74,0.53 -2.96,1.31 -3.64,2.31l-0.13 0c0.69,-1.06 1.94,-1.87 3.74,-2.42 2.23,-0.68 3.98,-1.36 5.34,-1.99z"/>
     <path class="fil1" d="M18.96 2.07c-0,1.83 -0.54,4.33 -3.09,5.82 -1.08,0.63 -2.3,0.87 -3.52,0.87 -1.65,0 -3.31,-0.44 -4.64,-0.92 -0.34,-0.12 -0.67,-0.25 -0.98,-0.39 0.07,-0.01 0.13,-0.03 0.2,-0.04 2.63,1.08 6.19,1.96 8.88,0.39 2.51,-1.46 3.04,-3.92 3.04,-5.72 0,-0.61 -0.06,-1.18 -0.14,-1.69 0.03,-0.01 0.07,-0.02 0.1,-0.03 0.08,0.52 0.14,1.1 0.14,1.72z"/>
     <path class="fil1" d="M15.16 5.62c-0.51,0.68 -1.42,1.01 -2.71,1.01 -0.53,0 -1.12,-0.06 -1.77,-0.17 0.07,-0.02 0.13,-0.05 0.19,-0.07 2.12,0.34 3.53,0.06 4.2,-0.83 0.61,-0.8 0.54,-1.99 0.25,-3.12 0.03,-0.03 0.06,-0.06 0.1,-0.09 0.31,1.17 0.38,2.42 -0.27,3.27z"/>
     <path class="fil1" d="M13.36 15.76l-0.11 0c-0.22,-0.88 -0.64,-1.83 -1.39,-2.6 -1.24,-1.27 -3.11,-1.79 -5.58,-1.57 -2.26,0.2 -4.06,-0.04 -5.39,-0.72 0.01,-0.03 0.02,-0.07 0.03,-0.1 1.31,0.68 3.1,0.92 5.35,0.72 2.5,-0.23 4.4,0.31 5.66,1.6 0.78,0.8 1.2,1.77 1.42,2.68z"/>
    </g>
   </g>
   <g>
    <path class="fil2" d="M4.33 14.77c0,0 0.6,-1.35 -0.79,-2.41 -1.39,-1.05 -1.71,-1.81 -1.71,-1.81 0,0 -0.47,2.47 0.38,3.64l0 1.7 2.06 0 0.05 -1.12z"/>
    <path class="fil3" d="M3.08 15.79c0,0 -0.07,-0.95 0.87,-1.58 0.94,-0.63 0.93,-1.27 0.93,-1.27 0,0 0.72,1.81 -0.19,2.85l-1.61 0z"/>
    <path class="fil4" d="M3.29 15.79c0,0 0.15,-1.28 -1.04,-1.96 -1.19,-0.68 -1.44,-1.56 -1.44,-1.56 0,0 -0.66,2.22 0.42,3.52l2.06 0z"/>
   </g>
   <g>
    <g>
     <g>
      <path class="fil5" d="M10.66 13.24c-0.37,0.61 -0.85,1.19 -1.43,1.75l0 0.64 1.42 0c0,0 0.45,-0.24 1.35,-0.93 0,0 0.3,-1.97 -1.34,-1.46z"/>
      <path class="fil5" d="M19.6 14.45c0,0 -0.07,1.26 -0.38,1.34 -0.32,0.08 -1.61,-1.09 -1.61,-1.09l-0.15 -0.56 0.96 -0.7c0,0 1.14,0.35 1.18,1.01z"/>
     </g>
     <g>
      <path class="fil6" d="M19.6 14.45c-0.3,-0.58 -2.17,-0.16 -2.17,-0.16l1.33 1.34 -5.97 0c0.2,-0.69 0.08,-2.36 0.08,-2.36 -0,0.01 -0,0.02 -0.01,0.04 -0.09,0.67 -0.44,1.03 -0.44,1.03 -0.03,0.34 -0.42,0.37 -0.42,0.37 -0.04,-0.32 -0.11,-0.56 -0.2,-0.76 -0.39,-0.8 -1.14,-0.7 -1.14,-0.7 -0.08,-0.42 0.37,-0.53 0.37,-0.53 0,0 0.55,-3.21 1.35,-3.84 0.8,-0.63 2.11,-0.95 2.11,-0.95l1.35 -0.09c0,0 2.64,0.53 3.17,1.43 0.53,0.91 0.43,4.34 0.43,4.34 0.42,0.34 0.16,0.84 0.16,0.84z"/>
      <path class="fil7" d="M17.43 14.29c0,0 0.22,-1.95 -0.5,-3.64 0,0 0.12,2.58 -0.93,3.3 -1.05,0.72 -2.84,0.58 -3.29,1.84l3.94 -0.04 0.78 -1.46z"/>
      <path class="fil7" d="M12.87 13.3c-0.09,0.67 -0.44,1.03 -0.44,1.03 -0.03,0.34 -0.42,0.37 -0.42,0.37 -0.04,-0.32 -0.11,-0.56 -0.2,-0.76 0.21,-0.2 0.45,-0.51 0.58,-0.97 0.28,-0.92 0.1,-1.92 0.09,-1.99 0.23,0.86 0.35,1.92 0.39,2.33z"/>
     </g>
    </g>
    <path class="fil8" d="M15.72 14.96c0,0 1.49,-1.04 2.75,-0.62 1.26,0.42 1.16,1.29 0.75,1.45l-3.15 0 -0.35 -0.83z"/>
    <g>
     <path class="fil8" d="M16.12 7.89c0,0 -0.31,1.74 -1.23,1.74 -0.8,0.01 -0.62,-1.05 -0.56,-1.31 0.01,-0.04 0.01,-0.06 0.01,-0.06l-0.33 -1.27 1.77 -0.94 0.04 0.19 0 0 0.3 1.64z"/>
     <path class="fil9" d="M14.33 8.32c0.01,-0.04 0.01,-0.06 0.01,-0.06l-0.33 -1.27 1.77 -0.94 0.04 0.19 0 0c0.23,2.07 -1.45,2.07 -1.49,2.07z"/>
     <path class="fil10" d="M16.02 5.43c0,0 0.23,-0.44 0.29,-1.03 0.05,-0.54 -0.1,-0.66 -0.32,-0.66 0,0 -0.12,-0.61 -0.4,-0.82 -0.28,-0.21 -1.43,0.1 -1.87,0.36 -0.44,0.26 -0.76,-0.46 -0.97,-0.43 -0.2,0.03 -0.24,0.59 -0.09,0.84 0,0 -0.37,-0.2 -0.43,-0.41 -0.06,-0.21 -0.48,0.17 -0.33,0.95 0.15,0.78 0.5,0.88 0.5,0.88 0,0 0.07,0.83 0.74,0.92 0.68,0.09 2.46,-0.07 2.46,-0.07l0.41 -0.53z"/>
     <path class="fil8" d="M12.87 5.13c0,0 0.33,2.25 1.16,2.54 0.83,0.29 1.52,-0.59 1.63,-0.83 0.11,-0.24 0.15,-0.73 0.15,-0.73 0,0 0.28,0.07 0.32,-0.43 0.03,-0.5 -0.4,-0.8 -0.51,0.07 0,0 -0.41,-0.22 -0.28,-0.99 0,0 -0.46,0.44 -1.11,0.44 -0.65,0 -0.09,-0.44 -0.09,-0.44 0,0 -0.46,0.43 -1.26,0.38z"/>
    </g>
    <g>
     <g>
      <polygon class="fil4" points="18.05,15.5 12.65,15.5 12.65,15.79 18.05,15.79 "/>
      <polygon class="fil3" points="16.38,15.5 18.05,15.5 18.05,15.79 16.38,15.79 "/>
      <path class="fil11" d="M17.13 15.51c0,0 -0.48,-0.71 -1.19,-0.7 -0.54,0.01 -0.56,0.35 -0.56,0.35 0,0 -0.36,-0.04 -0.37,0.35l2.12 0z"/>
     </g>
     <g>
      <path class="fil8" d="M10.42 15.47c0,0 0.03,-0.39 -0.15,-0.45 -0.18,-0.05 -0.31,0.1 -0.31,0.1 0,0 -0.13,-0.58 -0.62,-0.6 -0.49,-0.02 -1.38,0.48 -0.83,0.95l1.91 0z"/>
      <path class="fil3" d="M11.68 15.63c0,0.09 -0.07,0.16 -0.16,0.16l-2.95 0c-0.09,0 -0.16,-0.07 -0.16,-0.16 0,-0.09 0.07,-0.16 0.16,-0.16l2.95 0c0.09,0 0.16,0.07 0.16,0.16z"/>
      <path class="fil4" d="M10.81 15.63c0,0.09 -0.07,0.16 -0.16,0.16l-2.08 0c-0.09,0 -0.16,-0.07 -0.16,-0.16 0,-0.09 0.07,-0.16 0.16,-0.16l2.08 0c0.09,0 0.16,0.07 0.16,0.16z"/>
      <path class="fil12" d="M10.04 15.21l-0.52 -1.71c-0.02,-0.08 -0.1,-0.12 -0.18,-0.1 -0.08,0.02 -0.13,0.11 -0.1,0.2l0.63 1.66c0,0 0.11,0.06 0.18,-0.05z"/>
     </g>
    </g>
   </g>
   <g>
    <path class="fil1 str0" d="M6.36 10.95c0.06,0.35 -0.07,0.65 -0.28,0.69 -0.21,0.03 -0.43,-0.22 -0.48,-0.56 -0.06,-0.35 0.07,-0.65 0.28,-0.69 0.21,-0.03 0.43,0.22 0.48,0.56z"/>
    <path class="fil13" d="M9.55 13.99l-5.61 0c-0.25,0 -0.47,-0.15 -0.56,-0.38 -0.66,-1.64 -1.14,-3.23 -1.34,-4.75 -0.05,-0.36 0.23,-0.68 0.6,-0.68l5.68 0c0.3,0 0.55,0.22 0.59,0.51 0.21,1.41 0.63,2.91 1.2,4.5 0.14,0.39 -0.15,0.8 -0.57,0.8z"/>
    <path class="fil4" d="M9.32 13.99l-5.38 0c-0.25,0 -0.47,-0.15 -0.56,-0.38 -0.66,-1.64 -1.14,-3.23 -1.34,-4.75 -0.05,-0.36 0.23,-0.68 0.6,-0.68l5.46 0c0.3,0 0.55,0.22 0.59,0.51 0.21,1.41 0.63,2.91 1.2,4.5 0.14,0.39 -0.15,0.8 -0.56,0.8z"/>
    <g>
     <path class="fil13" d="M9.05 15.79l-2.15 0c-0.31,0 -0.59,-0.2 -0.69,-0.49l-0.64 -2.25c0.36,0 0.71,-0 1.05,-0 0.11,0 0.23,0 0.34,0l0.51 1.75c0.07,0.2 0.25,0.34 0.45,0.37l0.81 0.13c0.14,0.02 0.24,0.12 0.27,0.26l0.05 0.24z"/>
     <path class="fil14" d="M7.92 15.17l-0.18 -0.02c-0.26,-0.02 -0.48,-0.19 -0.58,-0.42l-0.55 -1.68c0.11,0 0.23,0 0.34,0l0.51 1.75c0.07,0.2 0.25,0.34 0.45,0.37z"/>
    </g>
    <path class="fil1" d="M6.31 11.02c0.08,0.33 -0.02,0.64 -0.23,0.69 -0.21,0.05 -0.44,-0.18 -0.52,-0.51 -0.08,-0.33 0.02,-0.64 0.23,-0.69 0.21,-0.05 0.44,0.18 0.52,0.51z"/>
   </g>
   <g>
    <polygon class="fil3" points="25.61,15.79 25.61,16.32 0,16.32 0,15.79 "/>
    <polygon class="fil2" points="25.61,15.79 25.61,16.32 19.93,16.32 19.93,15.79 "/>
   </g>
   <g>
    <polygon class="fil3" points="22.93,13.64 22.68,12.12 21.9,12.22 22.19,13.73 "/>
    <path class="fil2" d="M22.91 13.5l0.27 -1.88c0.01,-0.06 0.06,-0.1 0.12,-0.09 0.06,0.01 0.1,0.06 0.09,0.12l-0.3 1.95 0.11 0 0.4 -1.49c0.02,-0.06 0.07,-0.09 0.13,-0.08 0.06,0.01 0.09,0.07 0.08,0.13l-0.38 1.44 -0.38 0.18 -0.15 -0.27z"/>
    <path class="fil4" d="M23.7 13.5l0 1.94c0,0.17 -0.14,0.31 -0.31,0.31l-1.12 0c-0.17,0 -0.31,-0.14 -0.31,-0.31l0 -1.94 1.74 0z"/>
    <polygon class="fil13" points="23.7,13.5 23.7,13.96 21.96,13.96 21.96,13.5 "/>
   </g>
   <g>
    <path class="fil15" d="M24.42 4.04c0,1.37 -1.11,2.48 -2.48,2.48 -1.37,0 -2.48,-1.11 -2.48,-2.48 0,-1.37 1.11,-2.48 2.48,-2.48 1.37,0 2.48,1.11 2.48,2.48z"/>
    <path class="fil3" d="M24.24 3.86c0,1.29 -1.05,2.33 -2.33,2.33 -1.29,0 -2.33,-1.05 -2.33,-2.33 0,-1.29 1.05,-2.33 2.33,-2.33 1.29,0 2.33,1.05 2.33,2.33z"/>
    <path class="fil4" d="M23.62 3.86c0,0.95 -0.77,1.72 -1.72,1.72 -0.95,0 -1.72,-0.77 -1.72,-1.72 0,-0.95 0.77,-1.72 1.72,-1.72 0.95,0 1.72,0.77 1.72,1.72z"/>
    <path class="fil3" d="M22.87 3.78l-0.85 0 0 -1.14c0,-0.09 -0.07,-0.16 -0.16,-0.16 -0.09,0 -0.16,0.07 -0.16,0.16l0 1.44 0.11 0 0.21 0 0.85 0c0.08,0 0.15,-0.07 0.15,-0.15 0,-0.08 -0.07,-0.15 -0.15,-0.15z"/>
   </g>
  </g>
  <path class="fil16 str1" d="M13.73 7.22c0.06,-0.47 1.13,-0.61 1.37,-0.26"/>
  <path class="fil16 str1" d="M13.9 5.76c-0.02,0.2 -0.49,0.26 -0.59,0.11"/>
  <path class="fil16 str1" d="M14.88 5.59c-0.02,0.2 -0.49,0.26 -0.59,0.11"/>
 </g>
</svg>
