<?xml version="1.0" encoding="UTF-8"?>
<!DOCTYPE svg PUBLIC "-//W3C//DTD SVG 1.1//EN" "http://www.w3.org/Graphics/SVG/1.1/DTD/svg11.dtd">
<!-- Creator: CorelDRAW 2021 (64-Bit) -->
<svg xmlns="http://www.w3.org/2000/svg" xml:space="preserve" width="1.87627in" height="1.07314in" version="1.1" style="shape-rendering:geometricPrecision; text-rendering:geometricPrecision; image-rendering:optimizeQuality; fill-rule:evenodd; clip-rule:evenodd"
viewBox="0 0 34.24 19.59"
 xmlns:xlink="http://www.w3.org/1999/xlink"
 xmlns:xodm="http://www.corel.com/coreldraw/odm/2003">
 <defs>
  <style type="text/css">
   <![CDATA[
    .fil19 {fill:#F7B1B8}
    .fil18 {fill:#2B2F46}
    .fil3 {fill:#FEFEFE;fill-rule:nonzero}
    .fil12 {fill:#F7B1B8;fill-rule:nonzero}
    .fil15 {fill:#F494A7;fill-rule:nonzero}
    .fil2 {fill:#EEF2FA;fill-rule:nonzero}
    .fil0 {fill:#D7E3F3;fill-rule:nonzero}
    .fil1 {fill:#C5D5ED;fill-rule:nonzero}
    .fil11 {fill:#B9D0EC;fill-rule:nonzero}
    .fil9 {fill:#73A0D4;fill-rule:nonzero}
    .fil8 {fill:#658DC8;fill-rule:nonzero}
    .fil7 {fill:#3462AC;fill-rule:nonzero}
    .fil10 {fill:#30529B;fill-rule:nonzero}
    .fil24 {fill:#354A7B;fill-rule:nonzero}
    .fil17 {fill:#2B2F46;fill-rule:nonzero}
    .fil6 {fill:#3A4279;fill-rule:nonzero}
    .fil5 {fill:url(#id0)}
    .fil21 {fill:url(#id1)}
    .fil4 {fill:url(#id2)}
    .fil16 {fill:url(#id3)}
    .fil23 {fill:url(#id4)}
    .fil20 {fill:url(#id5)}
    .fil14 {fill:url(#id6)}
    .fil13 {fill:url(#id7)}
    .fil22 {fill:url(#id8)}
   ]]>
  </style>
  <linearGradient id="id0" gradientUnits="userSpaceOnUse" x1="14.85" y1="13.54" x2="17.29" y2="13.54">
   <stop offset="0" style="stop-opacity:1; stop-color:#FFCC30"/>
   <stop offset="1" style="stop-opacity:1; stop-color:#F47C42"/>
  </linearGradient>
  <linearGradient id="id1" gradientUnits="userSpaceOnUse" xlink:href="#id0" x1="23.73" y1="9.04" x2="26.49" y2="15.15">
  </linearGradient>
  <linearGradient id="id2" gradientUnits="userSpaceOnUse" xlink:href="#id0" x1="13.27" y1="13.54" x2="15.71" y2="13.54">
  </linearGradient>
  <linearGradient id="id3" gradientUnits="userSpaceOnUse" xlink:href="#id0" x1="5.64" y1="9.36" x2="5" y2="11.59">
  </linearGradient>
  <linearGradient id="id4" gradientUnits="userSpaceOnUse" xlink:href="#id0" x1="23.69" y1="8.95" x2="26.39" y2="14.61">
  </linearGradient>
  <linearGradient id="id5" gradientUnits="userSpaceOnUse" x1="21.52" y1="8.96" x2="25.37" y2="15.86">
   <stop offset="0" style="stop-opacity:1; stop-color:#F47C42"/>
   <stop offset="1" style="stop-opacity:1; stop-color:#FFCC30"/>
  </linearGradient>
  <linearGradient id="id6" gradientUnits="userSpaceOnUse" xlink:href="#id0" x1="7.42" y1="11.2" x2="5.24" y2="11.2">
  </linearGradient>
  <linearGradient id="id7" gradientUnits="userSpaceOnUse" xlink:href="#id0" x1="5.68" y1="10.01" x2="7.87" y2="11.23">
  </linearGradient>
  <linearGradient id="id8" gradientUnits="userSpaceOnUse" xlink:href="#id0" x1="23.45" y1="8.88" x2="25.91" y2="14.15">
  </linearGradient>
 </defs>
 <g id="Layer_x0020_1">
  <metadata id="CorelCorpID_0Corel-Layer"/>
  <path class="fil0" d="M0.93 19.59c0,0 -1.43,-1.88 -0.74,-4.14 0.68,-2.26 2.43,-3.98 1.86,-6.59 -0.67,-3.1 0.9,-5.71 3.68,-5.38 4.65,0.57 8,-2.95 9.7,-3.3 5.04,-1.04 5.97,2.77 8.69,3.14 5.88,0.8 7.69,3.37 7.48,8.28 -0.07,1.62 4.43,4.86 1.85,7.98l-32.51 0z"/>
  <path class="fil1" d="M22.33 5.61c-0.93,-0.7 -1.48,-1.34 -1.71,-1.62l0 -2.78c-0.08,-0.06 -0.16,-0.11 -0.23,-0.16l0 2.94c-0.22,0.28 -0.78,0.92 -1.71,1.62l1.35 0c0,0.25 0.2,0.46 0.46,0.46 0.25,0 0.46,-0.2 0.46,-0.46l1.38 0z"/>
  <path class="fil1" d="M31.18 8.43l-1.73 0 0 -1.73 1.24 0c-0.07,-0.13 -0.15,-0.25 -0.24,-0.37l-1.38 0 0 2.47 2.36 0c-0.07,-0.35 -0.15,-0.69 -0.26,-1.01l0 0.64z"/>
  <path class="fil1" d="M28.15 8.43l-1.73 0 0 -1.73 1.73 0 0 1.73zm-2.1 -2.1l0 2.47 2.47 0 0 -2.47 -2.47 0z"/>
  <path class="fil1" d="M31.18 11.46l-1.73 0 0 -1.73 1.73 0 0 1.73zm0.35 -2.1c0.01,0.07 0.02,0.14 0.02,0.21l0 2.26 -2.47 0 0 -2.47 2.45 0z"/>
  <path class="fil1" d="M28.15 11.46l-1.73 0 0 -1.73 1.73 0 0 1.73zm-2.1 -2.1l0 2.47 2.47 0 0 -2.47 -2.47 0z"/>
  <path class="fil1" d="M24.8 8.43l-1.73 0 0 -1.73 1.73 0 0 1.73zm-2.1 -2.1l0 2.47 2.47 0 0 -2.47 -2.47 0z"/>
  <path class="fil1" d="M21.77 8.43l-1.73 0 0 -1.73 1.73 0 0 1.73zm-2.1 -2.1l0 2.47 2.47 0 0 -2.47 -2.47 0z"/>
  <path class="fil1" d="M24.8 11.46l-1.73 0 0 -1.73 1.73 0 0 1.73zm-2.1 -2.1l0 2.47 2.47 0 0 -2.47 -2.47 0z"/>
  <path class="fil1" d="M21.77 11.46l-1.73 0 0 -1.73 1.73 0 0 1.73zm-2.1 -2.1l0 2.47 2.47 0 0 -2.47 -2.47 0z"/>
  <path class="fil1" d="M21.33 16.11c-0.12,-0.22 -0.95,-0.96 -1.47,-0.89 -0.43,0.06 -1.49,0.96 -1.84,1.28 0.13,-0.25 0.41,-0.84 0.53,-1.08 0.29,-0.57 0.61,-1.86 0.58,-1.84 -0.46,0.45 -0.86,0.97 -1.07,1.58 -0.05,0.14 -0.1,0.34 -0.14,0.56 -0.02,-0.22 -0.06,-0.43 -0.13,-0.64 -0.13,-0.41 -0.37,-0.74 -0.64,-1.06 -0.32,-0.39 -0.64,-0.77 -1.03,-1.09 -0.05,-0.04 -0.11,0.01 -0.08,0.06 0.42,0.88 0.85,1.76 1.07,2.71 0,0.02 0.01,0.03 0.01,0.04 -0.12,-0.29 -0.27,-0.58 -0.49,-0.78 -0.59,-0.54 -1.91,-0.65 -2.35,-0.53 -0.05,0.01 1.27,0.29 1.98,0.92 0.25,0.23 0.75,1.29 0.79,1.36 -0.11,-0.13 -0.82,-0.95 -1.18,-1.01 -1.43,-0.24 -2.37,0.72 -2.35,0.75 -0,0.03 1.17,-0.33 2.22,-0.18 0.83,0.12 1.15,0.74 1.63,1.1 0.05,0.18 0.14,0.35 0.28,0.5 0.03,0.04 0.08,0.01 0.09,-0.03 0.02,0 0.05,-0.01 0.06,-0.03 0.02,-0.06 0.04,-0.12 0.06,-0.18 0.96,-0.54 2.07,-0.74 3.16,-0.55 0.05,0.01 0.09,-0.05 0.05,-0.09 -0.43,-0.46 -1.08,-0.68 -1.7,-0.53 -0.45,0.11 -0.95,0.33 -1.35,0.63 0.08,-0.14 0.16,-0.27 0.27,-0.38 1.79,-1.72 3.08,-0.57 3.05,-0.62z"/>
  <polygon class="fil2" points="16.64,19.59 16.12,17.18 19.13,17.18 18.62,19.59 "/>
  <polygon class="fil3" points="16.64,19.59 16.12,17.18 16.61,17.18 17.13,19.59 "/>
  <path class="fil3" d="M22.56 16.53l11.55 0c-0.22,-0.83 -0.7,-1.63 -1.17,-2.35l-10.38 0 0 2.35z"/>
  <path class="fil0" d="M23.13 16.18l10.87 0c-0.2,-0.58 -0.51,-1.14 -0.84,-1.66l-10.03 0 0 1.66z"/>
  <polygon class="fil3" points="24.01,15.47 26.88,15.47 26.88,15.22 24.01,15.22 "/>
  <polygon class="fil3" points="28.05,15.47 30.92,15.47 30.92,15.22 28.05,15.22 "/>
  <path class="fil3" d="M32.1 15.47l1.6 0c-0.04,-0.08 -0.08,-0.17 -0.13,-0.25l-1.47 0 0 0.25z"/>
  <path class="fil3" d="M22.56 19.38l11.04 0c0.57,-0.79 0.72,-1.58 0.61,-2.35l-11.65 0 0 2.35z"/>
  <path class="fil0" d="M23.13 19.04l10.7 0c0.32,-0.56 0.44,-1.11 0.42,-1.66l-11.11 0 0 1.66z"/>
  <polygon class="fil3" points="24.01,18.32 26.88,18.32 26.88,18.08 24.01,18.08 "/>
  <polygon class="fil3" points="28.05,18.32 30.92,18.32 30.92,18.08 28.05,18.08 "/>
  <path class="fil3" d="M32.1 18.32l2.03 0c0.02,-0.08 0.04,-0.17 0.06,-0.25l-2.09 0 0 0.25z"/>
  <path class="fil1" d="M10.77 2.64l4.98 0 0 -0.5 -3.95 0c-0.33,0.17 -0.67,0.34 -1.04,0.5z"/>
  <polygon class="fil1" points="3.31,6.42 15.75,6.42 15.75,5.92 3.31,5.92 "/>
  <polygon class="fil1" points="3.31,10.2 15.75,10.2 15.75,9.7 3.31,9.7 "/>
  <path class="fil1" d="M15.36 10.2l0.5 0 0 -10.1c-0.14,0.02 -0.28,0.05 -0.43,0.08 -0.02,0 -0.05,0.01 -0.07,0.02l0 10.01z"/>
  <path class="fil1" d="M11.26 10.2l0.5 0 0 -8.03c-0.16,0.08 -0.33,0.17 -0.5,0.25l0 7.78z"/>
  <path class="fil1" d="M7.16 10.2l0.5 0 0 -6.73c-0.16,0.02 -0.33,0.03 -0.5,0.04l0 6.69z"/>
  <path class="fil1" d="M3.06 10.2l0.5 0 0 -6.25c-0.18,0.11 -0.35,0.24 -0.5,0.39l0 5.86z"/>
  <path class="fil1" d="M12.61 7.91c0.1,0.12 0.13,0.33 0.17,0.48 0.03,0.12 0.06,0.24 0.08,0.36l0.08 0c-0.06,-0.33 -0.11,-0.66 -0.2,-0.97 -0.06,-0.23 -0.21,-0.34 -0.43,-0.41 -0.19,-0.05 -0.38,-0.1 -0.56,-0.15 -0.03,-0.01 0.51,0.01 0.75,0.08 0.09,0.02 0.19,0.05 0.29,0.08 -0.12,-0.35 -0.27,-0.69 -0.44,-1.04 -0.02,-0.03 1.02,0.93 0.76,2.4l0.08 0 0.01 -0.01c0.11,-0.36 0.09,-0.74 0.23,-1.09 0.13,-0.32 0.39,-0.56 0.66,-0.76 0.02,-0.02 0.05,0.02 0.04,0.04 -0.13,0.31 -0.36,0.56 -0.5,0.87 -0.11,0.25 -0.21,0.51 -0.3,0.77 0.12,-0.13 0.26,-0.22 0.46,-0.24 0.32,-0.04 0.46,0.15 0.56,0.42 0.01,0.03 -0.04,0.05 -0.05,0.02 -0.1,-0.18 -0.35,-0.22 -0.53,-0.22 -0.19,-0 -0.34,0.09 -0.48,0.2l0.23 0 -0.17 1.06 -0.61 0 -0.17 -1.06 0.15 0c-0.05,-0.12 -0.09,-0.24 -0.15,-0.36 -0.07,-0.16 -0.15,-0.3 -0.35,-0.27 -0.13,0.02 -0.26,0.07 -0.39,0.1 -0.03,0.01 0.6,-0.51 0.78,-0.3z"/>
  <path class="fil4" d="M15.65 13.93l-1.99 0c-0.22,0 -0.39,-0.18 -0.39,-0.39 0,-0.22 0.18,-0.39 0.39,-0.39l1.99 0c0.03,0 0.06,0.03 0.06,0.06 0,0.03 0,0.63 0,0.66 0,0.03 -0.03,0.06 -0.06,0.06z"/>
  <path class="fil3" d="M17.23 13.87l-1.99 0c-0.18,0 -0.33,-0.15 -0.33,-0.33 0,-0.18 0.15,-0.33 0.33,-0.33l1.99 0 0 0.66z"/>
  <path class="fil5" d="M17.23 13.93l-1.99 0c-0.22,0 -0.39,-0.18 -0.39,-0.39 0,-0.22 0.18,-0.39 0.39,-0.39l1.99 0c0.03,0 0.06,0.03 0.06,0.06 0,0.03 -0.03,0.06 -0.06,0.06l-1.99 0c-0.15,0 -0.27,0.12 -0.27,0.27 0,0.15 0.12,0.27 0.27,0.27l1.99 0c0.03,0 0.06,0.03 0.06,0.06 0,0.03 -0.03,0.06 -0.06,0.06z"/>
  <path class="fil6" d="M16.19 13.15l-1.99 0c-0.22,0 -0.39,-0.18 -0.39,-0.39 0,-0.22 0.18,-0.39 0.39,-0.39l1.99 0c0.03,0 0.06,0.03 0.06,0.06 0,0.03 0,0.63 0,0.66 0,0.03 -0.03,0.06 -0.06,0.06z"/>
  <path class="fil3" d="M17.77 13.09l-1.99 0c-0.18,0 -0.33,-0.15 -0.33,-0.33 0,-0.18 0.15,-0.33 0.33,-0.33l1.99 0 0 0.66z"/>
  <path class="fil7" d="M17.77 13.15l-1.99 0c-0.22,0 -0.39,-0.18 -0.39,-0.39 0,-0.22 0.18,-0.39 0.39,-0.39l1.99 0c0.03,0 0.06,0.03 0.06,0.06 0,0.03 -0.03,0.06 -0.06,0.06l-1.99 0c-0.15,0 -0.27,0.12 -0.27,0.27 0,0.15 0.12,0.27 0.27,0.27l1.99 0c0.03,0 0.06,0.03 0.06,0.06 0,0.03 -0.03,0.06 -0.06,0.06z"/>
  <polygon class="fil8" points="12.71,19.59 12.42,19.59 13.23,14.3 13.51,14.3 "/>
  <polygon class="fil9" points="12.34,19.59 12.42,19.59 13.23,14.3 13.15,14.3 "/>
  <polygon class="fil8" points="15.14,19.59 14.85,19.59 15.66,14.3 15.94,14.3 "/>
  <polygon class="fil9" points="14.77,19.59 14.85,19.59 15.66,14.3 15.58,14.3 "/>
  <polygon class="fil10" points="20.7,19.59 20.41,19.59 19.61,14.3 19.9,14.3 "/>
  <polygon class="fil8" points="20.34,19.59 20.41,19.59 19.61,14.3 19.53,14.3 "/>
  <polygon class="fil10" points="23.57,19.59 23.28,19.59 22.48,14.3 22.76,14.3 "/>
  <polygon class="fil8" points="23.2,19.59 23.28,19.59 22.48,14.3 22.4,14.3 "/>
  <polygon class="fil8" points="12.8,14.37 22.96,14.37 22.96,13.93 12.8,13.93 "/>
  <polygon class="fil7" points="19.22,14.37 22.96,14.37 22.96,13.93 19.22,13.93 "/>
  <path class="fil10" d="M2.1 19.59l7.22 0c0.2,0 0.36,-0.16 0.36,-0.36l0 -13.8c0,-0.2 -0.16,-0.36 -0.36,-0.36l-7.22 0c-0.2,0 -0.36,0.16 -0.36,0.36l0 13.8c0,0.2 0.16,0.36 0.36,0.36z"/>
  <path class="fil7" d="M2.34 19.59l7.22 0c0.2,0 0.36,-0.16 0.36,-0.36l0 -13.8c0,-0.2 -0.16,-0.36 -0.36,-0.36l-7.22 0c-0.2,0 -0.36,0.16 -0.36,0.36l0 13.8c0,0.2 0.16,0.36 0.36,0.36z"/>
  <path class="fil6" d="M2.79 18.25l6.33 0c0.17,0 0.31,-0.14 0.31,-0.31l0 -11.98c0,-0.17 -0.14,-0.31 -0.31,-0.31l-6.33 0c-0.17,0 -0.31,0.14 -0.31,0.31l0 11.98c0,0.17 0.14,0.31 0.31,0.31z"/>
  <path class="fil3" d="M3.05 17.76l5.7 0c0.1,0 0.19,-0.08 0.19,-0.19l0 -10.54c0,-0.1 -0.08,-0.19 -0.19,-0.19l-5.7 0c-0.1,0 -0.19,0.08 -0.19,0.19l0 10.54c0,0.1 0.08,0.19 0.19,0.19z"/>
  <polygon class="fil8" points="5.55,16.23 8.35,16.23 8.35,16.16 5.55,16.16 "/>
  <polygon class="fil8" points="3.44,16.23 5.04,16.23 5.04,16.16 3.44,16.16 "/>
  <polygon class="fil8" points="7.47,16.93 8.35,16.93 8.35,16.86 7.47,16.86 "/>
  <polygon class="fil8" points="3.44,16.93 6.61,16.93 6.61,16.86 3.44,16.86 "/>
  <polygon class="fil8" points="3.44,13.64 6.25,13.64 6.25,13.57 3.44,13.57 "/>
  <polygon class="fil8" points="6.76,13.64 8.35,13.64 8.35,13.57 6.76,13.57 "/>
  <polygon class="fil8" points="3.44,12.94 4.33,12.94 4.33,12.88 3.44,12.88 "/>
  <polygon class="fil8" points="5.18,12.94 8.35,12.94 8.35,12.88 5.18,12.88 "/>
  <polygon class="fil8" points="5.55,14.64 8.35,14.64 8.35,14.57 5.55,14.57 "/>
  <polygon class="fil8" points="3.44,14.64 5.04,14.64 5.04,14.57 3.44,14.57 "/>
  <polygon class="fil8" points="7.47,15.34 8.35,15.34 8.35,15.27 7.47,15.27 "/>
  <polygon class="fil8" points="3.44,15.34 6.61,15.34 6.61,15.27 3.44,15.27 "/>
  <path class="fil1" d="M3.81 9.98c0,-1.16 0.94,-2.1 2.1,-2.1 1.16,0 2.1,0.94 2.1,2.1 0,1.16 -0.94,2.1 -2.1,2.1 -1.16,0 -2.1,-0.94 -2.1,-2.1z"/>
  <path class="fil0" d="M6.56 9.63c-0.01,-0.06 -0.02,-0.12 -0.04,-0.18 -0.07,-0.19 -0.22,-0.36 -0.42,-0.42 -0.02,-0 -0.04,-0.01 -0.05,-0.01l-0.01 -0 0 -0c0.18,-0.25 0.37,-0.57 0.22,-0.87 -0.05,-0.11 -0.14,-0.2 -0.25,-0.27 -0.03,-0 -0.06,-0 -0.09,-0 -0.81,0 -1.51,0.45 -1.86,1.12 0.02,0.04 0.05,0.07 0.08,0.1l-0.01 0.01c-0.22,0.15 -0.3,0.46 -0.2,0.71 0.11,0.3 0.43,0.47 0.74,0.51l0.01 -0 0 0.01c0.33,0.35 0.87,0.49 1.31,0.28 0.3,-0.14 0.53,-0.46 0.57,-0.79 0.01,-0.06 0.01,-0.13 0,-0.19z"/>
  <path class="fil11" d="M5.38 10.46c0.25,-0.34 0.38,-0.75 0.37,-1.17 0,-0.02 -0.02,-0.02 -0.03,-0 -0.02,0.15 -0.05,0.3 -0.09,0.45 -0.02,-0.04 -0.04,-0.08 -0.05,-0.12l-0 -0 -0 -0.01c-0,-0.02 -0.03,-0.02 -0.03,0 0,0.08 0.02,0.15 0.06,0.22 -0.05,0.16 -0.13,0.31 -0.24,0.43l-0.01 0.01c-0.05,-0.71 -0.14,-1.31 -0.14,-1.42 0,-0 -0.02,-0 -0.03,0l-0 0c-0,0.02 -0.03,0.32 -0.02,0.76 -0.11,-0.12 -0.21,-0.25 -0.28,-0.4 -0.08,-0.16 -0.14,-0.33 -0.21,-0.49 -0.01,-0.01 -0.02,-0.01 -0.03,-0 -0.01,0 -0.02,0.01 -0.01,0.02 0.09,0.15 0.12,0.32 0.18,0.49 -0.09,-0.03 -0.17,-0.08 -0.24,-0.15l-0.02 0 -0 0.02c0.08,0.08 0.16,0.17 0.28,0.2l0.01 0.02c0.08,0.17 0.18,0.32 0.31,0.45 0.01,0.52 0.03,1.4 0.05,2.22 0.08,0.03 0.17,0.05 0.25,0.07 -0.03,-0.57 -0.07,-1.16 -0.1,-1.57l0 -0z"/>
  <path class="fil12" d="M6.5 10.63c0.08,0.18 0.51,0.67 0.77,0.94 0.14,-0.12 0.27,-0.26 0.37,-0.41 -0.25,-0.35 -0.59,-0.78 -0.66,-0.84 -0.2,-0.16 -0.6,0.02 -0.48,0.31z"/>
  <path class="fil13" d="M6.7 11.03l0 -0 -0 0c-0.08,-0.11 -0.15,-0.23 -0.21,-0.33l0 -0 -0 0c-0.05,-0.1 -0.09,-0.19 -0.12,-0.24 -0,-0.01 -0.01,-0.02 -0.01,-0.03l0 -0.01 -0 0c-0,-0.01 -0.01,-0.03 -0.01,-0.04l0 -0.01 -0 0c-0,-0.02 -0,-0.04 -0,-0.06l0 0 0 -0.03c0.02,-0.09 0.08,-0.17 0.16,-0.21l0 0 0 -0c0.02,-0.01 0.04,-0.02 0.06,-0.02l0 0 0 -0c0.03,-0.01 0.05,-0.01 0.08,-0.01l0 0 0.02 0c0.03,0 0.06,0.01 0.09,0.02l0 0 0.01 0c0.01,0 0.01,0.01 0.02,0.01l0 0 0 0c0.01,0.01 0.02,0.01 0.03,0.02 0.03,0.03 0.2,0.15 0.37,0.31l0.01 0.01 0 0 0 0 0.01 0.01 0 0 0 0 0.01 0.01 0 0 0 0 0.01 0.01 0 0 0 0c0.07,0.07 0.14,0.15 0.19,0.23 -0.01,0.02 -0.02,0.05 -0.04,0.07l-0 0 0 0c-0.02,0.03 -0.04,0.05 -0.06,0.08l-0 0 0 0 -0.01 0.01 -0 0 0 0c-0.07,0.08 -0.15,0.15 -0.23,0.2l-0 0 0 0c-0.05,0.04 -0.1,0.07 -0.14,0.09l-0 0 0 0c-0.05,0.03 -0.09,0.05 -0.11,0.06 -0.05,-0.05 -0.09,-0.11 -0.14,-0.17z"/>
  <path class="fil14" d="M5.71 12.07l0 -0 -0.01 0c-0.03,-0 -0.06,-0.01 -0.09,-0.01l0 -0 -0.01 0c-0.02,-0 -0.04,-0.01 -0.06,-0.01l0 -0 -0.01 0c-0.02,-0 -0.04,-0.01 -0.06,-0.01l0 -0 -0 0c-0.02,-0 -0.03,-0.01 -0.05,-0.01l0 -0 -0.01 0c-0.01,-0 -0.03,-0.01 -0.04,-0.01l0 -0 -0.01 0 -0.01 -0c-0.02,-0.09 -0.03,-0.19 -0.05,-0.3l0 -0 -0 0c-0.01,-0.05 -0.02,-0.1 -0.02,-0.16l0 -0 -0 0c-0.01,-0.1 -0.02,-0.2 -0.03,-0.3l0 -0 -0 0c-0.02,-0.24 -0.03,-0.48 -0.01,-0.69l0 0 0 -0c0,-0.03 0.01,-0.06 0.01,-0.09l0 0 0 -0.01c0.01,-0.04 0.01,-0.08 0.02,-0.12l0 0 0 -0c0,-0.01 0.01,-0.03 0.01,-0.04l0 0 0 -0c0,-0.01 0.01,-0.02 0.01,-0.03l0 0 0 -0c0,-0.01 0.01,-0.02 0.01,-0.03l0 0 0 -0c0,-0.01 0.01,-0.01 0.01,-0.02l0 0 0 -0.01c0.01,-0.01 0.01,-0.03 0.02,-0.04 0,-0.01 0.01,-0.02 0.02,-0.03l0 0 0 -0c0,-0 0.01,-0.01 0.01,-0.01l0 0 0 -0c0,-0 0.01,-0.01 0.01,-0.01l0 0 0 -0c0.01,-0.01 0.03,-0.02 0.04,-0.03l0 0 0 -0c0.03,-0.02 0.07,-0.03 0.1,-0.04l0 0 0 -0c0.03,-0.01 0.06,-0.02 0.09,-0.02l0 0 0 -0c0.05,-0.01 0.11,-0.02 0.16,-0.02l0 0 0 -0c0.07,-0.01 0.13,-0.01 0.15,-0.01 0.07,-0.01 0.56,0.04 0.56,0.04 0,0 0.11,-0.01 0.21,0.03l0 0 0 0c0.04,0.01 0.08,0.04 0.11,0.07 0.01,0.01 0.03,0.03 0.04,0.05l0 0 0 0c0.01,0.01 0.01,0.02 0.02,0.03l0 0 0 0c0.02,0.03 0.04,0.06 0.06,0.1l0 0 0 0c0.02,0.04 0.04,0.08 0.06,0.13l0 0 0 0c0.02,0.06 0.05,0.12 0.07,0.18l0 0 0 0c0.03,0.08 0.06,0.17 0.08,0.27l0 0 0 0c0,0.01 0.01,0.03 0.01,0.04l0 0 0 0c0.02,0.07 0.03,0.14 0.05,0.21l0 0 0 0c0,0.02 0.01,0.04 0.01,0.07 0.02,0.13 0.04,0.25 0.06,0.36l-0.02 0.02 -0 0 0 0c-0.02,0.02 -0.04,0.03 -0.06,0.05l-0 0 0 0c-0.01,0.01 -0.03,0.02 -0.04,0.03l-0 0 0 0c-0.02,0.01 -0.03,0.02 -0.05,0.03l-0 0 0 0c-0.02,0.02 -0.05,0.03 -0.07,0.05l-0 0 0 0c-0.02,0.01 -0.04,0.02 -0.05,0.03l-0 0 0 0c-0.02,0.01 -0.04,0.02 -0.06,0.03l-0 0 0 0c-0.03,0.02 -0.06,0.03 -0.09,0.05l-0 0 0 0 -0.02 0.01 -0 0 0 0 -0.02 0.01 -0 0 0 0 -0.02 0.01 -0 0 0 0c-0.04,0.02 -0.07,0.03 -0.11,0.05l-0 0 0 0c-0.06,0.02 -0.11,0.04 -0.17,0.06l-0 0 0 0c-0.01,0 -0.03,0.01 -0.04,0.01l-0.01 0 0 0c-0.01,0 -0.03,0.01 -0.04,0.01l-0.01 0 0 0c-0.01,0 -0.03,0.01 -0.04,0.01l-0 0 0 0c-0.02,0 -0.04,0.01 -0.06,0.01l-0.01 0 0 0c-0.02,0 -0.04,0.01 -0.06,0.01l-0.01 0 0 0c-0.03,0 -0.06,0.01 -0.09,0.01l-0.01 0 0 0c-0.07,0.01 -0.13,0.01 -0.2,0.01 -0.07,0 -0.14,-0 -0.2,-0.01z"/>
  <path class="fil12" d="M6.45 9.76c0,0 -0.03,0.2 0.03,0.22 0.06,0.03 0.14,0.03 0.14,0.03 0,0 -0.34,0.49 -0.72,-0.05 0,0 0.12,0 0.15,-0.04 0.04,-0.05 0.06,-0.28 0.04,-0.43l0.36 0.26z"/>
  <path class="fil15" d="M6.04 9.93c0.04,-0.05 0.06,-0.28 0.04,-0.43l0.21 0.15c-0.04,0.04 -0.1,0.14 -0.1,0.14 -0.05,0.1 -0.08,0.24 0.02,0.32 0.08,0.06 0.19,0.06 0.29,0.03 -0.13,0.1 -0.36,0.17 -0.6,-0.17 0,0 0.12,0 0.15,-0.04z"/>
  <path class="fil12" d="M5.15 10.33c-0.17,0.14 -0.57,0.85 -0.73,1.13 0.11,0.11 0.24,0.21 0.38,0.3 0.28,-0.31 0.75,-0.97 0.79,-1.07 0.09,-0.24 -0.2,-0.57 -0.44,-0.36z"/>
  <path class="fil16" d="M5.4 11.08l0 -0 -0 0c-0.01,-0 -0.03,-0.01 -0.04,-0.01l0 -0 -0 0c-0.03,-0.01 -0.07,-0.02 -0.1,-0.03l0 -0 -0 0c-0.02,-0.01 -0.04,-0.01 -0.05,-0.02l0 -0 -0 0 -0.02 -0.01 0 -0 -0 0c-0.21,-0.1 -0.4,-0.25 -0.41,-0.28 0.03,-0.05 0.07,-0.09 0.1,-0.13l0 0 0 -0c0.03,-0.04 0.06,-0.07 0.09,-0.1l0 0 0 -0c0.05,-0.05 0.09,-0.09 0.14,-0.14l0 0 0 -0c0.12,-0.11 0.23,-0.2 0.28,-0.24 0.01,-0.01 0.02,-0.01 0.02,-0.02l0 0 0 -0c0.01,-0 0.01,-0.01 0.02,-0.01l0.01 0 0 -0c0.01,-0 0.01,-0.01 0.02,-0.01l0.01 0 0 -0c0.03,-0.01 0.06,-0.02 0.09,-0.02l0.03 0c0.02,0 0.03,0 0.05,0.01l0 0 0.01 0c0.02,0.01 0.04,0.01 0.05,0.02l0 0 0 0c0.01,0.01 0.02,0.01 0.03,0.02l0 0 0 0c0.03,0.02 0.05,0.04 0.07,0.07l0 0 0 0c0.01,0.01 0.01,0.02 0.02,0.03l0 0 0 0c0,0.01 0.01,0.01 0.01,0.02l0 0 0 0c0.01,0.02 0.02,0.05 0.02,0.07l0 0.03 0 0c0,0.02 -0,0.03 -0,0.05l-0 0 0 0c-0,0.01 -0,0.02 -0.01,0.03l-0 0 0 0.01c-0,0.01 -0.01,0.02 -0.01,0.02 -0.01,0.02 -0.03,0.07 -0.07,0.14l-0 0 0 0c-0.04,0.06 -0.08,0.14 -0.14,0.23l-0 0 0 0c-0.06,0.09 -0.13,0.18 -0.21,0.27l-0.01 -0z"/>
  <path class="fil17" d="M5.91 9.6c0.02,0.03 0.06,0.05 0.1,0.04 0.04,-0.02 0.02,-0.07 0,-0.1 -0.02,-0.04 -0.01,-0.43 -0.01,-0.43 -0.01,-0.01 -0.13,0.09 -0.13,0.1 -0.01,0.04 -0.09,0.21 0.04,0.39z"/>
  <path class="fil12" d="M6.62 8.97l0 0.6c0,0.16 -0.14,0.29 -0.32,0.29 -0.18,0 -0.32,-0.13 -0.32,-0.29l0 -0.01c0,0 -0.16,0.04 -0.16,-0.14 0,-0.18 0.1,-0.15 0.1,-0.15l0 -0.29 0.7 0z"/>
  <path class="fil15" d="M5.92 9.26l0 -0.36 0.25 0 -0 0.13 0 0.62c0,0.11 0.1,0.2 0.21,0.19 0.03,-0 0.06,-0.01 0.09,-0.03 -0.05,0.03 -0.11,0.05 -0.17,0.05 -0.18,0 -0.32,-0.13 -0.32,-0.29l0 -0.01c0,0 -0.16,0.04 -0.16,-0.14 0,-0.18 0.1,-0.15 0.1,-0.15z"/>
  <path class="fil17" d="M5.92 9.26c-0.01,0.04 0.06,0.1 0.09,0.1 0.07,0 0.1,-0.26 0.13,-0.38 0.07,0.03 0.23,0.05 0.29,0 0.06,0.05 0.15,0.04 0.23,0.02 0.12,-0.03 0.17,-0.16 0.15,-0.27 -0.01,-0.05 -0.06,-0.15 -0.2,-0.15 -0.07,-0.09 -0.2,-0.05 -0.24,-0.02 -0.09,-0.05 -0.38,-0.06 -0.47,0.12l-0 0c-0.17,0.05 -0.17,0.55 0.01,0.58z"/>
  <path class="fil17" d="M23.54 3.09c-0,0.06 0.03,0.13 0.1,0.15 0.49,0.16 0.82,0.33 0.86,0.91 0.02,0.25 -0.03,0.49 -0.05,0.74 -0.04,0.37 -0.04,0.75 0.17,1.07 0.32,0.48 1.12,0.64 1.62,0.39 0.15,-0.07 0.06,-0.26 -0.07,-0.28 -0.96,-0.09 -0.4,-1.64 -0.36,-2.19 0.03,-0.39 -0.07,-0.83 -0.34,-1.14 -0.46,-0.53 -1.53,-0.32 -1.91,0.2 -0.04,0.05 -0.03,0.09 -0.01,0.13z"/>
  <path class="fil18" d="M25.66 17.8c0,0 0.41,0.48 0.25,0.65 -0.16,0.17 -0.31,0.56 -0.33,0.75 0,0 -0.44,0.28 -0.83,0.37 -0.04,0.01 -0.07,-0.02 -0.07,-0.06 0.03,-0.2 0.32,-0.5 0.39,-0.73 0.09,-0.26 0.1,-0.69 0.28,-0.87 0.18,-0.18 0.3,-0.11 0.3,-0.11z"/>
  <path class="fil18" d="M26.11 19c0,0 -0.13,-0.59 -0.18,-0.67 -0.05,-0.08 -0.3,0.12 -0.3,0.12l0.33 0.61c0,0 0.07,0.02 0.14,-0.06z"/>
  <path class="fil19" d="M25.17 18.02c-0.01,-0.09 -0.79,-2.4 -0.79,-2.4l0.89 -0.15 0.45 2.38c0,0 -0.38,1.13 -0.67,1.01 0.15,-0.46 0.16,-0.64 0.13,-0.85z"/>
  <path class="fil18" d="M22.82 18.27c0,0 0.2,0.59 -0.01,0.69 -0.21,0.1 -0.5,0.4 -0.58,0.57 0,0 -0.51,0.09 -0.91,0.03 -0.04,-0.01 -0.06,-0.05 -0.04,-0.08 0.1,-0.17 0.48,-0.34 0.64,-0.53 0.18,-0.21 0.35,-0.6 0.59,-0.7 0.24,-0.1 0.32,0.01 0.32,0.01z"/>
  <path class="fil18" d="M22.78 19.55c0,0 0.1,-0.59 0.08,-0.69 -0.01,-0.09 -0.32,0 -0.32,0l0.08 0.69c0,0 0.06,0.05 0.16,0z"/>
  <path class="fil19" d="M22.27 18.29c0.02,-0.08 -0.04,-2.81 -0.04,-2.81l0.96 0.23 -0.35 2.63c0,0 -0.77,0.91 -1,0.69 0.31,-0.37 0.39,-0.53 0.43,-0.74z"/>
  <path class="fil20" d="M21.74 15.87c0.84,0.57 2.57,0.35 3.54,0.16 0.43,-0.08 0.71,-0.16 0.71,-0.16 -0.44,-0.75 -0.53,-3.02 -0.43,-4.37 0.1,-1.35 -0.35,-2.29 -0.35,-2.29 0,0 -0.4,-0.05 -0.92,-0.08 -0.8,-0.04 -1.86,-0.05 -2.09,0.24 -0.38,0.47 -0.35,3.57 -0.31,4.26 0.04,0.69 -0.15,2.24 -0.15,2.24z"/>
  <path class="fil21" d="M25.04 11.49c-0.5,1.59 -0.36,3.19 0.5,4.49 0.22,-0.03 0.45,-0.11 0.45,-0.11 -0.44,-0.75 -0.53,-3.02 -0.43,-4.37 0.1,-1.35 -0.35,-2.29 -0.35,-2.29 0,0 -0.4,-0.05 -0.92,-0.08 0.24,0.59 0.98,1.63 0.75,2.36z"/>
  <path class="fil22" d="M21.44 9.09c-0.32,-0.27 -1.14,-1.63 -1.3,-1.88 -0.19,-0.31 0.14,-0.8 0.37,-0.52 0.22,0.28 1.58,1.76 1.67,1.96 0.16,0.36 -0.33,0.78 -0.74,0.44z"/>
  <path class="fil23" d="M23.33 6.36c-0.03,0.48 -0.8,2.23 -0.94,2.56 -0.17,0.4 -0.92,0.37 -0.94,-0.03 -0.01,-0.35 0.7,-2.55 0.83,-2.78 0.25,-0.41 1.08,-0.35 1.05,0.25z"/>
  <path class="fil7" d="M23.09 7.57c0.25,-0.6 0.33,-1.34 0.35,-1.6 0.04,-0.62 -0.58,-0.8 -1,-0.38 -0.09,0.09 -0.54,0.8 -0.71,1.42 0.36,0.4 1.26,0.56 1.36,0.55z"/>
  <path class="fil10" d="M22.82 5.37c-0.14,0.1 -0.71,0.48 -0.74,1.32 -0.02,0.4 0.29,1.07 0.25,1.56 -0.09,1.08 -0.44,1.48 -0.44,1.48 0,0 1.54,0.34 3.57,-0.13 -0.87,-2.17 -0.26,-2.58 -0.48,-3.74 -0.09,-0.49 -0.72,-0.56 -0.84,-0.57 -0.12,-0.01 -0.82,-0.05 -1.32,0.08z"/>
  <path class="fil12" d="M23.16 4.82c0,0 0.03,0.44 -0.09,0.48 -0.1,0.03 -0.25,0.07 -0.25,0.07 0,0 0.61,0.92 1.34,-0.09 0,0 -0.22,0 -0.28,-0.08 -0.07,-0.09 -0.11,-0.52 -0.08,-0.81l-0.64 0.43z"/>
  <path class="fil15" d="M23.88 5.2c-0.07,-0.09 -0.11,-0.52 -0.08,-0.81l-0.39 0.28c0.08,0.07 0.19,0.26 0.19,0.27 0.1,0.19 0.16,0.46 -0.04,0.6 -0.15,0.11 -0.35,0.11 -0.54,0.05 0.25,0.19 0.67,0.32 1.13,-0.32 0,0 -0.22,0 -0.28,-0.08z"/>
  <path class="fil12" d="M25.24 5.86c0.37,0.26 1.43,1.81 1.63,2.1 0.25,0.35 0.01,0.84 -0.33,0.72 -0.29,-0.1 -1.8,-1.82 -1.93,-2.05 -0.22,-0.42 0.17,-1.1 0.63,-0.78z"/>
  <path class="fil12" d="M26.55 8.79c-0.39,0.09 -1.83,-0.07 -2.1,-0.1 -0.33,-0.03 -0.42,-0.56 -0.08,-0.57 0.33,-0.01 2.22,-0.18 2.4,-0.13 0.34,0.08 0.27,0.69 -0.23,0.8z"/>
  <path class="fil7" d="M26.06 6.49c-0.39,-0.49 -0.94,-0.9 -1.15,-1.04 -0.48,-0.32 -0.92,0.3 -0.69,0.72 0.06,0.1 0.38,0.68 0.81,1.11 0.46,-0.14 0.99,-0.71 1.02,-0.8z"/>
  <path class="fil17" d="M24.2 3.85c-0.01,-0.03 -0.22,-0.21 -0.24,-0.2 -0,0 0.01,0.74 -0.02,0.81 -0.03,0.05 -0.06,0.16 0.01,0.19 0.07,0.03 0.15,-0.01 0.19,-0.07 0.23,-0.35 0.09,-0.66 0.07,-0.74z"/>
  <path class="fil12" d="M22.8 3.17l0 1.35c0,0.3 0.27,0.55 0.6,0.55 0.33,0 0.6,-0.25 0.6,-0.55l0 -0.03c0,0 0.31,0.07 0.31,-0.27 0,-0.34 -0.19,-0.29 -0.19,-0.29l0 -0.76 -1.31 0z"/>
  <path class="fil15" d="M24.11 3.94l0 -0.68 -0.47 0 0 0.25 0 1.16c0,0.2 -0.2,0.37 -0.4,0.36 -0.06,-0 -0.12,-0.02 -0.17,-0.05 0.09,0.06 0.21,0.09 0.33,0.09 0.33,0 0.6,-0.25 0.6,-0.55l0 -0.03c0,0 0.31,0.07 0.31,-0.27 0,-0.34 -0.19,-0.29 -0.19,-0.29z"/>
  <path class="fil17" d="M22.5 3.58c-0.14,-0.19 0.02,-0.46 0.3,-0.72 0.25,-0.23 0.99,-0.29 1.18,0.18 0,0 0.23,0.02 0.29,0.19 0.06,0.17 -0.04,0.71 -0.25,0.78 -0.1,0.03 -0.17,-0.03 -0.19,-0.22 -0.01,-0.13 0.01,-0.36 0.01,-0.36 0,0 -1.01,0.53 -1.34,0.15z"/>
  <path class="fil24" d="M22.22 7.49c0,0 0.61,0.36 1.68,0.07 0,0 -1.07,0.45 -1.58,0.41l-0.1 -0.48z"/>
  <path class="fil12" d="M23.25 8.49c0.13,-0.09 0.26,-0.18 0.15,-0.12 -0.13,0.08 -0.27,-0.04 -0.14,-0.12 0.16,-0.1 0.34,-0.22 0.53,-0.27 0.2,-0.05 0.42,0.12 0.61,0.14 0.08,0.01 0.17,0.52 0.11,0.54 -0.2,0.09 -0.42,-0.06 -0.45,-0.04 -0.08,0.06 -0.12,0.1 -0.19,0.16 -0.09,0.08 -0.27,0.01 -0.18,-0.07 0.06,-0.05 0.03,-0.07 -0.05,-0 -0.11,0.09 -0.29,0 -0.18,-0.09 0.05,-0.04 0.05,-0.06 -0.01,-0.02 -0.13,0.09 -0.32,-0.02 -0.19,-0.11z"/>
  <path class="fil12" d="M20.46 6.55c-0.02,-0.02 -0.13,-0.07 -0.23,-0.09 -0.04,-0.07 -0.06,-0.14 -0.06,-0.23 -0,-0.11 0,-0.19 -0.07,-0.28 -0.01,-0.01 -0.03,-0.02 -0.04,-0.01 -0.04,0.02 -0.04,0.06 -0.04,0.1 -0,0.03 -0.01,0.05 -0.01,0.08 -0,-0.06 -0.02,-0.12 -0.07,-0.18 -0.01,-0.01 -0.03,-0.02 -0.04,-0.01 -0.04,0.02 -0.04,0.06 -0.04,0.1l-0 0.02 -0.01 -0.01c-0.01,-0.01 -0.03,-0.02 -0.04,-0.01 -0.04,0.02 -0.04,0.06 -0.04,0.1 -0.01,0.05 -0.02,0.1 -0.02,0.16 -0.01,-0.02 -0.03,-0.03 -0.04,-0.04 -0.01,-0.01 -0.03,-0.01 -0.05,0 -0.04,0.03 -0.02,0.07 -0.02,0.11 0.01,0.1 0.01,0.22 0.05,0.32 0.05,0.17 0.25,0.35 0.41,0.39l0 -0c0.04,0.02 0.08,0.04 0.09,0.05 0.03,0.04 0.33,0.11 0.36,-0.11 0.01,-0.17 0.05,-0.34 -0.08,-0.46z"/>
  <polygon class="fil17" points="19.67,6.67 20.3,6.56 20.12,5.34 19.5,5.45 "/>
  <path class="fil17" d="M19.5 5.39l0.36 -0.06 0.01 0.06 -0.18 0.03 -0.13 0.02c-0.04,0.01 -0.07,0.06 -0.07,0.11l0.14 0.98c0.01,0.05 0.05,0.09 0.09,0.08l0.31 -0.05 0.02 0.12 -0.36 0.06c-0.04,0.01 -0.09,-0.03 -0.09,-0.08l-0.17 -1.16c-0.01,-0.05 0.02,-0.1 0.07,-0.11z"/>
  <path class="fil7" d="M20.2 6.53l-0.43 0.07c-0.04,0.01 -0.09,-0.03 -0.09,-0.08l-0.14 -0.98c-0.01,-0.05 0.02,-0.1 0.07,-0.11l0.13 -0.02 0.01 0.02c0,0.01 0.02,0.02 0.03,0.02l0.11 -0.02c0.01,-0 0.02,-0.01 0.02,-0.03l0 -0.02 0.13 -0.02c0.04,-0.01 0.09,0.03 0.09,0.08l0.14 0.98c0.01,0.05 -0.02,0.1 -0.07,0.11zm-0.72 -1.04l0.17 1.16c0.01,0.05 0.05,0.08 0.09,0.08l0.01 -0 0.53 -0.09c0.04,-0.01 0.07,-0.06 0.07,-0.11l-0.17 -1.16c-0.01,-0.05 -0.05,-0.09 -0.09,-0.08l-0.53 0.09 -0.01 0c-0.04,0.01 -0.07,0.06 -0.06,0.11z"/>
  <path class="fil12" d="M20.23 6.17c0.01,-0.02 0.04,-0.03 0.06,-0.01 0.08,0.08 0.2,0.16 0.24,0.27 0.04,0.1 0.03,0.23 0.02,0.34 -0,0.03 -0.03,0.03 -0.05,0.03 -0.01,0.01 -0.03,0.01 -0.04,0 -0.12,-0.07 -0.07,-0.19 -0.11,-0.31 -0.04,-0.11 -0.19,-0.18 -0.12,-0.32z"/>
  <path class="fil3" d="M22.85 5.35c0,0 0.2,0.33 0.51,0.37 0,0 0.27,0.01 0.78,-0.42l0.14 0.02 -0.61 0.89 -0.31 -0.4 -0.27 0.37c0,0 -0.32,-0.53 -0.33,-0.76l0.08 -0.06z"/>
 </g>
</svg>
