<?xml version="1.0" encoding="UTF-8"?>
<!DOCTYPE svg PUBLIC "-//W3C//DTD SVG 1.1//EN" "http://www.w3.org/Graphics/SVG/1.1/DTD/svg11.dtd">
<!-- Creator: CorelDRAW 2021 (64-Bit) -->
<svg xmlns="http://www.w3.org/2000/svg" xml:space="preserve" width="3.31524in" height="2.26869in" version="1.1" style="shape-rendering:geometricPrecision; text-rendering:geometricPrecision; image-rendering:optimizeQuality; fill-rule:evenodd; clip-rule:evenodd"
viewBox="0 0 179.46 122.81"
 xmlns:xlink="http://www.w3.org/1999/xlink"
 xmlns:xodm="http://www.corel.com/coreldraw/odm/2003">
 <defs>
  <style type="text/css">
   <![CDATA[
    .fil1 {fill:#C5AB2E}
    .fil0 {fill:#222C61}
    .fil2 {fill:#FEFEFE;fill-rule:nonzero}
   ]]>
  </style>
 </defs>
 <g id="Layer_x0020_1">
  <metadata id="CorelCorpID_0Corel-Layer"/>
  <path class="fil0" d="M48.82 80.89l0 -70.03c0,-1.45 0.4,-2.48 0.97,-3.41 2.17,-3.47 6.59,-2.49 10.81,-2.49 1.96,0 13.56,0.11 15.23,-0.05l6.65 0.05c0.04,0 0.1,-0.06 0.12,-0.02 0.02,0.04 0.1,-0.01 0.12,-0.02l40.5 0.03c3.21,0 3.59,-0.1 5.51,1.41 0.29,0.23 0.14,0.14 0.44,0.3 0.53,0.29 0.19,0.12 0.44,0.66 0.33,0.7 1.01,1.25 1.01,3.52l0 69.87c0,3.43 -2.73,5.89 -5.22,5.89l-70.88 0c-1.02,0 -1.69,-0.17 -2.36,-0.5 -0.55,-0.27 -1.29,-0.72 -1.72,-1.15 -0.96,-0.96 -1.64,-2.64 -1.64,-4.08zm80.64 -74.08l-0.05 0.05c0,-0 0.07,-0.03 0.05,-0.05zm-88.15 91.08c-0.36,0.28 0.36,0.05 -0.57,0.32l-1.01 0.29 -0.41 -0.07c-2.14,1.23 -16.54,4.73 -18.47,4.24 0.08,-1.07 -0.11,-0.34 1.32,-1.64l6.09 -4.85c0.51,-0.43 0.72,-0.58 1.11,-0.91 1.46,-1.2 2.83,-2.42 4.34,-3.57l4.17 -3.58c-2.45,-0.95 -31.25,8.43 -34.2,9.41 -0.78,0.26 -3.33,1.05 -3.68,1.53 0.73,0.17 6.39,4.25 7.78,5.19 0.6,0.41 2.15,1.41 2.49,1.88 -0.2,0.86 -4.3,10.7 -4.71,12.46l4.25 -1.48c3.13,-1.03 10.43,-3.59 13.26,-4.25 0.77,3.28 1.42,6.64 2.19,9.93 0.68,-0.02 1.12,-0.22 1.78,-0.41 8.08,-2.33 20.34,-4.98 28.55,-6.13 3.56,-0.5 8.53,-1.26 12.1,-1.53 4.15,-0.32 9.04,-0.85 13.12,-0.85 0.97,-0 1.15,-0.15 2.01,-0.18l20.04 0.34c2.69,-0.01 18.27,1.64 21.03,2.21l7.77 1.32c6.73,1.34 14.05,2.87 20.63,4.79 0.63,0.18 1.25,0.43 1.91,0.45 0.77,-3.3 1.42,-6.65 2.19,-9.93 1.45,0.34 3.05,0.9 4.4,1.33l6.64 2.12c1.67,0.55 5.2,1.98 6.48,2.28l-2.31 -6.28c-0.43,-1.09 -0.81,-2.09 -1.23,-3.15 -0.27,-0.68 -1.12,-2.52 -1.18,-3.2 1.55,-1.04 9.46,-6.71 10.27,-6.9 -0.66,-0.9 -16.54,-5.79 -18.42,-6.33l-19.8 -4.95c4.48,4.24 9.16,8.28 14.04,12.05l2.7 2.35c0.32,0.32 0.03,-0.02 0.27,0.29 -4.03,-0.91 -17.54,-4.82 -22.9,-5.27 0,-23.96 0,-47.93 0,-71.89 0,-4.17 0.45,-14.6 -0.4,-17.61 -1.31,-4.61 -5.31,-7.5 -10.37,-7.65l-12.96 0.09c-4,-0.31 -17.72,-0.08 -22.39,-0.08l-11.3 0.05c-0.16,0 -0.54,-0.03 -0.98,-0.05l-13.48 -0c-0.76,-0 -1.43,0.1 -1.96,0.1 -2.06,-0.02 -3.89,-0.17 -6.46,-0.1 -5.51,0.16 -9.18,3.12 -10.5,7.52 -0.93,3.11 -0.44,13.29 -0.44,17.57 0,24.02 0,48.04 0,72.05 -0.41,0.03 -0.95,0.14 -1.45,0.24 -0.08,0.02 -0.56,0.12 -0.69,0.16 -0.02,0 -0.37,0.12 -0.37,0.12 -0.35,0.14 -0.14,0.03 -0.29,0.16zm-3.1 -10.1l0 0 -0 0z"/>
  <path class="fil1" d="M39.32 98.43c-0.68,-0.36 -0.43,-9.5 -0.43,-10.8 -0.28,0.07 -0.39,0.08 -0.67,0.17l0 0c-0.59,0 -0.21,-0.1 -0.34,0.34l-4.17 3.58c-1.51,1.16 -2.88,2.37 -4.34,3.57 -0.39,0.33 -0.6,0.48 -1.11,0.91l-6.09 4.85c-1.43,1.3 -1.24,0.57 -1.32,1.64 2.93,0.74 17.44,-3.65 18.47,-4.24z"/>
  <path class="fil1" d="M141.25 87.79l-2.19 9.99 19.2 4.7c-5.8,-4.89 -11.5,-9.61 -17.01,-14.69z"/>
  <path class="fil2" d="M56.49 107.82l2.02 -0.36c0.18,0.67 0.47,1.16 0.87,1.45 0.4,0.29 0.92,0.41 1.56,0.36 0.68,-0.05 1.17,-0.24 1.5,-0.55 0.32,-0.31 0.46,-0.66 0.43,-1.05 -0.02,-0.25 -0.11,-0.45 -0.27,-0.61 -0.16,-0.16 -0.42,-0.29 -0.79,-0.39 -0.25,-0.07 -0.82,-0.17 -1.72,-0.32 -1.15,-0.19 -1.96,-0.47 -2.45,-0.84 -0.68,-0.52 -1.06,-1.19 -1.12,-2.02 -0.04,-0.53 0.07,-1.03 0.33,-1.52 0.26,-0.48 0.67,-0.87 1.21,-1.15 0.55,-0.29 1.22,-0.46 2.02,-0.52 1.3,-0.1 2.31,0.11 3.01,0.63 0.7,0.52 1.11,1.25 1.22,2.21l-2.09 0.26c-0.13,-0.53 -0.35,-0.89 -0.67,-1.11 -0.31,-0.21 -0.77,-0.29 -1.36,-0.25 -0.61,0.05 -1.08,0.21 -1.4,0.49 -0.21,0.18 -0.3,0.4 -0.28,0.67 0.02,0.25 0.14,0.45 0.36,0.61 0.28,0.2 0.94,0.38 1.98,0.54 1.04,0.16 1.82,0.35 2.32,0.57 0.51,0.22 0.92,0.54 1.23,0.97 0.31,0.43 0.49,0.97 0.55,1.62 0.05,0.6 -0.07,1.17 -0.37,1.71 -0.29,0.55 -0.73,0.97 -1.31,1.27 -0.59,0.3 -1.33,0.49 -2.23,0.56 -1.31,0.1 -2.35,-0.12 -3.1,-0.67 -0.75,-0.55 -1.24,-1.4 -1.47,-2.56z"/>
  <path id="_1" class="fil2" d="M73.43 106.14l2.07 0.56c-0.27,1.15 -0.75,2.02 -1.45,2.6 -0.7,0.58 -1.62,0.9 -2.73,0.94 -1.38,0.06 -2.54,-0.37 -3.47,-1.27 -0.93,-0.91 -1.43,-2.18 -1.5,-3.82 -0.07,-1.73 0.32,-3.1 1.17,-4.1 0.86,-1 2.01,-1.53 3.47,-1.59 1.27,-0.05 2.32,0.28 3.15,1 0.49,0.43 0.88,1.05 1.15,1.88l-2.06 0.59c-0.15,-0.54 -0.42,-0.95 -0.83,-1.25 -0.4,-0.3 -0.89,-0.43 -1.44,-0.41 -0.77,0.03 -1.39,0.34 -1.84,0.91 -0.46,0.58 -0.66,1.48 -0.61,2.72 0.06,1.32 0.33,2.25 0.83,2.78 0.5,0.54 1.12,0.79 1.88,0.76 0.56,-0.02 1.03,-0.22 1.42,-0.59 0.39,-0.37 0.65,-0.94 0.8,-1.72z"/>
  <path id="_2" class="fil2" d="M86.88 109.57l-2.29 0.06 -0.97 -2.34 -4.16 0.11 -0.8 2.39 -2.23 0.06 3.79 -10.52 2.22 -0.06 4.44 10.31zm-3.98 -4.02l-1.54 -3.83 -1.31 3.9 2.84 -0.07z"/>
  <polygon id="_3" class="fil2" points="88.04,109.91 87.6,99.49 89.65,99.41 94.2,106.18 93.91,99.23 95.86,99.14 96.31,109.56 94.19,109.65 89.71,103.04 89.99,109.83 "/>
  <polygon id="_4" class="fil2" points="102.42,110.36 103.17,99.96 106.31,100.19 107.68,107.42 110.06,100.46 113.21,100.68 112.46,111.08 110.51,110.94 111.1,102.76 108.45,110.79 106.42,110.65 104.95,102.32 104.37,110.5 "/>
  <polygon id="_5" class="fil2" points="114.56,111.15 115.3,100.75 123.01,101.31 122.89,103.07 117.28,102.67 117.11,104.97 122.33,105.35 122.21,107.1 116.99,106.72 116.78,109.55 122.59,109.97 122.47,111.72 "/>
 </g>
</svg>
