<?xml version="1.0" encoding="UTF-8"?>
<!DOCTYPE svg PUBLIC "-//W3C//DTD SVG 1.1//EN" "http://www.w3.org/Graphics/SVG/1.1/DTD/svg11.dtd">
<!-- Creator: CorelDRAW 2021 (64-Bit) -->
<svg xmlns="http://www.w3.org/2000/svg" xml:space="preserve" width="2.1272in" height="1.16619in" version="1.1" style="shape-rendering:geometricPrecision; text-rendering:geometricPrecision; image-rendering:optimizeQuality; fill-rule:evenodd; clip-rule:evenodd"
viewBox="0 0 41.89 22.97"
 xmlns:xlink="http://www.w3.org/1999/xlink"
 xmlns:xodm="http://www.corel.com/coreldraw/odm/2003">
 <defs>
  <style type="text/css">
   <![CDATA[
    .fil7 {fill:#FEFEFE;fill-rule:nonzero}
    .fil21 {fill:#F7B1B8;fill-rule:nonzero}
    .fil26 {fill:#F494A7;fill-rule:nonzero}
    .fil23 {fill:#EEF2FA;fill-rule:nonzero}
    .fil0 {fill:#D7E3F3;fill-rule:nonzero}
    .fil4 {fill:#D0DDF1;fill-rule:nonzero}
    .fil1 {fill:#C5D5ED;fill-rule:nonzero}
    .fil20 {fill:#9DC5E9;fill-rule:nonzero}
    .fil19 {fill:#84B5E1;fill-rule:nonzero}
    .fil3 {fill:#73A0D4;fill-rule:nonzero}
    .fil15 {fill:#658DC8;fill-rule:nonzero}
    .fil16 {fill:#5486C4;fill-rule:nonzero}
    .fil5 {fill:#5279BB;fill-rule:nonzero}
    .fil2 {fill:#3462AC;fill-rule:nonzero}
    .fil28 {fill:#3459A6;fill-rule:nonzero}
    .fil14 {fill:#30529B;fill-rule:nonzero}
    .fil13 {fill:#363D68;fill-rule:nonzero}
    .fil22 {fill:#2B2F46;fill-rule:nonzero}
    .fil12 {fill:#3A4279;fill-rule:nonzero}
    .fil32 {fill:url(#id0)}
    .fil8 {fill:url(#id1)}
    .fil6 {fill:url(#id2)}
    .fil29 {fill:url(#id3)}
    .fil9 {fill:url(#id4)}
    .fil33 {fill:url(#id5)}
    .fil11 {fill:url(#id6)}
    .fil17 {fill:url(#id7)}
    .fil18 {fill:url(#id8)}
    .fil24 {fill:url(#id9)}
    .fil10 {fill:url(#id10)}
    .fil27 {fill:url(#id11)}
    .fil30 {fill:url(#id12)}
    .fil25 {fill:url(#id13)}
    .fil31 {fill:url(#id14)}
   ]]>
  </style>
  <linearGradient id="id0" gradientUnits="userSpaceOnUse" x1="24.1" y1="9.88" x2="25.86" y2="9.88">
   <stop offset="0" style="stop-opacity:1; stop-color:#FFCC30"/>
   <stop offset="1" style="stop-opacity:1; stop-color:#F47C42"/>
  </linearGradient>
  <linearGradient id="id1" gradientUnits="userSpaceOnUse" xlink:href="#id0" x1="38.68" y1="15.96" x2="35.83" y2="15.96">
  </linearGradient>
  <linearGradient id="id2" gradientUnits="userSpaceOnUse" xlink:href="#id0" x1="40.54" y1="15.96" x2="37.68" y2="15.96">
  </linearGradient>
  <linearGradient id="id3" gradientUnits="userSpaceOnUse" x1="3.31" y1="20.98" x2="6.65" y2="21.02">
   <stop offset="0" style="stop-opacity:1; stop-color:#F47C42"/>
   <stop offset="1" style="stop-opacity:1; stop-color:#FFCC30"/>
  </linearGradient>
  <linearGradient id="id4" gradientUnits="userSpaceOnUse" xlink:href="#id0" x1="41.03" y1="14.13" x2="38.18" y2="14.13">
  </linearGradient>
  <linearGradient id="id5" gradientUnits="userSpaceOnUse" xlink:href="#id0" x1="21.2" y1="5.39" x2="22.95" y2="5.39">
  </linearGradient>
  <linearGradient id="id6" gradientUnits="userSpaceOnUse" xlink:href="#id0" x1="39.18" y1="14.13" x2="36.32" y2="14.13">
  </linearGradient>
  <linearGradient id="id7" gradientUnits="userSpaceOnUse" xlink:href="#id0" x1="24.87" y1="16.33" x2="29.02" y2="16.33">
  </linearGradient>
  <linearGradient id="id8" gradientUnits="userSpaceOnUse" x1="25.15" y1="16.33" x2="28.96" y2="16.33">
   <stop offset="0" style="stop-opacity:1; stop-color:#FFD53E"/>
   <stop offset="1" style="stop-opacity:1; stop-color:#F68D4D"/>
  </linearGradient>
  <linearGradient id="id9" gradientUnits="userSpaceOnUse" xlink:href="#id0" x1="14.49" y1="10.79" x2="18.94" y2="13.28">
  </linearGradient>
  <linearGradient id="id10" gradientUnits="userSpaceOnUse" xlink:href="#id0" x1="41.03" y1="14.13" x2="38.18" y2="14.13">
  </linearGradient>
  <linearGradient id="id11" gradientUnits="userSpaceOnUse" xlink:href="#id0" x1="13.97" y1="9.58" x2="12.64" y2="13.97">
  </linearGradient>
  <linearGradient id="id12" gradientUnits="userSpaceOnUse" x1="3.31" y1="20.98" x2="6.65" y2="21.02">
   <stop offset="0" style="stop-opacity:1; stop-color:#F3763B"/>
   <stop offset="1" style="stop-opacity:1; stop-color:#F8C12E"/>
  </linearGradient>
  <linearGradient id="id13" gradientUnits="userSpaceOnUse" xlink:href="#id0" x1="18.03" y1="13.06" x2="13.58" y2="13.06">
  </linearGradient>
  <linearGradient id="id14" gradientUnits="userSpaceOnUse" x1="3.35" y1="20.98" x2="6.64" y2="21.02">
   <stop offset="0" style="stop-opacity:1; stop-color:#FBC3A0"/>
   <stop offset="1" style="stop-opacity:1; stop-color:#FFECA0"/>
  </linearGradient>
 </defs>
 <g id="Layer_x0020_1">
  <metadata id="CorelCorpID_0Corel-Layer"/>
  <path class="fil0" d="M2.83 22.97c0,0 -1.67,-2.21 -0.87,-4.85 0.8,-2.64 2.85,-4.67 2.19,-7.73 -0.79,-3.63 1.05,-6.7 4.31,-6.3 5.46,0.66 9.38,-3.46 11.38,-3.87 5.92,-1.22 6.99,3.25 10.19,3.68 6.89,0.94 9.02,3.95 8.77,9.71 -0.08,1.9 5.2,5.7 2.17,9.36l-38.13 0z"/>
  <path class="fil1" d="M12.64 3.71l8.21 0 0 -0.58 -6.55 0c-0.52,0.22 -1.07,0.42 -1.66,0.58z"/>
  <polygon class="fil1" points="6.26,8.14 20.85,8.14 20.85,7.56 6.26,7.56 "/>
  <polygon class="fil1" points="6.26,12.58 20.85,12.58 20.85,11.99 6.26,11.99 "/>
  <path class="fil1" d="M6.14 12.58l0.58 0 0 -8.32c-0.2,0.07 -0.4,0.15 -0.58,0.25l0 8.07z"/>
  <path class="fil1" d="M10.95 12.58l0.58 0 0 -8.61c-0.19,0.03 -0.39,0.06 -0.58,0.09l0 8.53z"/>
  <path class="fil1" d="M15.75 12.58l0.58 0 0 -10.48c-0.19,0.11 -0.38,0.22 -0.58,0.33l0 10.15z"/>
  <path class="fil1" d="M20.56 12.58l0.58 0 0 -12.55c-0.19,0.01 -0.38,0.03 -0.58,0.06l0 12.49z"/>
  <path class="fil1" d="M9.94 9.88c-0.12,0.14 -0.16,0.39 -0.2,0.56 -0.04,0.14 -0.07,0.28 -0.1,0.42l-0.09 0c0.07,-0.38 0.12,-0.77 0.23,-1.14 0.08,-0.27 0.25,-0.4 0.51,-0.48 0.22,-0.06 0.44,-0.12 0.66,-0.18 0.03,-0.01 -0.6,0.01 -0.88,0.09 -0.1,0.03 -0.23,0.05 -0.34,0.1 0.14,-0.41 0.32,-0.81 0.51,-1.21 0.02,-0.04 -1.2,1.1 -0.9,2.82l-0.09 0 -0.01 -0.01c-0.12,-0.42 -0.1,-0.87 -0.27,-1.27 -0.16,-0.37 -0.45,-0.66 -0.77,-0.9 -0.03,-0.02 -0.05,0.02 -0.04,0.04 0.16,0.37 0.42,0.66 0.59,1.02 0.13,0.29 0.24,0.6 0.35,0.9 -0.14,-0.15 -0.31,-0.26 -0.54,-0.29 -0.37,-0.04 -0.54,0.17 -0.65,0.49 -0.01,0.03 0.04,0.06 0.06,0.02 0.12,-0.21 0.41,-0.26 0.63,-0.26 0.22,-0 0.4,0.11 0.56,0.24l-0.26 0 0.2 1.24 0.71 0 0.2 -1.24 -0.18 0c0.06,-0.14 0.11,-0.29 0.18,-0.43 0.09,-0.18 0.17,-0.35 0.41,-0.32 0.15,0.02 0.31,0.08 0.45,0.12 0.04,0.01 -0.7,-0.6 -0.91,-0.36z"/>
  <path class="fil1" d="M26.79 6.98c-1.09,-0.82 -1.74,-1.57 -2,-1.9l0 -4.36c-0.09,-0.05 -0.18,-0.09 -0.28,-0.13l0 4.5c-0.26,0.33 -0.91,1.08 -2,1.9l1.59 0c0,0.3 0.24,0.54 0.54,0.54 0.3,0 0.54,-0.24 0.54,-0.54l1.61 0z"/>
  <path class="fil1" d="M32.82 6.27c-1.09,-0.82 -1.74,-1.57 -2,-1.9l0 -0.35c-0.09,-0.02 -0.18,-0.03 -0.27,-0.05l0 0.39c-0.26,0.33 -0.91,1.08 -2,1.9l1.59 0c0,0.3 0.24,0.54 0.54,0.54 0.3,0 0.54,-0.24 0.54,-0.54l1.61 0z"/>
  <path class="fil1" d="M38.74 11.35l-3.09 0 0 -5.64c-0.37,-0.24 -0.78,-0.46 -1.23,-0.66l0 7.54 4.38 0c-0,-0.43 -0.02,-0.84 -0.06,-1.23z"/>
  <path class="fil1" d="M33.31 11.2l-2.03 0 0 -2.03 2.03 0 0 2.03zm-2.46 -2.46l0 2.9 2.9 0 0 -2.9 -2.9 0z"/>
  <path class="fil1" d="M29.76 11.2l-2.03 0 0 -2.03 2.03 0 0 2.03zm-2.46 -2.46l0 2.9 2.9 0 0 -2.9 -2.9 0z"/>
  <path class="fil1" d="M33.31 14.85l-2.03 0 0 -2.03 2.03 0 0 2.03zm-2.46 -2.46l0 2.9 2.9 0 0 -2.9 -2.9 0z"/>
  <path class="fil1" d="M29.76 14.85l-2.03 0 0 -2.03 2.03 0 0 2.03zm-2.46 -2.46l0 2.9 2.9 0 0 -2.9 -2.9 0z"/>
  <polygon class="fil2" points="34.01,22.97 39.95,22.97 39.95,16.41 34.01,16.41 "/>
  <polygon class="fil3" points="34.87,22.97 40.81,22.97 40.81,16.41 34.87,16.41 "/>
  <path class="fil4" d="M35.51 18.55l4.67 0c0.2,0 0.36,-0.16 0.36,-0.36l0 -1.02c0,-0.2 -0.16,-0.36 -0.36,-0.36l-4.67 0c-0.2,0 -0.36,0.16 -0.36,0.36l0 1.02c0,0.2 0.16,0.36 0.36,0.36z"/>
  <path class="fil3" d="M35.33 17.21l0 0.94c0,0.14 0.11,0.25 0.25,0.25l4.51 0c0.14,0 0.25,-0.11 0.25,-0.25l0 -0.94c0,-0.04 -0.01,-0.09 -0.03,-0.13 -0.04,-0.08 -0.13,-0.13 -0.22,-0.13l-4.51 0c-0.09,0 -0.18,0.05 -0.22,0.13 -0.02,0.04 -0.03,0.08 -0.03,0.13z"/>
  <path class="fil5" d="M40.31 17.08l-4.95 0c0.04,-0.08 0.13,-0.13 0.22,-0.13l4.51 0c0.09,0 0.18,0.05 0.22,0.13z"/>
  <path class="fil0" d="M37.61 17.68c0,-0.13 0.11,-0.23 0.24,-0.23 0.13,0 0.24,0.11 0.24,0.23 0,0.13 -0.11,0.23 -0.24,0.23 -0.13,0 -0.24,-0.11 -0.24,-0.23z"/>
  <path class="fil4" d="M35.51 20.58l4.67 0c0.2,0 0.36,-0.16 0.36,-0.36l0 -1.02c0,-0.2 -0.16,-0.36 -0.36,-0.36l-4.67 0c-0.2,0 -0.36,0.16 -0.36,0.36l0 1.02c0,0.2 0.16,0.36 0.36,0.36z"/>
  <path class="fil3" d="M35.33 19.25l0 0.94c0,0.14 0.11,0.25 0.25,0.25l4.51 0c0.14,0 0.25,-0.11 0.25,-0.25l0 -0.94c0,-0.04 -0.01,-0.09 -0.03,-0.13 -0.04,-0.08 -0.13,-0.13 -0.22,-0.13l-4.51 0c-0.09,0 -0.18,0.05 -0.22,0.13 -0.02,0.04 -0.03,0.08 -0.03,0.13z"/>
  <path class="fil5" d="M40.31 19.12l-4.95 0c0.04,-0.08 0.13,-0.13 0.22,-0.13l4.51 0c0.09,0 0.18,0.05 0.22,0.13z"/>
  <path class="fil0" d="M37.61 19.72c0,-0.13 0.11,-0.24 0.24,-0.24 0.13,0 0.24,0.11 0.24,0.24 0,0.13 -0.11,0.23 -0.24,0.23 -0.13,0 -0.24,-0.11 -0.24,-0.23z"/>
  <path class="fil4" d="M35.51 22.62l4.67 0c0.2,0 0.36,-0.16 0.36,-0.36l0 -1.02c0,-0.2 -0.16,-0.36 -0.36,-0.36l-4.67 0c-0.2,0 -0.36,0.16 -0.36,0.36l0 1.02c0,0.2 0.16,0.36 0.36,0.36z"/>
  <path class="fil3" d="M35.33 21.29l0 0.93c0,0.14 0.11,0.25 0.25,0.25l4.51 0c0.14,0 0.25,-0.11 0.25,-0.25l0 -0.93c0,-0.04 -0.01,-0.09 -0.03,-0.13 -0.04,-0.07 -0.13,-0.13 -0.22,-0.13l-4.51 0c-0.09,0 -0.18,0.05 -0.22,0.13 -0.02,0.04 -0.03,0.08 -0.03,0.13z"/>
  <path class="fil5" d="M40.31 21.16l-4.95 0c0.04,-0.07 0.13,-0.13 0.22,-0.13l4.51 0c0.09,0 0.18,0.05 0.22,0.13z"/>
  <path class="fil0" d="M37.61 21.75c0,-0.13 0.11,-0.23 0.24,-0.23 0.13,0 0.24,0.11 0.24,0.23 0,0.13 -0.11,0.23 -0.24,0.23 -0.13,0 -0.24,-0.11 -0.24,-0.23z"/>
  <path class="fil6" d="M37.75 16.41l2.33 0c0.25,0 0.46,-0.21 0.46,-0.46 0,-0.25 -0.21,-0.46 -0.46,-0.46l-2.33 0c-0.04,0 -0.07,0.03 -0.07,0.07 0,0.04 0,0.74 0,0.78 0,0.04 0.03,0.07 0.07,0.07z"/>
  <path class="fil7" d="M35.9 16.35l2.33 0c0.21,0 0.39,-0.17 0.39,-0.39 0,-0.21 -0.17,-0.39 -0.39,-0.39l-2.33 0 0 0.78z"/>
  <path class="fil8" d="M35.9 16.41l2.33 0c0.25,0 0.46,-0.21 0.46,-0.46 0,-0.25 -0.21,-0.46 -0.46,-0.46l-2.33 0c-0.04,0 -0.07,0.03 -0.07,0.07 0,0.04 0.03,0.07 0.07,0.07l2.33 0c0.18,0 0.32,0.14 0.32,0.32 0,0.18 -0.14,0.32 -0.32,0.32l-2.33 0c-0.04,0 -0.07,0.03 -0.07,0.07 0,0.04 0.03,0.07 0.07,0.07z"/>
  <path class="fil9" d="M38.25 14.58l2.33 0c0.25,0 0.46,-0.21 0.46,-0.46 0,-0.25 -0.21,-0.46 -0.46,-0.46l-2.33 0c-0.04,0 -0.07,0.03 -0.07,0.07 0,0.04 0,0.74 0,0.78 0,0.04 0.03,0.07 0.07,0.07z"/>
  <path class="fil10" d="M36.39 14.51l2.33 0c0.21,0 0.39,-0.17 0.39,-0.39 0,-0.21 -0.17,-0.39 -0.39,-0.39l-2.33 0 0 0.78z"/>
  <path class="fil11" d="M36.39 14.58l2.33 0c0.25,0 0.46,-0.21 0.46,-0.46 0,-0.25 -0.21,-0.46 -0.46,-0.46l-2.33 0c-0.04,0 -0.07,0.03 -0.07,0.07 0,0.04 0.03,0.07 0.07,0.07l2.33 0c0.18,0 0.32,0.14 0.32,0.32 0,0.18 -0.14,0.32 -0.32,0.32l-2.33 0c-0.04,0 -0.07,0.03 -0.07,0.07 0,0.04 0.03,0.07 0.07,0.07z"/>
  <path class="fil12" d="M37.11 15.5l2.33 0c0.25,0 0.46,-0.21 0.46,-0.46 0,-0.25 -0.21,-0.46 -0.46,-0.46l-2.33 0c-0.04,0 -0.07,0.03 -0.07,0.07 0,0.04 0,0.74 0,0.78 0,0.04 0.03,0.07 0.07,0.07z"/>
  <path class="fil7" d="M35.26 15.43l2.33 0c0.21,0 0.39,-0.17 0.39,-0.39 0,-0.21 -0.17,-0.39 -0.39,-0.39l-2.33 0 0 0.78z"/>
  <path class="fil2" d="M35.26 15.5l2.33 0c0.25,0 0.46,-0.21 0.46,-0.46 0,-0.25 -0.21,-0.46 -0.46,-0.46l-2.33 0c-0.04,0 -0.07,0.03 -0.07,0.07 0,0.04 0.03,0.07 0.07,0.07l2.33 0c0.18,0 0.32,0.14 0.32,0.32 0,0.18 -0.14,0.32 -0.32,0.32l-2.33 0c-0.04,0 -0.07,0.03 -0.07,0.07 0,0.04 0.03,0.07 0.07,0.07z"/>
  <polygon class="fil13" points="31.85,22.95 31.46,20.39 30.68,20.39 31.27,22.95 "/>
  <polygon class="fil13" points="29.26,22.95 28.86,20.39 28.09,20.39 28.67,22.95 "/>
  <polygon class="fil14" points="26.48,20.52 31.43,20.52 31.43,15.82 26.48,15.82 "/>
  <path class="fil2" d="M30.54 20.52l1.78 0 0 -3.81c0,-0.49 -0.4,-0.89 -0.89,-0.89 -0.49,0 -0.89,0.4 -0.89,0.89l0 3.81z"/>
  <path class="fil15" d="M26.58 13.41l0 4.76 2.24 0c-0.04,-1.49 -0.31,-2.63 -0.65,-3.48l0 -0c-0.27,-0.68 -0.58,-1.18 -0.86,-1.54 -0.1,-0.13 -0.24,-0.17 -0.37,-0.16 -0.19,0.02 -0.36,0.18 -0.36,0.41z"/>
  <polygon class="fil15" points="17.69,18.17 26.58,18.17 26.71,16.44 26.95,13 26.95,13 18.12,13 18.12,13 "/>
  <path class="fil16" d="M19.48 18.17l9.35 0c-0.04,-1.49 -0.31,-2.63 -0.65,-3.48 -0.02,0.05 -0.36,1.06 -1.47,1.74 -0.04,0.02 -0.08,0.05 -0.12,0.07 -0.54,0.31 -0.06,0.53 -0.98,0.55 -3.04,0.06 -6.06,-1.61 -6.06,-1.61l0 0 -0.06 2.73z"/>
  <path class="fil2" d="M17.69 13.41l0 4.76 2.24 0c-0.03,-1.09 -0.18,-1.99 -0.39,-2.73l0 -0c-0.31,-1.08 -0.74,-1.82 -1.11,-2.29 -0.08,-0.11 -0.2,-0.16 -0.32,-0.16 -0.21,-0.01 -0.42,0.16 -0.42,0.41z"/>
  <path class="fil15" d="M17.37 13.41l0 4.76 2.24 0c-0.04,-1.49 -0.31,-2.63 -0.65,-3.48l0 -0c-0.27,-0.68 -0.58,-1.18 -0.86,-1.54 -0.1,-0.13 -0.24,-0.17 -0.37,-0.16 -0.19,0.02 -0.36,0.18 -0.36,0.41z"/>
  <polygon class="fil15" points="8.48,18.17 17.37,18.17 17.49,16.44 17.73,13 17.73,13 8.9,13 8.9,13 "/>
  <path class="fil16" d="M10.27 18.17l9.35 0c-0.04,-1.49 -0.31,-2.63 -0.65,-3.48 -0.02,0.05 -0.36,1.06 -1.47,1.74 -0.04,0.02 -0.08,0.05 -0.12,0.07 -0.54,0.31 -0.06,0.53 -0.98,0.55 -3.04,0.06 -6.06,-1.61 -6.06,-1.61l0 0 -0.06 2.73z"/>
  <path class="fil2" d="M8.48 13.41l0 4.76 2.24 0c-0.03,-1.09 -0.18,-1.99 -0.39,-2.73l0 -0c-0.31,-1.08 -0.74,-1.82 -1.11,-2.29 -0.08,-0.11 -0.2,-0.16 -0.32,-0.16 -0.21,-0.01 -0.42,0.16 -0.42,0.41z"/>
  <path class="fil17" d="M25.87 17.97c-0.02,0 -0.05,-0 -0.07,-0.01 -0,-0.02 -0.01,-0.03 -0.02,-0.05 -0.04,-0.06 -0.08,-0.12 -0.12,-0.17 -0.01,-0.01 -0.01,-0.01 -0.02,-0.02 0.01,-0.05 0.03,-0.1 0.06,-0.14 -0.02,-0.02 -0.03,-0.05 -0.05,-0.07 0.06,-0.47 0.14,-1.2 0.05,-1.64l0.02 -0.02c0.02,-0.02 0.03,-0.03 0.05,-0.05 0.07,-0.07 0.07,-0.2 -0,-0.27 -0.04,-0.04 -0.09,-0.05 -0.14,-0.05 -0.05,0 -0.1,0.02 -0.14,0.06 -0.02,0.02 -0.03,0.03 -0.05,0.05l-0.02 0.02c-0.1,-0.04 -0.24,-0.08 -0.39,-0.12 -0.04,-0.04 -0.09,-0.09 -0.12,-0.14 -0.08,-0.1 -0.09,-0.23 0,-0.33 0.04,-0.04 0.11,-0.07 0.17,-0.07 0.06,0 0.12,0.02 0.16,0.07 0.04,0.05 0.08,0.1 0.13,0.14 0.47,-0.17 0.99,-0.24 1.45,-0.26 0.14,-0.01 0.27,-0.01 0.4,-0.01 0.28,0 0.52,0.01 0.69,0.03 0,-0.01 0.01,-0.02 0.02,-0.03 0.01,-0.02 0.03,-0.05 0.04,-0.07 0.04,-0.07 0.12,-0.11 0.2,-0.11 0.01,0 0.01,0 0.02,0 0,0 0,0 0,0 0.03,0 0.07,0.01 0.1,0.03 0.05,0.03 0.09,0.08 0.1,0.13 0.02,0.06 0.01,0.13 -0.02,0.19 -0.01,0.02 -0.02,0.04 -0.03,0.06 -0,0.01 -0.01,0.01 -0.01,0.02l-0.02 0.03c0.27,0.56 0.4,1.63 0.45,2.15 0.01,0 0.02,0.01 0.02,0.01 0.01,0 0.01,0.01 0.02,0.02 0.06,0.06 0.13,0.11 0.19,0.17 0.1,0.08 0.08,0.24 0,0.33 -0.04,0.05 -0.1,0.07 -0.15,0.07 -0.01,0 -0.01,-0 -0.02,-0 -0.06,-0 -0.11,-0.03 -0.15,-0.07 -0.06,-0.05 -0.11,-0.1 -0.17,-0.15 -0.42,0.08 -0.97,0.11 -1.47,0.11 -0.34,0 -0.65,-0.01 -0.87,-0.02l-0.01 0.02c-0.04,0.04 -0.08,0.09 -0.12,0.13 -0.04,0.05 -0.1,0.07 -0.15,0.07zm1.44 -2.91c-0.24,0 -0.32,0.38 -0.05,0.46 0.12,0.04 0.31,0.07 0.4,0.16 0.01,0.01 0.02,0.06 0.03,0.1 0.02,0.08 0.04,0.17 0.05,0.25 0.02,0.1 0.13,0.17 0.23,0.17 0.02,0 0.04,-0 0.06,-0.01 0.13,-0.04 0.18,-0.16 0.16,-0.28 -0.03,-0.2 -0.06,-0.44 -0.22,-0.57 -0.16,-0.13 -0.39,-0.2 -0.59,-0.26 -0.02,-0.01 -0.05,-0.01 -0.07,-0.01z"/>
  <path class="fil18" d="M27.98 16.19c-0.1,0 -0.21,-0.07 -0.23,-0.17 -0.01,-0.08 -0.03,-0.17 -0.05,-0.25 -0.01,-0.04 -0.03,-0.09 -0.03,-0.1 -0.1,-0.09 -0.28,-0.12 -0.4,-0.16 -0.26,-0.07 -0.18,-0.46 0.05,-0.46 0.02,0 0.04,0 0.07,0.01 0.2,0.06 0.43,0.13 0.59,0.26 0.16,0.13 0.19,0.37 0.22,0.57 0.02,0.12 -0.03,0.25 -0.16,0.28 -0.02,0 -0.04,0.01 -0.06,0.01z"/>
  <path class="fil19" d="M25.78 17.91c-0.04,-0.06 -0.08,-0.12 -0.12,-0.17 -0.01,-0.01 -0.02,-0.02 -0.03,-0.03 0.07,-0.43 0.18,-1.33 0.08,-1.83l0.02 -0.02c0.02,-0.02 0.03,-0.03 0.05,-0.05 0.07,-0.07 0.07,-0.2 -0,-0.27 -0.08,-0.07 -0.2,-0.07 -0.27,0 -0.02,0.02 -0.03,0.03 -0.05,0.05l-0.02 0.02c-0.4,-0.14 -1.31,-0.4 -2.11,-0.32 -0.03,-0.04 -0.05,-0.09 -0.07,-0.14 -0.04,-0.09 -0.18,-0.12 -0.26,-0.07 -0.1,0.06 -0.11,0.17 -0.07,0.26 0.02,0.05 0.05,0.1 0.08,0.14 0.01,0.02 0.03,0.03 0.04,0.05 -0.08,0.36 -0.19,1.11 0.06,1.78 -0.08,0.06 -0.12,0.17 -0.06,0.26 0.05,0.08 0.18,0.13 0.26,0.07 0.04,-0.03 0.08,-0.05 0.12,-0.08l0.01 -0.01c0.44,0.13 1.31,0.38 1.91,0.41 0.04,0.05 0.07,0.1 0.11,0.15 0.06,0.08 0.17,0.13 0.26,0.07 0.08,-0.05 0.13,-0.18 0.07,-0.26z"/>
  <path class="fil20" d="M25.27 16.86c-0.1,-0 -0.2,-0.09 -0.19,-0.19 0.01,-0.07 0.01,-0.14 0.01,-0.21 0,-0.03 -0,-0.08 -0.01,-0.09 -0.06,-0.09 -0.2,-0.16 -0.29,-0.21 -0.18,-0.11 -0.07,-0.36 0.1,-0.36 0.03,0 0.06,0.01 0.1,0.03 0.15,0.09 0.32,0.19 0.42,0.33 0.1,0.14 0.07,0.34 0.06,0.51 -0.01,0.1 -0.08,0.19 -0.19,0.2 -0,0 -0,0 -0,0z"/>
  <polygon class="fil13" points="9.28,22.95 9.67,20.39 10.45,20.39 9.86,22.95 "/>
  <polygon class="fil13" points="11.87,22.95 12.27,20.39 13.05,20.39 12.46,22.95 "/>
  <polygon class="fil2" points="22.56,19.55 30.46,19.55 30.46,17.74 22.56,17.74 "/>
  <polygon class="fil14" points="14.46,20.52 30.46,20.52 30.46,17.74 14.46,17.74 "/>
  <polygon class="fil2" points="22.56,19.55 30.46,19.55 30.46,17.74 22.56,17.74 "/>
  <polygon class="fil15" points="22.56,20.52 30.46,20.52 30.46,19.55 22.56,19.55 "/>
  <polygon class="fil2" points="14.46,19.55 22.35,19.55 22.35,17.74 14.46,17.74 "/>
  <polygon class="fil15" points="14.46,20.52 22.35,20.52 22.35,19.55 14.46,19.55 "/>
  <polygon class="fil14" points="8.49,20.52 14.64,20.52 14.64,15.82 8.49,15.82 "/>
  <path class="fil2" d="M13.75 20.52l1.78 0 0 -3.81c0,-0.49 -0.4,-0.89 -0.89,-0.89 -0.49,0 -0.89,0.4 -0.89,0.89l0 3.81z"/>
  <path class="fil21" d="M18.08 21.46l0.72 0c-0.32,0.45 -0.8,0.78 0.54,0.98 0.38,0.06 0.36,0.51 0.36,0.51l-2.14 0c0,0 -0.26,-0.22 0.02,-0.71 0.07,-0.12 0.51,-0.78 0.51,-0.78z"/>
  <path class="fil22" d="M19.34 22.43c0.39,0.04 0.36,0.51 0.36,0.51l-2.14 0c0,0 -0.26,-0.22 0.02,-0.71 0.14,0.08 0.51,0.17 0.97,-0.12 0.18,0.14 0.53,0.29 0.8,0.31z"/>
  <path class="fil22" d="M18.9 22.32c0,0 -0.22,-0.18 -0.27,-0.37 -0.04,-0.19 -0.27,-0.05 -0.29,0 -0.02,0.05 0.12,0.37 0.56,0.37z"/>
  <path class="fil23" d="M21.46 17.23c0.18,1.24 -2.22,4.01 -2.44,4.66 0,0 -0.65,-0.11 -1.18,-0.42 0,0 1.79,-4.03 2.05,-4.44 0.54,-0.86 1.51,-0.2 1.57,0.2z"/>
  <path class="fil21" d="M20.49 21.46l0.72 0c0.13,0.55 0.51,0.92 1.17,0.98 0.39,0.04 0.36,0.51 0.36,0.51l-2.14 0c0,0 -0.26,-0.22 0.02,-0.71 0.07,-0.12 -0.12,-0.78 -0.12,-0.78z"/>
  <path class="fil22" d="M22.38 22.43c0.39,0.04 0.36,0.51 0.36,0.51l-2.14 0c0,0 -0.26,-0.22 0.02,-0.71 0.14,0.08 0.51,0.17 0.97,-0.12 0.18,0.14 0.53,0.29 0.8,0.31z"/>
  <path class="fil22" d="M21.94 22.32c0,0 -0.37,-0.22 -0.41,-0.41 -0.04,-0.19 -0.27,-0.02 -0.29,0.04 -0.02,0.05 0.27,0.37 0.71,0.37z"/>
  <path class="fil21" d="M16 11.97c0.21,0.52 1.76,2.15 2.05,2.46 0.34,0.38 1.17,0.05 1.03,-0.4 -0.12,-0.39 -1.77,-2.55 -2.01,-2.75 -0.44,-0.36 -1.33,0.04 -1.06,0.68z"/>
  <path class="fil23" d="M16.12 15.51c-0.95,0.4 -0.22,1.93 1,2.33 1.22,0.4 2.59,0.15 3.65,0.23 0.3,0.02 1.06,-0.57 0.5,-1.19 -0.57,-0.62 -3.87,-1.9 -5.15,-1.37z"/>
  <path class="fil1" d="M17.44 15.52c0,0 2.2,1.07 2.64,1.64 0.12,0.16 0.14,1.05 0.44,2.31 -0.14,0.6 -0.41,1.14 -0.96,1.48 -0.58,-0.37 -0.98,-0.62 -1.72,0.51l1.7 -3.81 -1.3 0.38 -1.89 -1.84 1.09 -0.68z"/>
  <path class="fil23" d="M13.88 15.51c-0.37,0.74 -0.12,1.77 1.1,2.17 1.22,0.4 2.58,0.31 3.73,0.39 0.3,0.02 1.18,-0.46 0.61,-1.08 -0.57,-0.62 -4.83,-2.72 -5.44,-1.48z"/>
  <path class="fil24" d="M16.73 13.22c-0.51,-0.57 -0.89,-1.35 -1.01,-1.63 -0.28,-0.67 0.52,-1.17 0.96,-0.81 0.11,0.09 0.91,0.67 1.34,1.29 -0.24,0.58 -1.18,1.12 -1.29,1.15z"/>
  <path class="fil1" d="M15.04 15.75c0,0 -1.07,0.34 -0.51,0.98 0.57,0.64 3.47,1.32 3.47,1.32 0,0 -3.51,0.16 -4.1,-1.18 -0.5,-1.16 0.22,-1.69 0.22,-1.69l0.92 0.57z"/>
  <path class="fil25" d="M15.99 10.6c0,0 0.47,-0.04 0.71,0.21 0.25,0.25 0.67,1.19 0.87,2.44 0.21,1.25 0.45,2.23 0.45,2.23 0,0 -1.68,0.83 -4.38,0.26 0,0 -0.84,-3.58 -0.2,-4.82 0.2,-0.39 1.15,-0.4 1.3,-0.41 0.14,-0.01 1.24,0.09 1.24,0.09z"/>
  <path class="fil21" d="M15.87 10.05c0,0 -0.07,0.44 0.06,0.49 0.14,0.06 0.32,0.08 0.32,0.08 0,0 -0.75,1.08 -1.6,-0.1 0,0 0.25,0 0.33,-0.1 0.08,-0.1 0.13,-0.61 0.09,-0.94l0.8 0.57z"/>
  <path class="fil26" d="M14.99 10.42c0.08,-0.1 0.13,-0.61 0.09,-0.94l0.45 0.33c-0.09,0.08 -0.23,0.31 -0.22,0.32 -0.12,0.22 -0.19,0.54 0.05,0.71 0.18,0.13 0.41,0.13 0.63,0.06 -0.29,0.22 -0.79,0.38 -1.33,-0.37 0,0 0.25,0 0.33,-0.1z"/>
  <path class="fil21" d="M13.03 11.29c-0.43,0.36 -1.51,2.34 -1.72,2.71 -0.25,0.44 0.15,0.98 0.58,0.79 0.36,-0.16 2,-2.4 2.11,-2.69 0.21,-0.53 -0.44,-1.25 -0.97,-0.8z"/>
  <path class="fil21" d="M19.01 14.48c0.41,-0.35 1.42,-2.06 1.61,-2.38 0.24,-0.38 -0.2,-0.94 -0.49,-0.57 -0.28,0.35 -1.97,2.27 -2.08,2.51 -0.19,0.44 0.45,0.88 0.96,0.44z"/>
  <path class="fil27" d="M12.14 12.15c0.44,-0.62 1.11,-1.17 1.36,-1.35 0.59,-0.43 1.25,0.24 1,0.75 -0.06,0.13 -0.4,0.84 -0.91,1.4 -0.62,-0.11 -1.4,-0.7 -1.45,-0.8z"/>
  <path class="fil23" d="M19.06 16.77c1.12,0.54 2.14,4.29 2.56,4.84 0,0 -0.63,0.32 -1.15,0.33 0,0 -2.27,-3.44 -2.46,-3.89 -0.41,-0.94 0.69,-1.46 1.06,-1.29z"/>
  <path class="fil22" d="M14.69 9.7c0.04,0.06 0.14,0.11 0.22,0.08 0.08,-0.03 0.04,-0.16 0.01,-0.22 -0.04,-0.08 -0.02,-0.95 -0.03,-0.95 -0.03,-0.01 -0.28,0.19 -0.29,0.23 -0.02,0.1 -0.19,0.45 0.09,0.87z"/>
  <path class="fil21" d="M16.26 8.3l0 1.32c0,0.36 -0.31,0.64 -0.7,0.64 -0.39,0 -0.7,-0.29 -0.7,-0.64l0 -0.03c0,0 -0.36,0.08 -0.36,-0.32 0,-0.39 0.23,-0.34 0.23,-0.34l0 -0.63 1.54 0z"/>
  <path class="fil26" d="M14.72 8.93l0 -0.8 0.55 0 -0 0.29 0 1.37c0,0.24 0.23,0.43 0.47,0.42 0.07,-0 0.14,-0.02 0.2,-0.06 -0.11,0.07 -0.24,0.11 -0.38,0.11 -0.39,0 -0.7,-0.29 -0.7,-0.64l0 -0.03c0,0 -0.36,0.08 -0.36,-0.32 0,-0.39 0.23,-0.34 0.23,-0.34z"/>
  <path class="fil22" d="M14.72 8.93c-0.03,0.09 0.13,0.22 0.2,0.22 0.16,0 0.22,-0.56 0.29,-0.85 0.16,0.07 0.51,0.12 0.65,0 0.13,0.12 0.33,0.09 0.5,0.05 0.26,-0.06 0.38,-0.35 0.33,-0.6 -0.02,-0.1 -0.12,-0.33 -0.45,-0.34 -0.16,-0.2 -0.44,-0.11 -0.52,-0.05 -0.19,-0.12 -0.84,-0.14 -1.03,0.26l-0 0c-0.37,0.11 -0.37,1.22 0.02,1.29z"/>
  <path class="fil21" d="M20.26 11.21c0.03,-0.03 0.18,-0.1 0.31,-0.12 0.06,-0.09 0.08,-0.19 0.08,-0.31 0,-0.14 -0.01,-0.26 0.09,-0.37 0.01,-0.02 0.04,-0.02 0.06,-0.01 0.05,0.02 0.05,0.08 0.06,0.14 0,0.03 0.01,0.07 0.01,0.1 0.01,-0.09 0.02,-0.16 0.09,-0.24 0.01,-0.02 0.04,-0.02 0.06,-0.01 0.05,0.02 0.05,0.08 0.06,0.14l0 0.02 0.01 -0.01c0.01,-0.02 0.04,-0.02 0.06,-0.01 0.05,0.02 0.05,0.08 0.06,0.14 0.01,0.07 0.02,0.14 0.03,0.21 0.02,-0.02 0.04,-0.04 0.06,-0.06 0.02,-0.01 0.04,-0.01 0.06,0 0.05,0.03 0.03,0.09 0.03,0.15 -0.01,0.14 -0.02,0.3 -0.06,0.43 -0.07,0.22 -0.34,0.47 -0.55,0.53l-0.01 -0c-0.05,0.02 -0.11,0.05 -0.13,0.07 -0.05,0.05 -0.44,0.15 -0.49,-0.15 -0.02,-0.23 -0.07,-0.45 0.1,-0.62z"/>
  <polygon class="fil22" points="21.32,11.38 20.47,11.23 20.71,9.58 21.56,9.72 "/>
  <path class="fil22" d="M21.56 9.65l-0.49 -0.08 -0.01 0.07 0.25 0.04 0.18 0.03c0.06,0.01 0.1,0.07 0.09,0.14l-0.19 1.33c-0.01,0.07 -0.07,0.12 -0.13,0.11l-0.43 -0.07 -0.02 0.16 0.49 0.09c0.06,0.01 0.12,-0.04 0.13,-0.11l0.23 -1.57c0.01,-0.07 -0.03,-0.13 -0.09,-0.14z"/>
  <path class="fil2" d="M20.52 11.05l0.19 -1.33c0.01,-0.07 0.07,-0.12 0.13,-0.11l0.18 0.03 0.23 0.04 0.18 0.03c0.06,0.01 0.1,0.07 0.09,0.14l-0.19 1.33c-0.01,0.07 -0.07,0.12 -0.13,0.11l-0.59 -0.1c-0.06,-0.01 -0.1,-0.07 -0.09,-0.14zm0.99 -1.4l-0.01 -0 -0.72 -0.12c-0.06,-0.01 -0.12,0.04 -0.13,0.11l-0.23 1.57c-0.01,0.07 0.03,0.13 0.09,0.14l0.72 0.12 0.01 0c0.06,0.01 0.11,-0.04 0.12,-0.11l0.23 -1.57c0.01,-0.07 -0.03,-0.13 -0.08,-0.14z"/>
  <path class="fil21" d="M20.56 10.71c-0.01,-0.03 -0.05,-0.04 -0.08,-0.02 -0.11,0.1 -0.27,0.22 -0.33,0.36 -0.05,0.14 -0.04,0.32 -0.02,0.46 0,0.04 0.04,0.05 0.06,0.04 0.01,0.01 0.03,0.02 0.05,0 0.16,-0.1 0.1,-0.26 0.16,-0.41 0.05,-0.16 0.25,-0.25 0.16,-0.43z"/>
  <polygon class="fil14" points="8.49,20.52 14.64,20.52 14.64,15.82 8.49,15.82 "/>
  <path class="fil2" d="M13.75 20.52l1.78 0 0 -3.81c0,-0.49 -0.4,-0.89 -0.89,-0.89 -0.49,0 -0.89,0.4 -0.89,0.89l0 3.81z"/>
  <path class="fil21" d="M11.48 15c0.44,0.31 2.33,0.9 2.69,1.02 0.43,0.14 0.87,-0.41 0.44,-0.61 -0.41,-0.19 -2.66,-1.39 -2.92,-1.44 -0.47,-0.08 -0.76,0.64 -0.21,1.03z"/>
  <path class="fil21" d="M15.78 16.47c-0.1,-0.18 -0.19,-0.36 -0.1,-0.23 0.11,0.17 0.34,0.12 0.24,-0.04 -0.13,-0.21 -0.26,-0.45 -0.45,-0.62 -0.21,-0.18 -0.84,-0.12 -1.07,-0.23 -0.09,-0.04 -0.26,0.42 -0.21,0.48 0.18,0.22 0.52,0.24 0.55,0.27 0.06,0.11 0.08,0.18 0.12,0.3 0.06,0.14 0.31,0.17 0.26,0.03 -0.04,-0.09 0.01,-0.1 0.07,0.03 0.07,0.16 0.34,0.18 0.27,0.02 -0.03,-0.07 -0.02,-0.1 0.03,-0.01 0.1,0.18 0.4,0.18 0.3,0z"/>
  <path class="fil3" d="M7.05 10.83c-0,-0.02 -0.03,-0.04 -0.06,-0.04 -0.56,0.01 -1.26,0.01 -1.73,0.36 -0.44,0.32 -0.51,0.89 -0.5,1.39 0,0.05 0.06,0.07 0.1,0.05l0 0c1.17,0.44 2.35,-0.52 2.18,-1.75z"/>
  <path class="fil15" d="M4.35 13.11c0,-0.39 -0.09,-0.78 -0.38,-1.05 -0.34,-0.31 -0.84,-0.49 -1.24,-0.7 -0.04,-0.02 -0.11,0.02 -0.09,0.07 0.18,0.46 0.16,1.03 0.48,1.44 0.27,0.34 0.74,0.46 1.15,0.33 0.02,-0.01 0.03,-0.02 0.04,-0.04 0.02,-0.01 0.04,-0.02 0.04,-0.05z"/>
  <path class="fil15" d="M7.95 14.38c-0.27,-0.21 -0.63,-0.19 -0.96,-0.18 -0.37,0.02 -0.74,0.07 -1.07,0.23 -0.58,0.28 -1,0.89 -0.78,1.54 -0.01,0.03 0.01,0.06 0.04,0.07 0.56,0.18 0.83,-0.2 1.16,-0.57 0.43,-0.47 0.98,-0.81 1.59,-1 0.04,-0.01 0.06,-0.07 0.03,-0.1z"/>
  <path class="fil15" d="M9.29 15.77l-0.02 -0.01c-0.24,-0.1 -0.45,-0.29 -0.66,-0.48l-0 -0c-0.24,-0.2 -0.48,-0.4 -0.76,-0.45l-0.01 -0c-0.13,-0.02 -0.27,-0.02 -0.42,0.03 -0.6,0.2 -0.96,0.82 -1.02,1.42 -0,0.01 0,0.03 0.01,0.03l-0 0.01c-0.01,0.03 0.01,0.08 0.05,0.08 0.51,0.06 1.01,0 1.51,-0.1 0.44,-0.09 0.94,-0.17 1.33,-0.43 0.04,-0.03 0.03,-0.09 -0.01,-0.11z"/>
  <path class="fil15" d="M8.4 16.91c-0.65,-0.13 -2,-0.46 -2.09,0.58 -0,0.03 0.02,0.05 0.04,0.05 0.59,0.69 1.74,0.14 2.08,-0.54 0.02,-0.03 0,-0.08 -0.04,-0.09z"/>
  <path class="fil3" d="M4.27 14.82c-0.17,-0.38 -0.57,-0.78 -0.97,-0.92 -0.04,-0.01 -0.08,0.02 -0.07,0.06 0.01,0.75 -0.18,1.94 0.64,2.36l0.02 0c0.02,0.03 0.07,0.05 0.1,0 0.25,-0.45 0.52,-0.98 0.29,-1.5z"/>
  <path class="fil15" d="M2.13 15.3c-0.4,-0.33 -1.03,-0.4 -1.5,-0.16 -0.65,0.33 -0.53,1.11 -0.63,1.71 -0.01,0.06 0.05,0.1 0.1,0.06 0.64,-0.56 1.53,-0.78 2.02,-1.51l0 -0c0.03,-0.02 0.05,-0.06 0.01,-0.09z"/>
  <path class="fil3" d="M2.13 15.89c-0.02,-0.03 -0.05,-0.03 -0.07,-0.02 -0.02,-0.02 -0.04,-0.03 -0.07,-0.02 -0.32,0.18 -0.7,0.42 -0.76,0.81 -0.08,0.46 0.18,0.91 0.21,1.37 0,0.06 0.1,0.09 0.12,0.02 0.08,-0.44 0.54,-0.64 0.7,-1.03 0.14,-0.32 0.06,-0.83 -0.13,-1.12z"/>
  <path class="fil3" d="M4.11 18.57c-0.38,-0.53 -0.76,-0.98 -1.42,-1.15 -0.05,-0.01 -0.1,0.04 -0.07,0.09 0.15,0.22 0.14,0.47 0.27,0.7 0.07,0.13 0.19,0.23 0.32,0.31 0.28,0.18 0.64,0.34 0.95,0.16 0.06,-0.04 0.01,-0.13 -0.05,-0.1z"/>
  <path class="fil15" d="M4.96 17.95l-0.01 -0.02c-0.26,-0.41 -0.27,-0.94 -0.63,-1.29 -0.03,-0.03 -0.07,-0.02 -0.09,0.01 -0.18,0.28 -0.26,0.62 -0.12,0.93 0.15,0.34 0.47,0.43 0.81,0.47 0.06,0.01 0.07,-0.07 0.03,-0.1z"/>
  <path class="fil15" d="M5.68 13.34c-0.07,-0.06 -0.17,-0 -0.24,0.03 -0.14,0.06 -0.27,0.13 -0.39,0.21 -0.22,0.17 -0.38,0.4 -0.39,0.68l-0 0.02 -0 0.02c0,0.07 0.09,0.08 0.11,0.02 0.29,-0.06 0.51,-0.25 0.7,-0.47 0.09,-0.1 0.39,-0.38 0.22,-0.53z"/>
  <path class="fil15" d="M5.81 18l-0.02 -0.03c0.07,-0.5 0.1,-1.09 -0.39,-1.38 -0.03,-0.02 -0.08,-0 -0.09,0.04 -0.14,0.53 0.02,1.08 0.42,1.46 0.06,0.05 0.14,-0.03 0.08,-0.08z"/>
  <path class="fil3" d="M9.23 15.71c-0.22,-0.1 -0.42,-0.26 -0.63,-0.43l-0 -0c-0.24,-0.19 -0.48,-0.38 -0.76,-0.45l-0.01 -0c-0.13,-0.02 -0.27,-0.02 -0.42,0.03 -0.6,0.2 -0.96,0.82 -1.02,1.42 -0,0.01 0,0.03 0.01,0.03l-0 0.01c0.02,-0 0.04,-0.01 0.05,-0.03 0.01,-0 0.02,-0.01 0.03,-0.02 0.19,-0.21 0.4,-0.4 0.6,-0.6 0.1,-0.09 0.19,-0.21 0.3,-0.29 0.24,-0.17 0.44,-0.14 0.69,-0.06 0.3,0.09 0.57,0.24 0.84,0.39 0.1,0.06 0.2,0.15 0.31,0.1 0.02,-0.01 0.03,-0.03 0.03,-0.05 0,-0.02 -0.01,-0.04 -0.03,-0.05z"/>
  <path class="fil28" d="M4 17.7c-0.06,-0.23 -0.12,-0.46 -0.2,-0.69l0 -0.01c0.11,-0.36 0.15,-0.73 0.13,-1.1 0.02,-0 0.04,-0.01 0.05,-0.04 0.07,-0.22 0.1,-0.44 0.09,-0.67 -0,-0.08 -0.12,-0.08 -0.12,0 0.01,0.16 -0.01,0.31 -0.04,0.46 -0.02,-0.17 -0.06,-0.35 -0.11,-0.52 -0.02,-0.07 -0.14,-0.04 -0.11,0.03 0.17,0.54 0.18,1.1 0.05,1.64 -0.11,-0.28 -0.25,-0.55 -0.44,-0.79 -0.44,-0.56 -1.23,-0.9 -1.86,-0.64 -0,-0.02 -0.01,-0.04 -0.04,-0.05 -0.24,-0.06 -0.49,-0.02 -0.71,0.11 -0.06,0.04 -0.01,0.14 0.06,0.1 0.18,-0.11 0.37,-0.14 0.57,-0.1 -0.15,0.08 -0.28,0.2 -0.4,0.36 -0.04,0.06 0.06,0.12 0.1,0.06 0.3,-0.42 0.85,-0.55 1.33,-0.39 0.14,0.05 0.27,0.11 0.39,0.19 -0.5,-0.01 -0.89,0.33 -1.23,0.66 -0.05,0.05 0.03,0.14 0.08,0.08 0.07,-0.07 0.14,-0.13 0.21,-0.2 -0.02,0.12 -0.02,0.24 -0.01,0.36 0.01,0.07 0.13,0.08 0.12,0 -0.02,-0.16 -0.01,-0.31 0.03,-0.46l0 -0.02c0.24,-0.19 0.52,-0.33 0.85,-0.31 0.03,0 0.05,-0.02 0.05,-0.04 0.27,0.21 0.48,0.5 0.63,0.8 0.3,0.6 0.48,1.3 0.58,1.99 -0.24,-0.06 -0.46,-0.19 -0.63,-0.38 -0.05,-0.06 -0.13,0.03 -0.08,0.08 0.09,0.09 0.18,0.17 0.29,0.24 -0.07,-0 -0.14,-0 -0.2,-0.01 -0.07,-0.01 -0.11,0.1 -0.03,0.11 0.11,0.02 0.23,0.02 0.34,0.02 0.02,-0 0.04,-0.02 0.05,-0.03 0.09,0.04 0.18,0.07 0.27,0.09l0.01 0c0.04,0.34 0.07,0.67 0.08,0.99 0,0.08 0.12,0.08 0.12,0 -0.03,-0.66 -0.12,-1.31 -0.28,-1.95z"/>
  <path class="fil28" d="M5.96 15.27c-0.11,0.08 -0.21,0.16 -0.3,0.25 0.06,-0.21 0.15,-0.4 0.27,-0.58 0.04,-0.06 -0.06,-0.12 -0.1,-0.06 -0.15,0.22 -0.26,0.46 -0.31,0.73 -0,0.02 0,0.03 0.01,0.04 -0.26,0.26 -0.49,0.55 -0.67,0.88 -0.03,-0.41 -0.06,-0.82 -0.08,-1.22 -0.01,-0.29 -0.04,-0.62 -0.04,-0.95 0.14,-0.18 0.28,-0.37 0.49,-0.47 0.07,-0.03 0.01,-0.13 -0.06,-0.1 -0.18,0.08 -0.32,0.22 -0.44,0.38 -0,-0.16 0,-0.31 0.01,-0.47 0.01,-0.02 0.01,-0.04 0,-0.05 0.06,-0.83 0.31,-1.62 1.11,-1.99 0.07,-0.03 0.01,-0.13 -0.06,-0.1 -0.2,0.09 -0.37,0.21 -0.51,0.35 -0.01,-0.11 0.01,-0.23 0.05,-0.34 0.03,-0.07 -0.09,-0.1 -0.11,-0.03 -0.06,0.15 -0.07,0.31 -0.05,0.48l0 0.01c-0.34,0.41 -0.48,0.95 -0.53,1.51 -0.17,-0.2 -0.34,-0.4 -0.51,-0.6 0.02,-0.01 0.03,-0.02 0.03,-0.05 -0.01,-0.17 -0.06,-0.32 -0.16,-0.46 -0.04,-0.06 -0.15,-0 -0.1,0.06 0.07,0.1 0.12,0.21 0.13,0.33 -0.06,-0.07 -0.13,-0.15 -0.19,-0.22 -0.05,-0.06 -0.13,0.03 -0.08,0.08 0.29,0.34 0.58,0.68 0.88,1.02 -0.01,0.21 -0.01,0.41 -0.01,0.62l-0.01 0.01c-0.02,0.03 -0.01,0.05 0.01,0.07 0,0.2 0.01,0.39 0.02,0.58 0.04,0.94 0.11,1.88 0.21,2.82 -0.21,-0.12 -0.33,-0.34 -0.44,-0.55 -0.03,-0.07 -0.14,-0.01 -0.1,0.06 0.12,0.24 0.26,0.5 0.52,0.62 0.01,0.01 0.02,0.01 0.03,0 0.07,0.6 0.15,1.2 0.24,1.8 0.01,0.07 0.13,0.04 0.11,-0.03 -0.15,-0.98 -0.27,-1.97 -0.36,-2.96 0.01,-0 0.02,-0.01 0.03,-0.02 0.27,-0.52 0.65,-0.97 1.13,-1.31 0.06,-0.04 0,-0.15 -0.06,-0.1z"/>
  <path class="fil28" d="M7.92 15.36c-0.25,-0 -0.48,0.05 -0.68,0.16 0.09,-0.09 0.18,-0.18 0.28,-0.26 0.06,-0.05 0,-0.15 -0.06,-0.1 -0.2,0.15 -0.37,0.33 -0.52,0.53l-0.01 0.02c-0.4,0.31 -0.7,0.79 -0.88,1.25 -0.11,0.28 -0.19,0.57 -0.26,0.86 -0.07,-0.11 -0.1,-0.24 -0.14,-0.36 -0.03,-0.1 -0.06,-0.19 -0.15,-0.24 -0.06,-0.04 -0.12,0.06 -0.06,0.1 0.1,0.06 0.12,0.23 0.15,0.33 0.03,0.1 0.07,0.19 0.13,0.27 0.01,0.02 0.03,0.02 0.05,0.03 -0.14,0.71 -0.18,1.46 -0.25,2.17 -0.01,0.08 0.11,0.08 0.12,0 0.06,-0.67 0.11,-1.35 0.23,-2.01l0.02 -0.02c0.22,-0.25 0.45,-0.49 0.74,-0.67 0.09,0.08 0.18,0.14 0.29,0.18 0.07,0.02 0.1,-0.09 0.03,-0.11 -0.08,-0.03 -0.15,-0.07 -0.22,-0.12 0.08,-0.04 0.16,-0.08 0.25,-0.1 0.07,-0.02 0.04,-0.14 -0.03,-0.11 -0.11,0.03 -0.22,0.08 -0.32,0.14 -0.02,0 -0.03,0.01 -0.05,0.03 -0.26,0.15 -0.47,0.36 -0.68,0.58 0.04,-0.19 0.08,-0.37 0.14,-0.55 0.11,-0.37 0.29,-0.78 0.55,-1.12l0.01 -0c0.13,-0.04 0.27,-0.08 0.41,-0.1 0.07,-0.01 0.04,-0.12 -0.03,-0.11 -0.09,0.01 -0.17,0.03 -0.26,0.05 0.31,-0.36 0.71,-0.61 1.2,-0.6 0.08,0 0.08,-0.12 0,-0.12z"/>
  <path class="fil29" d="M6.3 22.97l-1.66 0 -0.37 -2.29 -0.17 -1.05 -0.09 -0.59 2.92 0 -0.09 0.59 -0.17 1.05 -0.37 2.29zm-2.29 -3.92l-1.03 0 1.03 0zm2.44 0.09c-0.06,0 -0.12,0.03 -0.12,0.07l-0.46 3.48c-0.01,0.04 0.05,0.08 0.12,0.09l0.01 0c0.06,0 0.12,-0.03 0.13,-0.07l0.46 -3.48c0.01,-0.04 -0.05,-0.08 -0.12,-0.09 -0,-0 -0.01,-0 -0.01,-0z"/>
  <polygon class="fil30" points="4.64,22.97 3.61,22.97 3.24,20.68 3.08,19.63 2.98,19.04 4.01,19.04 4.1,19.63 4.27,20.68 "/>
  <path class="fil31" d="M5.99 22.78l-0.01 -0c-0.07,-0 -0.12,-0.04 -0.12,-0.09l0.46 -3.48c0.01,-0.04 0.06,-0.07 0.12,-0.07 0,0 0.01,0 0.01,0 0.07,0 0.12,0.04 0.12,0.09l-0.46 3.48c-0.01,0.04 -0.06,0.07 -0.13,0.07z"/>
  <path class="fil19" d="M23.91 7.03l-2.84 0c-0.36,0 -0.65,-0.29 -0.65,-0.65l0 -2.18c0,-0.36 0.29,-0.65 0.65,-0.65l2.84 0c0.36,0 0.65,0.29 0.65,0.65l0 2.18c0,0.36 -0.29,0.65 -0.65,0.65z"/>
  <polygon class="fil19" points="23.72,6.53 21.55,7.97 21.82,6.77 "/>
  <path class="fil7" d="M23.57 7.03l-2.84 0c-0.36,0 -0.65,-0.29 -0.65,-0.65l0 -2.18c0,-0.36 0.29,-0.65 0.65,-0.65l2.84 0c0.36,0 0.65,0.29 0.65,0.65l0 2.18c0,0.36 -0.29,0.65 -0.65,0.65z"/>
  <polygon class="fil7" points="23.14,6.53 21.55,7.97 21.82,6.77 "/>
  <path class="fil19" d="M26.32 11.11l-2.21 0c-0.28,0 -0.51,-0.23 -0.51,-0.51l0 -1.7c0,-0.28 0.23,-0.51 0.51,-0.51l2.21 0c0.28,0 0.51,0.23 0.51,0.51l0 1.7c0,0.28 -0.23,0.51 -0.51,0.51z"/>
  <path class="fil7" d="M26.05 11.11l-2.21 0c-0.28,0 -0.51,-0.23 -0.51,-0.51l0 -1.7c0,-0.28 0.23,-0.51 0.51,-0.51l2.21 0c0.28,0 0.51,0.23 0.51,0.51l0 1.7c0,0.28 -0.23,0.51 -0.51,0.51z"/>
  <polygon class="fil7" points="23.99,10.63 22.15,10.09 23.44,9.75 "/>
  <path class="fil32" d="M26.01 9.29c-0.2,-0.51 -0.93,-0.21 -1.03,0.04l-0 0 -0 -0c-0.1,-0.24 -0.83,-0.54 -1.03,-0.04 -0.26,0.67 1.03,1.27 1.03,1.27 0,0 1.29,-0.6 1.03,-1.27z"/>
  <path class="fil33" d="M23.11 4.79c-0.2,-0.51 -0.93,-0.21 -1.03,0.04l-0 0 -0 -0c-0.1,-0.24 -0.83,-0.54 -1.03,-0.04 -0.26,0.67 1.03,1.27 1.03,1.27 0,0 1.29,-0.6 1.03,-1.27z"/>
 </g>
</svg>
