<?xml version="1.0" encoding="UTF-8"?>
<!DOCTYPE svg PUBLIC "-//W3C//DTD SVG 1.1//EN" "http://www.w3.org/Graphics/SVG/1.1/DTD/svg11.dtd">
<!-- Creator: CorelDRAW 2021 (64-Bit) -->
<svg xmlns="http://www.w3.org/2000/svg" xml:space="preserve" width="0.894551in" height="0.314732in" version="1.1" style="shape-rendering:geometricPrecision; text-rendering:geometricPrecision; image-rendering:optimizeQuality; fill-rule:evenodd; clip-rule:evenodd"
viewBox="0 0 73.55 25.88"
 xmlns:xlink="http://www.w3.org/1999/xlink"
 xmlns:xodm="http://www.corel.com/coreldraw/odm/2003">
 <defs>
  <style type="text/css">
   <![CDATA[
    .fil0 {fill:none;fill-rule:nonzero}
    .fil1 {fill:#FEFEFE;fill-rule:nonzero}
    .fil3 {fill:#E6E7E8;fill-rule:nonzero}
    .fil2 {fill:#232B62;fill-rule:nonzero}
   ]]>
  </style>
 </defs>
 <g id="Layer_x0020_1">
  <metadata id="CorelCorpID_0Corel-Layer"/>
  <path class="fil0" d="M23.95 19.31l-12.36 1.79c-2.01,0.29 -3.87,-1.1 -4.16,-3.11l-1.14 -7.91c-0.29,-2.01 1.1,-3.87 3.11,-4.16l12.36 -1.79c2.01,-0.29 3.87,1.1 4.16,3.11l1.14 7.91c0.29,2.01 -1.1,3.87 -3.11,4.16z"/>
  <path class="fil1" d="M22.66 5.11c-0.1,0 -0.2,0.01 -0.31,0.02l-13.27 1.92c-1.17,0.17 -1.98,1.25 -1.81,2.42l1.28 8.81c0.08,0.56 0.38,1.06 0.84,1.41 0.46,0.34 1.02,0.48 1.58,0.4l13.27 -1.92 0 0c1.17,-0.17 1.98,-1.25 1.81,-2.42l-1.28 -8.82c-0.15,-1.06 -1.07,-1.83 -2.11,-1.83zm-12 17.17c-0.92,0 -1.81,-0.29 -2.56,-0.86 -0.92,-0.69 -1.52,-1.69 -1.68,-2.83l-1.28 -8.82c-0.34,-2.35 1.29,-4.53 3.64,-4.87l13.27 -1.92c1.14,-0.16 2.27,0.12 3.19,0.81 0.92,0.69 1.52,1.69 1.68,2.83l1.28 8.82c0.34,2.35 -1.29,4.53 -3.64,4.87l0 0 -13.27 1.92c-0.21,0.03 -0.42,0.04 -0.63,0.04z"/>
  <path class="fil2" d="M26.85 25.88l-12.49 0c-2.03,0 -3.67,-1.64 -3.67,-3.67l0 -9.68c0,-2.03 1.64,-3.67 3.67,-3.67l12.49 0c2.03,0 3.67,1.64 3.67,3.67l0 9.68c0,2.03 -1.64,3.67 -3.67,3.67z"/>
  <path class="fil1" d="M13.9 10.54c-1.18,0 -2.14,0.96 -2.14,2.14l0 8.91c0,1.18 0.96,2.14 2.14,2.14l13.4 0c1.18,0 2.14,-0.96 2.14,-2.14l0 -8.91c0,-1.18 -0.96,-2.14 -2.14,-2.14l-13.4 0zm13.4 15.34l-13.4 0c-2.37,0 -4.3,-1.93 -4.3,-4.3l0 -8.91c0,-2.37 1.93,-4.3 4.3,-4.3l13.4 0c2.37,0 4.3,1.93 4.3,4.3l0 8.91c0,2.37 -1.93,4.3 -4.3,4.3z"/>
  <path class="fil1" d="M7.96 0.05l0.25 0.16c0.09,0.14 0.19,0.28 0.21,0.45 0.06,0.4 -0.16,0.77 -0.55,0.87 -0.48,0.13 -0.97,0.25 -1.43,0.44 -1.06,0.44 -1.99,1.07 -2.77,1.91 -1.09,1.18 -1.76,2.56 -2,4.15 -0.13,0.88 -0.11,1.76 0.06,2.63 0.04,0.21 0.04,0.41 -0.06,0.6 -0.14,0.28 -0.44,0.46 -0.75,0.44 -0.33,-0.03 -0.6,-0.23 -0.69,-0.54 -0.1,-0.34 -0.14,-0.7 -0.17,-1.06 -0.15,-1.53 0.06,-3.01 0.64,-4.44 0.38,-0.94 0.9,-1.8 1.57,-2.57 1.27,-1.48 2.85,-2.46 4.73,-2.97 0.16,-0.04 0.32,-0.08 0.48,-0.11 0.17,-0.04 0.33,-0 0.49,0.03z"/>
  <path class="fil1" d="M8.91 3.07c0.13,0.39 -0.03,0.8 -0.41,0.98 -0.15,0.07 -0.32,0.09 -0.47,0.14 -0.93,0.25 -1.74,0.71 -2.39,1.41 -1.08,1.15 -1.55,2.52 -1.42,4.1 0.02,0.21 0.06,0.41 0.09,0.61 0.04,0.4 -0.23,0.78 -0.63,0.86 -0.39,0.08 -0.79,-0.15 -0.9,-0.53 -0.13,-0.46 -0.17,-0.94 -0.17,-1.42 -0,-1.36 0.38,-2.61 1.18,-3.85 0.97,-1.42 2.38,-2.4 4.18,-2.79 0.43,-0.09 0.81,0.11 0.95,0.5z"/>
  <path class="fil1" d="M20.53 22.36l-9.08 0c-0.31,0 -0.56,-0.25 -0.56,-0.56l0 -1.11c0,-0.31 0.25,-0.56 0.56,-0.56l9.08 0c0.57,0 1.03,0.46 1.03,1.03l0 0.18c0,0.57 -0.46,1.03 -1.03,1.03z"/>
  <path class="fil3" d="M25.1 16.67l-9.38 0c-0.57,0 -1.03,-0.46 -1.03,-1.03l0 -0.17c0,-0.57 0.46,-1.03 1.03,-1.03l9.38 0c0.57,0 1.03,0.46 1.03,1.03l0 0.17c0,0.57 -0.46,1.03 -1.03,1.03z"/>
  <path class="fil1" d="M36.69 13.96l1.94 0 0 -1.94 -1.94 0 0 1.94zm0 8.53l1.94 0 0 -7.94 -1.94 0 0 7.94zm2.84 0l1.94 0c0,0 0,-4.73 0,-4.73 0,-0.87 0.48,-1.59 1.24,-1.59 0.76,0 1.07,0.7 1.07,1.59 0,0 0,4.73 0,4.73l1.94 0c0,0 0,-4.75 0,-4.75 0,-1.87 -0.85,-3.29 -2.5,-3.29 -0.75,0 -1.33,0.3 -1.75,0.81l0 -0.7 -1.94 0 0 7.94zm7.1 -8.53l1.94 0 0 -1.94 -1.94 0 0 1.94zm0 8.53l1.94 0 0 -7.94 -1.94 0 0 7.94zm6.93 -1.62c-0.17,0.03 -0.31,0.06 -0.46,0.06 -0.56,0 -0.96,-0.28 -0.96,-1.17l0 -3.49 1.4 0 0 -1.72 -1.4 0 0 -2.35 -1.95 0.56 0 1.8 -0.72 0 0 1.72 0.72 0 0 4.1c0,1.6 1.3,2.2 2.61,2.2 0.25,0 0.51,-0.03 0.76,-0.07l0 -1.63zm4.99 0c-0.17,0.03 -0.31,0.06 -0.46,0.06 -0.56,0 -0.96,-0.28 -0.96,-1.17l0 -3.49 1.4 0 0 -1.72 -1.4 0 0 -2.35 -1.95 0.56 0 1.8 -0.72 0 0 1.72 0.72 0 0 4.1c0,1.6 1.3,2.2 2.61,2.2 0.25,0 0.51,-0.03 0.76,-0.07l0 -1.63zm2.86 -3.71c-0.12,-0.46 0.11,-0.99 0.94,-0.99 0.81,0 1.07,0.42 1.08,1.23 -1,0.09 -4.3,0.5 -4.3,2.93 0,1.59 1.47,2.29 2.59,2.29 0.88,0 1.42,-0.37 1.75,-0.78 0.04,0.39 0.11,0.65 0.11,0.65l2.09 0c0,0 -0.15,-0.62 -0.15,-1.42 0,-1.53 0,-3.77 0,-3.77 0,-1.98 -1.2,-2.84 -3.04,-2.84 -1.82,0 -3.17,1.01 -3.01,2.71l1.93 0zm2.02 1.87l0 0.79c0,0.6 -0.49,1.12 -1.17,1.12 -0.57,0 -1.03,-0.33 -1.03,-0.66 0,-0.78 1.54,-1.14 2.2,-1.26zm3.15 6.01l1.94 0 0 -3.22c0.51,0.47 1.15,0.72 1.92,0.72 1.99,0 3.12,-1.54 3.12,-4.04 0,-2.32 -1.29,-4.04 -3.12,-4.04 -0.76,0 -1.41,0.25 -1.92,0.72l0 -0.62 -1.94 0 0 10.48zm1.94 -6.54c0,-1.38 0.62,-2.32 1.54,-2.32 0.9,0 1.54,0.91 1.54,2.32 0,1.38 -0.61,2.32 -1.54,2.32 -0.93,0 -1.54,-0.94 -1.54,-2.32z"/>
  <path class="fil1" d="M36.71 23.74c0,0.53 0.26,0.88 0.65,0.88 0.39,0 0.65,-0.35 0.65,-0.88 0,-0.53 -0.26,-0.88 -0.65,-0.88 -0.39,0 -0.65,0.35 -0.65,0.88zm0.22 0c0,-0.4 0.17,-0.67 0.43,-0.67 0.25,0 0.43,0.26 0.43,0.67 0,0.4 -0.17,0.67 -0.43,0.67 -0.26,0 -0.43,-0.27 -0.43,-0.67zm2.21 0.87l0.22 0c0,0 0,-0.78 0,-0.78 0,-0.19 0.1,-0.34 0.26,-0.34 0.16,0 0.22,0.15 0.22,0.34 0,0 0,0.78 0,0.78l0.22 0c0,0 0,-0.78 0,-0.78 0,-0.31 -0.14,-0.54 -0.41,-0.54 -0.12,0 -0.22,0.05 -0.29,0.13l0 -0.12 -0.22 0 0 1.31zm2.87 -0.41c-0.03,0.14 -0.12,0.21 -0.26,0.21 -0.16,0 -0.29,-0.15 -0.33,-0.36l0.81 0c0.08,-0.47 -0.14,-0.77 -0.49,-0.77 -0.35,0 -0.55,0.26 -0.55,0.67 0,0.39 0.23,0.67 0.55,0.67 0.27,0 0.44,-0.15 0.49,-0.41l-0.22 0zm-0.59 -0.35c0.03,-0.22 0.15,-0.37 0.32,-0.37 0.19,0 0.29,0.15 0.3,0.37l-0.62 0zm3.67 -0.12c0,-0.4 0.17,-0.67 0.43,-0.67 0.21,0 0.37,0.19 0.41,0.49l0.22 0c-0.07,-0.43 -0.3,-0.69 -0.64,-0.69 -0.39,0 -0.65,0.35 -0.65,0.88 0,0.53 0.26,0.88 0.65,0.88 0.34,0 0.58,-0.27 0.64,-0.68l-0.22 0c-0.05,0.3 -0.21,0.48 -0.41,0.48 -0.25,0 -0.43,-0.27 -0.43,-0.67zm2.48 -0.05c-0.01,-0.13 0.08,-0.2 0.21,-0.2 0.13,0 0.21,0.07 0.22,0.26 -0.17,0.02 -0.71,0.12 -0.71,0.5 0,0.26 0.24,0.38 0.43,0.38 0.15,0 0.23,-0.06 0.29,-0.13 0.01,0.06 0.02,0.11 0.02,0.11l0.23 0c0,0 -0.02,-0.1 -0.02,-0.23 0,-0.25 0,-0.62 0,-0.62 0,-0.33 -0.17,-0.47 -0.44,-0.47 -0.26,0 -0.46,0.17 -0.43,0.41l0.22 0zm0.43 0.27l0 0.21c0,0.14 -0.1,0.26 -0.25,0.26 -0.12,0 -0.22,-0.07 -0.22,-0.18 0,-0.2 0.34,-0.27 0.47,-0.29zm1.39 0.65l0.22 0 0 -0.76c0,-0.17 0.08,-0.35 0.29,-0.35 0.02,0 0.05,0 0.08,0.01l0 -0.2c-0.17,-0.02 -0.28,0.03 -0.36,0.12l0 -0.12 -0.22 0 0 1.31zm2.67 0l0 -1.73 -0.22 0 0 0.56c-0.08,-0.1 -0.2,-0.15 -0.34,-0.15 -0.29,0 -0.49,0.28 -0.49,0.67 0,0.41 0.18,0.67 0.49,0.67 0.14,0 0.25,-0.05 0.34,-0.15l0 0.15 0.22 0zm-0.22 -0.66c0,0.27 -0.12,0.46 -0.3,0.46 -0.18,0 -0.3,-0.19 -0.3,-0.46 0,-0.28 0.13,-0.46 0.3,-0.46 0.18,0 0.3,0.19 0.3,0.46zm2.84 0.66l0.22 0 0 -0.79 0.57 0 0 -0.21 -0.57 0 0 -0.53 0.69 0 0 -0.2 -0.91 0 0 1.73zm1.91 -0.66c0,0.4 0.21,0.67 0.53,0.67 0.35,0 0.53,-0.24 0.53,-0.67 0,-0.4 -0.21,-0.67 -0.53,-0.67 -0.32,0 -0.53,0.26 -0.53,0.67zm0.22 0c0,-0.27 0.12,-0.46 0.3,-0.46 0.18,0 0.3,0.18 0.3,0.46 0,0.27 -0.12,0.46 -0.3,0.46 -0.18,0 -0.3,-0.19 -0.3,-0.46zm1.97 0.66l0.22 0 0 -0.76c0,-0.17 0.08,-0.35 0.29,-0.35 0.02,0 0.05,0 0.08,0.01l0 -0.2c-0.17,-0.02 -0.28,0.03 -0.36,0.12l0 -0.12 -0.22 0 0 1.31zm3.13 0l0.22 0 0.1 -0.38 0.59 0 0.1 0.38 0.23 0 -0.44 -1.73 -0.33 0 -0.46 1.73zm0.37 -0.58l0.24 -0.91 0.23 0.91 -0.48 0zm1.92 0.58l0.22 0 0 -1.73 -0.22 0 0 1.73zm1.36 0l0.22 0 0 -1.73 -0.22 0 0 1.73z"/>
 </g>
</svg>
