<?xml version="1.0" encoding="UTF-8"?>
<!DOCTYPE svg PUBLIC "-//W3C//DTD SVG 1.1//EN" "http://www.w3.org/Graphics/SVG/1.1/DTD/svg11.dtd">
<!-- Creator: CorelDRAW 2021 (64-Bit) -->
<svg xmlns="http://www.w3.org/2000/svg" xml:space="preserve" width="0.623598in" height="0.219402in" version="1.1" style="shape-rendering:geometricPrecision; text-rendering:geometricPrecision; image-rendering:optimizeQuality; fill-rule:evenodd; clip-rule:evenodd"
viewBox="0 0 36.6 12.88"
 xmlns:xlink="http://www.w3.org/1999/xlink"
 xmlns:xodm="http://www.corel.com/coreldraw/odm/2003">
 <defs>
  <style type="text/css">
   <![CDATA[
    .fil0 {fill:#FEFEFE;fill-rule:nonzero}
    .fil6 {fill:url(#id0);fill-rule:nonzero}
    .fil3 {fill:url(#id1);fill-rule:nonzero}
    .fil8 {fill:url(#id2);fill-rule:nonzero}
    .fil7 {fill:url(#id3);fill-rule:nonzero}
    .fil1 {fill:url(#id4);fill-rule:nonzero}
    .fil2 {fill:url(#id5);fill-rule:nonzero}
    .fil4 {fill:url(#id6);fill-rule:nonzero}
    .fil5 {fill:url(#id7);fill-rule:nonzero}
   ]]>
  </style>
  <linearGradient id="id0" gradientUnits="userSpaceOnUse" x1="7.9" y1="7.33" x2="12.59" y2="7.35">
   <stop offset="0" style="stop-opacity:1; stop-color:#EFCC00"/>
   <stop offset="0.121569" style="stop-opacity:1; stop-color:#EFCC00"/>
   <stop offset="0.219608" style="stop-opacity:1; stop-color:#FFF212"/>
   <stop offset="0.321569" style="stop-opacity:1; stop-color:gold"/>
   <stop offset="0.431373" style="stop-opacity:1; stop-color:gold"/>
   <stop offset="0.521569" style="stop-opacity:1; stop-color:#EFCC00"/>
   <stop offset="0.639216" style="stop-opacity:1; stop-color:#EFCC00"/>
   <stop offset="0.760784" style="stop-opacity:1; stop-color:#FFF212"/>
   <stop offset="0.870588" style="stop-opacity:1; stop-color:gold"/>
   <stop offset="0.929412" style="stop-opacity:1; stop-color:#EFCC00"/>
   <stop offset="1" style="stop-opacity:1; stop-color:#FFF212"/>
  </linearGradient>
  <linearGradient id="id1" gradientUnits="userSpaceOnUse" xlink:href="#id0" x1="0.44" y1="0.85" x2="3.89" y2="0.85">
  </linearGradient>
  <linearGradient id="id2" gradientUnits="userSpaceOnUse" xlink:href="#id0" x1="19.78" y1="11.42" x2="31.69" y2="11.59">
  </linearGradient>
  <linearGradient id="id3" gradientUnits="userSpaceOnUse" xlink:href="#id0" x1="20.17" y1="6.9" x2="35.26" y2="6.94">
  </linearGradient>
  <linearGradient id="id4" gradientUnits="userSpaceOnUse" xlink:href="#id0" x1="3.73" y1="2.86" x2="13.21" y2="2.87">
  </linearGradient>
  <linearGradient id="id5" gradientUnits="userSpaceOnUse" xlink:href="#id0" x1="5.92" y1="5.43" x2="14.93" y2="5.44">
  </linearGradient>
  <linearGradient id="id6" gradientUnits="userSpaceOnUse" xlink:href="#id0" x1="1.63" y1="1.9" x2="4.23" y2="1.9">
  </linearGradient>
  <linearGradient id="id7" gradientUnits="userSpaceOnUse" xlink:href="#id0" x1="5.97" y1="10.16" x2="10.34" y2="10.18">
  </linearGradient>
 </defs>
 <g id="Layer_x0020_1">
  <metadata id="CorelCorpID_0Corel-Layer"/>
  <g id="_1874979236256">
   <path class="fil0" d="M11.92 9.61l-6.15 0.89c-1,0.14 -1.93,-0.55 -2.07,-1.55l-0.57 -3.94c-0.14,-1 0.55,-1.93 1.55,-2.07l6.15 -0.89c1,-0.14 1.93,0.55 2.07,1.55l0.57 3.94c0.14,1 -0.55,1.93 -1.55,2.07z"/>
   <path class="fil1" d="M11.28 2.54c-0.05,0 -0.1,0 -0.15,0.01l-6.6 0.96c-0.58,0.08 -0.98,0.62 -0.9,1.2l0.63 4.39c0.04,0.28 0.19,0.53 0.42,0.7 0.23,0.17 0.51,0.24 0.79,0.2l6.6 -0.96 0 0c0.58,-0.08 0.98,-0.62 0.9,-1.2l-0.63 -4.39c-0.08,-0.53 -0.53,-0.91 -1.05,-0.91zm-5.97 8.54c-0.46,0 -0.9,-0.15 -1.28,-0.43 -0.46,-0.34 -0.75,-0.84 -0.84,-1.41l-0.63 -4.39c-0.17,-1.17 0.64,-2.25 1.81,-2.42l6.6 -0.96c0.57,-0.08 1.13,0.06 1.59,0.4 0.46,0.34 0.75,0.84 0.84,1.41l0.63 4.39c0.17,1.17 -0.64,2.25 -1.81,2.42l0 0 -6.6 0.96c-0.1,0.02 -0.21,0.02 -0.31,0.02z"/>
   <path class="fil0" d="M13.36 12.88l-6.22 0c-1.01,0 -1.83,-0.82 -1.83,-1.83l0 -4.82c0,-1.01 0.82,-1.83 1.83,-1.83l6.22 0c1.01,0 1.83,0.82 1.83,1.83l0 4.82c0,1.01 -0.82,1.83 -1.83,1.83z"/>
   <path class="fil2" d="M6.92 5.24c-0.59,0 -1.06,0.48 -1.06,1.06l0 4.43c0,0.59 0.48,1.06 1.06,1.06l6.67 0c0.59,0 1.06,-0.48 1.06,-1.06l0 -4.43c0,-0.59 -0.48,-1.06 -1.06,-1.06l-6.67 0zm6.67 7.63l-6.67 0c-1.18,0 -2.14,-0.96 -2.14,-2.14l0 -4.43c0,-1.18 0.96,-2.14 2.14,-2.14l6.67 0c1.18,0 2.14,0.96 2.14,2.14l0 4.43c0,1.18 -0.96,2.14 -2.14,2.14z"/>
   <path class="fil3" d="M3.96 0.02l0.12 0.08c0.04,0.07 0.09,0.14 0.11,0.22 0.03,0.2 -0.08,0.38 -0.28,0.44 -0.24,0.06 -0.48,0.12 -0.71,0.22 -0.53,0.22 -0.99,0.53 -1.38,0.95 -0.54,0.59 -0.88,1.27 -1,2.07 -0.07,0.44 -0.05,0.87 0.03,1.31 0.02,0.1 0.02,0.2 -0.03,0.3 -0.07,0.14 -0.22,0.23 -0.37,0.22 -0.16,-0.01 -0.3,-0.11 -0.35,-0.27 -0.05,-0.17 -0.07,-0.35 -0.09,-0.53 -0.08,-0.76 0.03,-1.5 0.32,-2.21 0.19,-0.47 0.45,-0.89 0.78,-1.28 0.63,-0.74 1.42,-1.23 2.35,-1.48 0.08,-0.02 0.16,-0.04 0.24,-0.06 0.08,-0.02 0.17,-0 0.25,0.02z"/>
   <path class="fil4" d="M4.43 1.53c0.07,0.19 -0.02,0.4 -0.2,0.49 -0.07,0.04 -0.16,0.05 -0.24,0.07 -0.46,0.12 -0.86,0.35 -1.19,0.7 -0.54,0.57 -0.77,1.26 -0.71,2.04 0.01,0.1 0.03,0.2 0.04,0.3 0.02,0.2 -0.12,0.39 -0.31,0.43 -0.19,0.04 -0.39,-0.07 -0.45,-0.27 -0.07,-0.23 -0.08,-0.47 -0.08,-0.7 -0,-0.68 0.19,-1.3 0.59,-1.91 0.48,-0.71 1.18,-1.19 2.08,-1.39 0.21,-0.05 0.41,0.06 0.47,0.25z"/>
   <path class="fil5" d="M10.22 11.13l-4.52 0c-0.16,0 -0.28,-0.13 -0.28,-0.28l0 -0.55c0,-0.16 0.13,-0.28 0.28,-0.28l4.52 0c0.28,0 0.51,0.23 0.51,0.51l0 0.09c0,0.28 -0.23,0.51 -0.51,0.51z"/>
   <path class="fil6" d="M12.49 8.29l-4.67 0c-0.28,0 -0.51,-0.23 -0.51,-0.51l0 -0.09c0,-0.28 0.23,-0.51 0.51,-0.51l4.67 0c0.28,0 0.51,0.23 0.51,0.51l0 0.09c0,0.28 -0.23,0.51 -0.51,0.51z"/>
   <path class="fil7" d="M18.26 6.95l0.97 0 0 -0.97 -0.97 0 0 0.97zm0 4.25l0.97 0 0 -3.95 -0.97 0 0 3.95zm1.42 0l0.97 0c0,0 0,-2.35 0,-2.35 0,-0.43 0.24,-0.79 0.62,-0.79 0.38,0 0.53,0.35 0.53,0.79 0,0 0,2.35 0,2.35l0.97 0c0,0 0,-2.36 0,-2.36 0,-0.93 -0.42,-1.64 -1.24,-1.64 -0.37,0 -0.66,0.15 -0.87,0.4l0 -0.35 -0.97 0 0 3.95zm3.53 -4.25l0.97 0 0 -0.97 -0.97 0 0 0.97zm0 4.25l0.97 0 0 -3.95 -0.97 0 0 3.95zm3.45 -0.8c-0.08,0.01 -0.16,0.03 -0.23,0.03 -0.28,0 -0.48,-0.14 -0.48,-0.58l0 -1.74 0.7 0 0 -0.86 -0.7 0 0 -1.17 -0.97 0.28 0 0.89 -0.36 0 0 0.86 0.36 0 0 2.04c0,0.8 0.65,1.09 1.3,1.09 0.13,0 0.25,-0.01 0.38,-0.04l0 -0.81zm2.48 0c-0.08,0.01 -0.16,0.03 -0.23,0.03 -0.28,0 -0.48,-0.14 -0.48,-0.58l0 -1.74 0.7 0 0 -0.86 -0.7 0 0 -1.17 -0.97 0.28 0 0.89 -0.36 0 0 0.86 0.36 0 0 2.04c0,0.8 0.65,1.09 1.3,1.09 0.13,0 0.25,-0.01 0.38,-0.04l0 -0.81zm1.42 -1.85c-0.06,-0.23 0.05,-0.49 0.47,-0.49 0.4,0 0.53,0.21 0.54,0.61 -0.5,0.04 -2.14,0.25 -2.14,1.46 0,0.79 0.73,1.14 1.29,1.14 0.44,0 0.71,-0.19 0.87,-0.39 0.02,0.19 0.05,0.32 0.05,0.32l1.04 0c0,0 -0.07,-0.31 -0.07,-0.71 0,-0.76 0,-1.88 0,-1.88 0,-0.98 -0.6,-1.42 -1.51,-1.42 -0.91,0 -1.58,0.5 -1.5,1.35l0.96 0zm1.01 0.93l0 0.39c0,0.3 -0.24,0.56 -0.58,0.56 -0.28,0 -0.51,-0.16 -0.51,-0.33 0,-0.39 0.77,-0.57 1.09,-0.63zm1.57 2.99l0.97 0 0 -1.6c0.25,0.23 0.57,0.36 0.95,0.36 0.99,0 1.55,-0.77 1.55,-2.01 0,-1.16 -0.64,-2.01 -1.55,-2.01 -0.38,0 -0.7,0.13 -0.95,0.36l0 -0.31 -0.97 0 0 5.22zm0.97 -3.26c0,-0.68 0.31,-1.16 0.77,-1.16 0.45,0 0.77,0.45 0.77,1.16 0,0.69 -0.3,1.16 -0.77,1.16 -0.46,0 -0.77,-0.47 -0.77,-1.16z"/>
   <path class="fil8" d="M18.27 11.82c0,0.26 0.13,0.44 0.32,0.44 0.2,0 0.32,-0.17 0.32,-0.44 0,-0.26 -0.13,-0.44 -0.32,-0.44 -0.2,0 -0.32,0.17 -0.32,0.44zm0.11 0c0,-0.2 0.09,-0.33 0.21,-0.33 0.12,0 0.21,0.13 0.21,0.33 0,0.2 -0.08,0.33 -0.21,0.33 -0.13,0 -0.21,-0.14 -0.21,-0.33zm1.1 0.43l0.11 0c0,0 0,-0.39 0,-0.39 0,-0.09 0.05,-0.17 0.13,-0.17 0.08,0 0.11,0.08 0.11,0.17 0,0 0,0.39 0,0.39l0.11 0c0,0 0,-0.39 0,-0.39 0,-0.15 -0.07,-0.27 -0.21,-0.27 -0.06,0 -0.11,0.02 -0.14,0.07l0 -0.06 -0.11 0 0 0.65zm1.43 -0.2c-0.02,0.07 -0.06,0.1 -0.13,0.1 -0.08,0 -0.15,-0.07 -0.16,-0.18l0.4 0c0.04,-0.23 -0.07,-0.38 -0.24,-0.38 -0.17,0 -0.28,0.13 -0.28,0.33 0,0.2 0.11,0.33 0.28,0.33 0.13,0 0.22,-0.07 0.24,-0.21l-0.11 0zm-0.29 -0.17c0.02,-0.11 0.07,-0.18 0.16,-0.18 0.09,0 0.14,0.07 0.15,0.18l-0.31 0zm1.83 -0.06c0,-0.2 0.09,-0.33 0.21,-0.33 0.1,0 0.18,0.09 0.21,0.24l0.11 0c-0.03,-0.22 -0.15,-0.34 -0.32,-0.34 -0.2,0 -0.32,0.17 -0.32,0.44 0,0.26 0.13,0.44 0.32,0.44 0.17,0 0.29,-0.13 0.32,-0.34l-0.11 0c-0.02,0.15 -0.1,0.24 -0.2,0.24 -0.13,0 -0.21,-0.14 -0.21,-0.33zm1.23 -0.02c-0,-0.07 0.04,-0.1 0.11,-0.1 0.07,0 0.11,0.04 0.11,0.13 -0.08,0.01 -0.35,0.06 -0.35,0.25 0,0.13 0.12,0.19 0.21,0.19 0.07,0 0.12,-0.03 0.14,-0.06 0,0.03 0.01,0.05 0.01,0.05l0.11 0c0,0 -0.01,-0.05 -0.01,-0.12 0,-0.13 0,-0.31 0,-0.31 0,-0.16 -0.09,-0.23 -0.22,-0.23 -0.13,0 -0.23,0.08 -0.22,0.2l0.11 0zm0.22 0.13l0 0.11c0,0.07 -0.05,0.13 -0.12,0.13 -0.06,0 -0.11,-0.04 -0.11,-0.09 0,-0.1 0.17,-0.14 0.23,-0.15zm0.69 0.32l0.11 0 0 -0.38c0,-0.08 0.04,-0.17 0.14,-0.17 0.01,0 0.02,0 0.04,0l0 -0.1c-0.08,-0.01 -0.14,0.01 -0.18,0.06l0 -0.06 -0.11 0 0 0.65zm1.33 0l0 -0.86 -0.11 0 0 0.28c-0.04,-0.05 -0.1,-0.08 -0.17,-0.08 -0.14,0 -0.25,0.14 -0.25,0.33 0,0.21 0.09,0.33 0.25,0.33 0.07,0 0.13,-0.03 0.17,-0.08l0 0.07 0.11 0zm-0.11 -0.33c0,0.14 -0.06,0.23 -0.15,0.23 -0.09,0 -0.15,-0.09 -0.15,-0.23 0,-0.14 0.06,-0.23 0.15,-0.23 0.09,0 0.15,0.09 0.15,0.23zm1.41 0.33l0.11 0 0 -0.39 0.28 0 0 -0.1 -0.28 0 0 -0.26 0.34 0 0 -0.1 -0.45 0 0 0.86zm0.95 -0.33c0,0.2 0.1,0.33 0.26,0.33 0.17,0 0.26,-0.12 0.26,-0.33 0,-0.2 -0.1,-0.33 -0.26,-0.33 -0.16,0 -0.26,0.13 -0.26,0.33zm0.11 0c0,-0.14 0.06,-0.23 0.15,-0.23 0.09,0 0.15,0.09 0.15,0.23 0,0.14 -0.06,0.23 -0.15,0.23 -0.09,0 -0.15,-0.09 -0.15,-0.23zm0.98 0.33l0.11 0 0 -0.38c0,-0.08 0.04,-0.17 0.14,-0.17 0.01,0 0.02,0 0.04,0l0 -0.1c-0.08,-0.01 -0.14,0.01 -0.18,0.06l0 -0.06 -0.11 0 0 0.65zm1.56 0l0.11 0 0.05 -0.19 0.29 0 0.05 0.19 0.11 0 -0.22 -0.86 -0.16 0 -0.23 0.86zm0.18 -0.29l0.12 -0.45 0.12 0.45 -0.24 0zm0.95 0.29l0.11 0 0 -0.86 -0.11 0 0 0.86zm0.68 0l0.11 0 0 -0.86 -0.11 0 0 0.86z"/>
  </g>
 </g>
</svg>
