<svg id="Layer_1" data-name="Layer 1" xmlns="http://www.w3.org/2000/svg" viewBox="0 0 438.47 174.74"><defs><style>.cls-1{fill:#fcbd12;}</style></defs><path class="cls-1" d="M153,58.36h-.76l-1.38-9.57a23.6,23.6,0,0,0-26.74-20L51.26,39.35a23.64,23.64,0,0,0-20,26.74l7,48.41A23.43,23.43,0,0,0,47.52,130a23.78,23.78,0,0,0,8.47,4,23.64,23.64,0,0,0,23.4,20.43H153a23.63,23.63,0,0,0,23.61-23.61V82A23.63,23.63,0,0,0,153,58.36ZM53,51.11l72.85-10.55a12.09,12.09,0,0,1,1.69-.11,11.75,11.75,0,0,1,11.6,10l1.14,7.86H79.39A23.63,23.63,0,0,0,55.78,82v39.32a10.88,10.88,0,0,1-1.15-.76A11.68,11.68,0,0,1,50,112.81L43,64.4A11.74,11.74,0,0,1,53,51.11Zm26.42,91.5a11.74,11.74,0,0,1-10.93-7.46H115.8a5.65,5.65,0,0,0,5.66-5.65v-1a5.81,5.81,0,0,0-.41-2.13h0a5.64,5.64,0,0,0-5.24-3.52H67.66V82A11.74,11.74,0,0,1,79.39,70.24H153c.33,0,.66,0,1,0A11.77,11.77,0,0,1,164.73,82v48.91A11.75,11.75,0,0,1,153,142.61Z"/><path class="cls-1" d="M12.18,56.52a43,43,0,0,1,26.2-33.3,65.51,65.51,0,0,1,7.87-2.4,4.21,4.21,0,0,0,3-4.81,6.5,6.5,0,0,0-1.17-2.46l-1.36-.9a6.06,6.06,0,0,0-2.71-.17c-.89.21-1.78.38-2.65.62A51.4,51.4,0,0,0,3.31,67.9a32.36,32.36,0,0,0,1,5.8,4.18,4.18,0,0,0,3.81,3,4.32,4.32,0,0,0,4.13-2.4A4.91,4.91,0,0,0,12.52,71,42,42,0,0,1,12.18,56.52Z"/><path class="cls-1" d="M26.2,65.67A28.14,28.14,0,0,1,34,43.16,27.2,27.2,0,0,1,47.13,35.4a15.24,15.24,0,0,0,2.6-.76,4.33,4.33,0,0,0-3-8.11A36.59,36.59,0,0,0,23.83,41.88,37.58,37.58,0,0,0,17.37,63a28.33,28.33,0,0,0,.92,7.78,4.24,4.24,0,0,0,4.94,2.93A4.34,4.34,0,0,0,26.67,69C26.54,67.9,26.29,66.8,26.2,65.67Z"/><path class="cls-1" d="M141.44,91.64h0a5.3,5.3,0,0,0-.57,0H89.33a5.67,5.67,0,0,0-5.68,5.67v1a5.67,5.67,0,0,0,5.68,5.67h51.53a5.66,5.66,0,0,0,5.35-3.79,5.59,5.59,0,0,0,.33-1.88v-1a5.72,5.72,0,0,0-5.1-5.64Z"/><path class="cls-1" d="M195.68,70.68h10.69v57.56H195.68Z"/><path class="cls-1" d="M211.3,70.68h17.85l16.44,47.94V70.68h9.46v57.56H237.78l-17-49.67v49.67H211.3Z"/><path class="cls-1" d="M260,70.68h10.69v57.56H260Z"/><path class="cls-1" d="M289.17,80.14H275.6V70.68h37.83v9.46H299.86v48.1H289.17Z"/><path class="cls-1" d="M331.93,80.14H318.36V70.68h37.82v9.46H342.62v48.1H331.93Z"/><path class="cls-1" d="M365.06,70.68h14.15L394,128.24H383.07l-2.55-10H363l-2.63,10H349.85Zm13,38.15-6.17-24.09-6.42,24.09Z"/><path class="cls-1" d="M412.83,70.68c14.64,0,22.21,6.25,22.21,18,0,11.92-7.65,18.09-22.21,18.09h-5.67v21.54H396.47V70.68Zm-5.67,26.64h5.59c7.65,0,11.6-2.88,11.6-8.63s-4-8.55-11.6-8.55h-5.59Z"/><path class="cls-1" d="M199.36,131.08c2.8,0,4.62,2.48,4.62,6.24s-1.82,6.24-4.62,6.24-4.62-2.48-4.62-6.24S196.57,131.08,199.36,131.08Zm0,11c1.83,0,3-1.95,3-4.78s-1.26-4.78-3-4.78-3,2-3,4.78S197.53,142.1,199.36,142.1Z"/><path class="cls-1" d="M212.41,134.19H214V135a2.55,2.55,0,0,1,2.06-1c1.93,0,2.93,1.67,2.93,3.86v5.58H217.4V138c0-1.35-.44-2.42-1.57-2.42S214,136.62,214,138v5.56h-1.58Z"/><path class="cls-1" d="M234.8,140.61a3.27,3.27,0,0,1-3.46,2.95c-2.32,0-3.94-1.95-3.94-4.75s1.46-4.74,3.94-4.74,4,2.18,3.46,5.5H229c.23,1.49,1.16,2.53,2.32,2.53a1.73,1.73,0,0,0,1.85-1.49Zm-1.38-2.46c-.09-1.57-.81-2.62-2.15-2.62-1.19,0-2,1.05-2.25,2.62Z"/><path class="cls-1" d="M258.87,142.1c1.48,0,2.59-1.26,2.94-3.41h1.6c-.4,3-2.14,4.87-4.55,4.87-2.78,0-4.61-2.48-4.61-6.24s1.83-6.24,4.62-6.24c2.38,0,4.05,1.83,4.54,4.92h-1.58c-.32-2.13-1.46-3.46-3-3.46-1.81,0-3,1.93-3,4.78S257.06,142.1,258.87,142.1Z"/><path class="cls-1" d="M272.24,137c-.16-1.71,1.21-2.9,3.09-2.9s3.17,1,3.17,3.34v4.43a8,8,0,0,0,.17,1.67h-1.62a7,7,0,0,1-.12-.76,2.51,2.51,0,0,1-2.06.92,2.85,2.85,0,0,1-3-2.69c0-2.73,3.87-3.41,5.05-3.57,0-1.37-.6-1.88-1.55-1.88s-1.6.51-1.53,1.44Zm1.3,4a1.42,1.42,0,0,0,1.58,1.3,1.8,1.8,0,0,0,1.76-1.88v-1.51C276,139,273.54,139.5,273.54,141Z"/><path class="cls-1" d="M287.09,134.19h1.59V135a2.69,2.69,0,0,1,2.58-.84v1.46a2.62,2.62,0,0,0-.55-.05c-1.47,0-2,1.28-2,2.49v5.42h-1.59Z"/><path class="cls-1" d="M304.89,143.51v-1a3.07,3.07,0,0,1-2.39,1.09c-2.25,0-3.52-1.81-3.52-4.75,0-2.72,1.46-4.74,3.52-4.74a3,3,0,0,1,2.39,1.09v-4h1.58v12.31Zm-2.17-8c-1.26,0-2.16,1.3-2.16,3.28s.86,3.29,2.16,3.29,2.17-1.33,2.17-3.29S304,135.53,302.72,135.53Z"/><path class="cls-1" d="M325.77,131.2h6.51v1.46h-4.92v3.78h4v1.46h-4v5.61h-1.59Z"/><path class="cls-1" d="M343.48,134.07c2.27,0,3.74,1.88,3.74,4.74,0,3.08-1.26,4.75-3.74,4.75-2.27,0-3.75-1.88-3.75-4.75S341.21,134.07,343.48,134.07Zm0,8c1.3,0,2.16-1.33,2.16-3.29s-.9-3.28-2.16-3.28-2.16,1.33-2.16,3.28S342.18,142.1,343.48,142.1Z"/><path class="cls-1" d="M355.65,134.19h1.58V135a2.7,2.7,0,0,1,2.58-.84v1.46a2.59,2.59,0,0,0-.54-.05c-1.48,0-2,1.28-2,2.49v5.42h-1.58Z"/><path class="cls-1" d="M381.84,131.2h2.32l3.17,12.31h-1.64l-.68-2.69h-4.17l-.7,2.69h-1.55Zm2.78,8.16L383,132.85l-1.72,6.51Z"/><path class="cls-1" d="M395.22,131.2h1.58v12.31h-1.58Z"/><path class="cls-1" d="M405.23,131.2h1.58v12.31h-1.58Z"/></svg>