<svg id="Layer_1" data-name="Layer 1" xmlns="http://www.w3.org/2000/svg" viewBox="0 0 438.47 151.87"><defs><style>.cls-1{fill:#fff;}</style></defs><path class="cls-1" d="M153,49.36h-.76l-1.38-9.57a23.6,23.6,0,0,0-26.72-20h0L51.26,30.35a23.65,23.65,0,0,0-20,26.74l7,48.41A23.42,23.42,0,0,0,47.52,121,23.84,23.84,0,0,0,56,125a23.63,23.63,0,0,0,23.4,20.43H153a23.63,23.63,0,0,0,23.61-23.61V73A23.62,23.62,0,0,0,153,49.36ZM53,42.11l72.85-10.55a11.89,11.89,0,0,1,1.69-.11,11.75,11.75,0,0,1,11.6,10l1.14,7.86H79.39A23.63,23.63,0,0,0,55.78,73v39.36a10.88,10.88,0,0,1-1.15-.76A11.67,11.67,0,0,1,50,103.81L43,55.4A11.73,11.73,0,0,1,53,42.12Zm26.42,91.5a11.74,11.74,0,0,1-10.93-7.46H115.8a5.65,5.65,0,0,0,5.66-5.64h0v-1a5.76,5.76,0,0,0-.41-2.13h0a5.63,5.63,0,0,0-5.24-3.52H67.66V73A11.74,11.74,0,0,1,79.38,61.24H154A11.77,11.77,0,0,1,164.73,73v48.91A11.75,11.75,0,0,1,153,133.61Z"/><path class="cls-1" d="M12.18,47.52a43,43,0,0,1,26.2-33.3,65.51,65.51,0,0,1,7.87-2.4,4.21,4.21,0,0,0,3-4.81,6.5,6.5,0,0,0-1.17-2.46l-1.36-.9A6.06,6.06,0,0,0,44,3.48c-.89.21-1.78.38-2.65.62a51.41,51.41,0,0,0-38,54.8,32.58,32.58,0,0,0,1,5.8,4.18,4.18,0,0,0,3.81,3,4.33,4.33,0,0,0,4.13-2.4,4.94,4.94,0,0,0,.27-3.3A41.93,41.93,0,0,1,12.18,47.52Z"/><path class="cls-1" d="M26.2,56.67A28.16,28.16,0,0,1,34,34.16,27.16,27.16,0,0,1,47.13,26.4a15.51,15.51,0,0,0,2.6-.76,4.33,4.33,0,0,0-3-8.11,36.6,36.6,0,0,0-22.9,15.35A37.57,37.57,0,0,0,17.37,54a28,28,0,0,0,.92,7.78,4.24,4.24,0,0,0,4.94,2.93A4.34,4.34,0,0,0,26.67,60C26.54,58.9,26.29,57.8,26.2,56.67Z"/><path class="cls-1" d="M141.44,82.64h0a5.42,5.42,0,0,0-.57,0H89.33a5.67,5.67,0,0,0-5.68,5.66h0v1A5.67,5.67,0,0,0,89.32,95h51.54a5.67,5.67,0,0,0,5.35-3.79,5.47,5.47,0,0,0,.33-1.88v-1a5.72,5.72,0,0,0-5.1-5.64Z"/><path class="cls-1" d="M195.68,61.68h10.69v57.56H195.68Z"/><path class="cls-1" d="M211.3,61.68h17.85l16.44,47.94V61.68h9.46v57.56H237.78l-17-49.67v49.67H211.3Z"/><path class="cls-1" d="M260,61.68h10.69v57.56H260Z"/><path class="cls-1" d="M289.17,71.14H275.6V61.68h37.83v9.46H299.86v48.1H289.17Z"/><path class="cls-1" d="M331.93,71.14H318.36V61.68h37.82v9.46H342.62v48.1H331.93Z"/><path class="cls-1" d="M365.06,61.68h14.15L394,119.24H383.07l-2.55-10H363l-2.63,10H349.85Zm13,38.15-6.17-24.09-6.42,24.09Z"/><path class="cls-1" d="M412.83,61.68c14.64,0,22.21,6.25,22.21,18,0,11.92-7.65,18.09-22.21,18.09h-5.67v21.54H396.47V61.68Zm-5.67,26.64h5.59c7.65,0,11.6-2.88,11.6-8.63s-4-8.55-11.6-8.55h-5.59Z"/><path class="cls-1" d="M199.36,122.08c2.8,0,4.62,2.48,4.62,6.24s-1.82,6.24-4.62,6.24-4.62-2.48-4.62-6.24S196.57,122.08,199.36,122.08Zm0,11c1.83,0,3-2,3-4.78s-1.26-4.78-3-4.78-3,2-3,4.78,1.17,4.8,3,4.8Z"/><path class="cls-1" d="M212.41,125.19H214V126a2.55,2.55,0,0,1,2.06-1c1.93,0,2.93,1.67,2.93,3.86v5.58H217.4V129c0-1.35-.44-2.42-1.57-2.42s-1.83,1-1.83,2.42v5.56h-1.58Z"/><path class="cls-1" d="M234.8,131.61a3.27,3.27,0,0,1-3.46,2.95c-2.32,0-3.94-1.95-3.94-4.75s1.46-4.74,3.94-4.74,4,2.18,3.46,5.5H229c.23,1.49,1.16,2.53,2.32,2.53a1.73,1.73,0,0,0,1.85-1.49Zm-1.38-2.46c-.09-1.57-.81-2.62-2.15-2.62-1.19,0-2,1-2.25,2.62Z"/><path class="cls-1" d="M258.87,133.1c1.48,0,2.59-1.26,2.94-3.41h1.6c-.4,3-2.14,4.87-4.55,4.87-2.78,0-4.61-2.48-4.61-6.24s1.83-6.24,4.62-6.24c2.38,0,4.05,1.83,4.54,4.92h-1.58c-.32-2.13-1.46-3.46-3-3.46-1.81,0-3,1.93-3,4.78S257.06,133.1,258.87,133.1Z"/><path class="cls-1" d="M272.24,128c-.16-1.71,1.21-2.9,3.09-2.9s3.17,1,3.17,3.34v4.43a7.82,7.82,0,0,0,.17,1.67h-1.62c-.05-.25-.09-.5-.12-.76a2.49,2.49,0,0,1-2.06.92,2.85,2.85,0,0,1-3-2.69c0-2.73,3.87-3.41,5.05-3.57,0-1.37-.6-1.88-1.55-1.88s-1.6.51-1.53,1.44Zm1.3,4a1.42,1.42,0,0,0,1.53,1.31h.05a1.8,1.8,0,0,0,1.76-1.84v-1.55c-.88.09-3.34.59-3.34,2.09Z"/><path class="cls-1" d="M287.09,125.19h1.59V126a2.69,2.69,0,0,1,2.58-.84v1.46a2.56,2.56,0,0,0-.55-.05c-1.47,0-2,1.28-2,2.49v5.42h-1.59Z"/><path class="cls-1" d="M304.89,134.51v-1a3.08,3.08,0,0,1-2.39,1.09c-2.25,0-3.52-1.81-3.52-4.75,0-2.72,1.46-4.74,3.52-4.74a3,3,0,0,1,2.39,1.09v-4h1.58v12.31Zm-2.17-8c-1.26,0-2.16,1.3-2.16,3.28s.86,3.29,2.16,3.29,2.17-1.33,2.17-3.29-.89-3.26-2.17-3.26Z"/><path class="cls-1" d="M325.77,122.2h6.51v1.46h-4.92v3.78h4v1.46h-4v5.61h-1.59Z"/><path class="cls-1" d="M343.48,125.07c2.27,0,3.74,1.88,3.74,4.74,0,3.08-1.26,4.75-3.74,4.75-2.27,0-3.75-1.88-3.75-4.75S341.21,125.07,343.48,125.07Zm0,8c1.3,0,2.16-1.33,2.16-3.29s-.9-3.28-2.16-3.28-2.16,1.33-2.16,3.28.86,3.32,2.16,3.32Z"/><path class="cls-1" d="M355.65,125.19h1.58V126a2.72,2.72,0,0,1,2.58-.84v1.46a2.47,2.47,0,0,0-.54-.05c-1.48,0-2,1.28-2,2.49v5.42h-1.58Z"/><path class="cls-1" d="M381.84,122.2h2.32l3.17,12.31h-1.64l-.68-2.69h-4.17l-.7,2.69h-1.55Zm2.78,8.16L383,123.85l-1.72,6.51Z"/><path class="cls-1" d="M395.22,122.2h1.58v12.31h-1.58Z"/><path class="cls-1" d="M405.23,122.2h1.58v12.31h-1.58Z"/></svg>